<ttFont>
    <TTGlyph name="A" xMin="53" yMin="-147" xMax="1214" yMax="609">
      <contour>
        <pt x="1043" y="-41" on="1"/>
        <pt x="1069" y="-41" on="0"/>
        <pt x="1093" y="-13" on="1"/>
        <pt x="1108" y="-25" on="1"/>
        <pt x="1105" y="-29" on="0"/>
        <pt x="1095" y="-41" on="0"/>
        <pt x="1056" y="-61" on="0"/>
        <pt x="1033" y="-61" on="1"/>
        <pt x="921" y="-61" on="0"/>
        <pt x="921" y="36" on="1"/>
        <pt x="921" y="66" on="0"/>
        <pt x="928" y="125" on="1"/>
        <pt x="880" y="110" on="0"/>
        <pt x="842" y="110" on="1"/>
        <pt x="775" y="110" on="0"/>
        <pt x="708" y="151" on="1"/>
        <pt x="669" y="84" on="0"/>
        <pt x="601" y="-11" on="0"/>
        <pt x="556" y="-56" on="1"/>
        <pt x="463" y="-147" on="0"/>
        <pt x="200" y="-147" on="0"/>
        <pt x="122" y="-63" on="1"/>
        <pt x="53" y="14" on="0"/>
        <pt x="53" y="235" on="0"/>
        <pt x="195" y="407" on="0"/>
        <pt x="421" y="407" on="0"/>
        <pt x="480" y="340" on="1"/>
        <pt x="494" y="322" on="0"/>
        <pt x="500" y="313" on="1"/>
        <pt x="554" y="290" on="0"/>
        <pt x="623" y="237" on="1"/>
        <pt x="675" y="195" on="0"/>
        <pt x="700" y="179" on="1"/>
        <pt x="714" y="205" on="0"/>
        <pt x="763" y="293" on="0"/>
        <pt x="789" y="339" on="0"/>
        <pt x="841" y="423" on="0"/>
        <pt x="874" y="466" on="0"/>
        <pt x="929" y="531" on="0"/>
        <pt x="952" y="547" on="1"/>
        <pt x="1021" y="596" on="0"/>
        <pt x="1068" y="604" on="1"/>
        <pt x="1094" y="608" on="0"/>
        <pt x="1130" y="608" on="0"/>
        <pt x="1174" y="607" on="0"/>
        <pt x="1214" y="596" on="1"/>
        <pt x="1209" y="577" on="1"/>
        <pt x="1185" y="584" on="0"/>
        <pt x="1158" y="587" on="1"/>
        <pt x="1058" y="194" on="0"/>
      </contour>
      <contour>
        <pt x="532" y="197" on="1"/>
        <pt x="532" y="123" on="0"/>
        <pt x="447" y="9" on="0"/>
        <pt x="375" y="9" on="1"/>
        <pt x="328" y="9" on="0"/>
        <pt x="269" y="65" on="0"/>
        <pt x="269" y="125" on="0"/>
        <pt x="287" y="164" on="0"/>
        <pt x="310" y="184" on="0"/>
        <pt x="324" y="190" on="1"/>
        <pt x="343" y="200" on="0"/>
        <pt x="354" y="200" on="1"/>
        <pt x="356" y="180" on="1"/>
        <pt x="331" y="180" on="0"/>
        <pt x="289" y="132" on="0"/>
        <pt x="289" y="72" on="0"/>
        <pt x="336" y="29" on="0"/>
        <pt x="375" y="29" on="1"/>
        <pt x="439" y="29" on="0"/>
        <pt x="513" y="129" on="0"/>
        <pt x="513" y="251" on="0"/>
        <pt x="488" y="296" on="1"/>
        <pt x="433" y="317" on="0"/>
        <pt x="379" y="317" on="1"/>
        <pt x="275" y="317" on="0"/>
        <pt x="232" y="220" on="1"/>
        <pt x="213" y="226" on="1"/>
        <pt x="224" y="251" on="0"/>
        <pt x="248" y="280" on="1"/>
        <pt x="295" y="337" on="0"/>
        <pt x="379" y="337" on="1"/>
        <pt x="424" y="337" on="0"/>
        <pt x="468" y="324" on="1"/>
        <pt x="466" y="327" on="1"/>
        <pt x="411" y="387" on="0"/>
        <pt x="204" y="387" on="0"/>
        <pt x="73" y="227" on="0"/>
        <pt x="73" y="20" on="0"/>
        <pt x="137" y="-49" on="1"/>
        <pt x="209" y="-127" on="0"/>
        <pt x="338" y="-127" on="1"/>
        <pt x="456" y="-127" on="0"/>
        <pt x="544" y="-38" on="1"/>
        <pt x="588" y="5" on="0"/>
        <pt x="653" y="97" on="0"/>
        <pt x="691" y="162" on="1"/>
        <pt x="657" y="184" on="0"/>
        <pt x="560" y="261" on="0"/>
        <pt x="515" y="284" on="1"/>
        <pt x="532" y="242" on="0"/>
      </contour>
      <contour>
        <pt x="718" y="168" on="1"/>
        <pt x="782" y="130" on="0"/>
        <pt x="889" y="130" on="0"/>
        <pt x="931" y="147" on="1"/>
        <pt x="955" y="316" on="0"/>
        <pt x="1021" y="567" on="1"/>
        <pt x="941" y="529" on="0"/>
        <pt x="874" y="432" on="1"/>
        <pt x="825" y="362" on="0"/>
        <pt x="756" y="237" on="1"/>
      </contour>
    </TTGlyph>
    <TTGlyph name="AE" xMin="53" yMin="-147" xMax="1482" yMax="665">
      <contour>
        <pt x="1051" y="-41" on="1"/>
        <pt x="1110" y="-41" on="0"/>
        <pt x="1290" y="16" on="0"/>
        <pt x="1365" y="20" on="1"/>
        <pt x="1362" y="0" on="1"/>
        <pt x="1298" y="-3" on="0"/>
        <pt x="1108" y="-61" on="0"/>
        <pt x="1033" y="-61" on="1"/>
        <pt x="921" y="-61" on="0"/>
        <pt x="921" y="36" on="1"/>
        <pt x="921" y="66" on="0"/>
        <pt x="928" y="125" on="1"/>
        <pt x="887" y="110" on="0"/>
        <pt x="842" y="110" on="1"/>
        <pt x="775" y="110" on="0"/>
        <pt x="708" y="151" on="1"/>
        <pt x="669" y="84" on="0"/>
        <pt x="601" y="-11" on="0"/>
        <pt x="556" y="-56" on="1"/>
        <pt x="463" y="-147" on="0"/>
        <pt x="200" y="-147" on="0"/>
        <pt x="122" y="-63" on="1"/>
        <pt x="53" y="14" on="0"/>
        <pt x="53" y="235" on="0"/>
        <pt x="195" y="407" on="0"/>
        <pt x="421" y="407" on="0"/>
        <pt x="480" y="340" on="1"/>
        <pt x="494" y="322" on="0"/>
        <pt x="500" y="313" on="1"/>
        <pt x="554" y="290" on="0"/>
        <pt x="623" y="237" on="1"/>
        <pt x="675" y="195" on="0"/>
        <pt x="700" y="179" on="1"/>
        <pt x="714" y="205" on="0"/>
        <pt x="765" y="297" on="0"/>
        <pt x="797" y="352" on="0"/>
        <pt x="852" y="440" on="0"/>
        <pt x="894" y="491" on="0"/>
        <pt x="955" y="553" on="0"/>
        <pt x="984" y="570" on="1"/>
        <pt x="1053" y="609" on="0"/>
        <pt x="1125" y="609" on="1"/>
        <pt x="1152" y="609" on="0"/>
        <pt x="1262" y="590" on="0"/>
        <pt x="1303" y="590" on="1"/>
        <pt x="1408" y="590" on="0"/>
        <pt x="1453" y="610" on="1"/>
        <pt x="1459" y="646" on="0"/>
        <pt x="1459" y="665" on="1"/>
        <pt x="1482" y="665" on="1"/>
        <pt x="1482" y="608" on="0"/>
        <pt x="1397" y="401" on="0"/>
        <pt x="1397" y="356" on="1"/>
        <pt x="1375" y="356" on="1"/>
        <pt x="1375" y="403" on="0"/>
        <pt x="1443" y="571" on="0"/>
        <pt x="1448" y="589" on="1"/>
        <pt x="1404" y="572" on="0"/>
        <pt x="1303" y="572" on="1"/>
        <pt x="1238" y="572" on="0"/>
        <pt x="1168" y="587" on="0"/>
        <pt x="1159" y="588" on="1"/>
        <pt x="1120" y="446" on="0"/>
        <pt x="1085" y="256" on="1"/>
        <pt x="1405" y="256" on="1"/>
        <pt x="1403" y="238" on="1"/>
        <pt x="1082" y="238" on="1"/>
        <pt x="1056" y="96" on="0"/>
        <pt x="1043" y="-41" on="1"/>
        <pt x="1047" y="-41" on="0"/>
      </contour>
      <contour>
        <pt x="532" y="197" on="1"/>
        <pt x="532" y="123" on="0"/>
        <pt x="447" y="9" on="0"/>
        <pt x="375" y="9" on="1"/>
        <pt x="328" y="9" on="0"/>
        <pt x="269" y="65" on="0"/>
        <pt x="269" y="125" on="0"/>
        <pt x="287" y="164" on="0"/>
        <pt x="310" y="184" on="0"/>
        <pt x="324" y="190" on="1"/>
        <pt x="343" y="200" on="0"/>
        <pt x="354" y="200" on="1"/>
        <pt x="356" y="180" on="1"/>
        <pt x="331" y="180" on="0"/>
        <pt x="289" y="132" on="0"/>
        <pt x="289" y="72" on="0"/>
        <pt x="336" y="29" on="0"/>
        <pt x="375" y="29" on="1"/>
        <pt x="439" y="29" on="0"/>
        <pt x="513" y="129" on="0"/>
        <pt x="513" y="251" on="0"/>
        <pt x="488" y="296" on="1"/>
        <pt x="433" y="317" on="0"/>
        <pt x="379" y="317" on="1"/>
        <pt x="275" y="317" on="0"/>
        <pt x="232" y="220" on="1"/>
        <pt x="213" y="226" on="1"/>
        <pt x="224" y="251" on="0"/>
        <pt x="248" y="280" on="1"/>
        <pt x="295" y="337" on="0"/>
        <pt x="379" y="337" on="1"/>
        <pt x="424" y="337" on="0"/>
        <pt x="468" y="324" on="1"/>
        <pt x="466" y="327" on="1"/>
        <pt x="411" y="387" on="0"/>
        <pt x="204" y="387" on="0"/>
        <pt x="73" y="227" on="0"/>
        <pt x="73" y="20" on="0"/>
        <pt x="137" y="-49" on="1"/>
        <pt x="209" y="-127" on="0"/>
        <pt x="338" y="-127" on="1"/>
        <pt x="456" y="-127" on="0"/>
        <pt x="544" y="-38" on="1"/>
        <pt x="588" y="5" on="0"/>
        <pt x="653" y="97" on="0"/>
        <pt x="691" y="162" on="1"/>
        <pt x="657" y="184" on="0"/>
        <pt x="560" y="261" on="0"/>
        <pt x="515" y="284" on="1"/>
        <pt x="532" y="242" on="0"/>
      </contour>
      <contour>
        <pt x="844" y="128" on="1"/>
        <pt x="880" y="128" on="0"/>
        <pt x="930" y="146" on="1"/>
        <pt x="951" y="298" on="0"/>
        <pt x="1021" y="567" on="1"/>
        <pt x="986" y="550" on="0"/>
        <pt x="916" y="486" on="0"/>
        <pt x="872" y="434" on="0"/>
        <pt x="840" y="382" on="1"/>
        <pt x="799" y="317" on="0"/>
        <pt x="756" y="237" on="1"/>
        <pt x="718" y="168" on="1"/>
        <pt x="785" y="128" on="0"/>
      </contour>
    </TTGlyph>
    <TTGlyph name="Aacute" xMin="53" yMin="-147" xMax="1214" yMax="764">
      <contour>
        <pt x="1214" y="596" on="1"/>
        <pt x="1209" y="577" on="1"/>
        <pt x="1185" y="584" on="0"/>
        <pt x="1158" y="587" on="1"/>
        <pt x="1058" y="194" on="0"/>
        <pt x="1043" y="-41" on="1"/>
        <pt x="1072" y="-41" on="0"/>
        <pt x="1093" y="-13" on="1"/>
        <pt x="1108" y="-25" on="1"/>
        <pt x="1100" y="-34" on="1"/>
        <pt x="1093" y="-43" on="0"/>
        <pt x="1056" y="-61" on="0"/>
        <pt x="1033" y="-61" on="1"/>
        <pt x="921" y="-61" on="0"/>
        <pt x="921" y="36" on="1"/>
        <pt x="921" y="66" on="0"/>
        <pt x="928" y="125" on="1"/>
        <pt x="880" y="110" on="0"/>
        <pt x="842" y="110" on="1"/>
        <pt x="775" y="110" on="0"/>
        <pt x="708" y="151" on="1"/>
        <pt x="669" y="84" on="0"/>
        <pt x="601" y="-11" on="0"/>
        <pt x="556" y="-56" on="1"/>
        <pt x="463" y="-147" on="0"/>
        <pt x="338" y="-147" on="1"/>
        <pt x="200" y="-147" on="0"/>
        <pt x="122" y="-63" on="1"/>
        <pt x="53" y="14" on="0"/>
        <pt x="53" y="235" on="0"/>
        <pt x="195" y="407" on="0"/>
        <pt x="421" y="407" on="0"/>
        <pt x="480" y="340" on="1"/>
        <pt x="494" y="322" on="0"/>
        <pt x="500" y="313" on="1"/>
        <pt x="554" y="290" on="0"/>
        <pt x="623" y="237" on="1"/>
        <pt x="675" y="195" on="0"/>
        <pt x="700" y="179" on="1"/>
        <pt x="707" y="192" on="0"/>
        <pt x="734" y="240" on="0"/>
        <pt x="781" y="326" on="0"/>
        <pt x="815" y="381" on="1"/>
        <pt x="841" y="423" on="0"/>
        <pt x="874" y="466" on="0"/>
        <pt x="929" y="531" on="0"/>
        <pt x="974" y="563" on="0"/>
        <pt x="1038" y="599" on="0"/>
        <pt x="1094" y="608" on="0"/>
        <pt x="1170" y="608" on="0"/>
      </contour>
      <contour>
        <pt x="532" y="197" on="1"/>
        <pt x="532" y="123" on="0"/>
        <pt x="447" y="9" on="0"/>
        <pt x="375" y="9" on="1"/>
        <pt x="328" y="9" on="0"/>
        <pt x="269" y="65" on="0"/>
        <pt x="269" y="148" on="0"/>
        <pt x="298" y="174" on="1"/>
        <pt x="310" y="184" on="0"/>
        <pt x="343" y="200" on="0"/>
        <pt x="354" y="200" on="1"/>
        <pt x="356" y="180" on="1"/>
        <pt x="331" y="180" on="0"/>
        <pt x="306" y="152" on="1"/>
        <pt x="289" y="132" on="0"/>
        <pt x="289" y="72" on="0"/>
        <pt x="336" y="29" on="0"/>
        <pt x="375" y="29" on="1"/>
        <pt x="439" y="29" on="0"/>
        <pt x="513" y="129" on="0"/>
        <pt x="513" y="251" on="0"/>
        <pt x="488" y="296" on="1"/>
        <pt x="433" y="317" on="0"/>
        <pt x="379" y="317" on="1"/>
        <pt x="307" y="317" on="0"/>
        <pt x="263" y="269" on="1"/>
        <pt x="249" y="254" on="0"/>
        <pt x="232" y="220" on="1"/>
        <pt x="213" y="226" on="1"/>
        <pt x="222" y="244" on="1"/>
        <pt x="224" y="249" on="0"/>
        <pt x="255" y="292" on="0"/>
        <pt x="287" y="315" on="0"/>
        <pt x="346" y="337" on="0"/>
        <pt x="424" y="337" on="0"/>
        <pt x="468" y="324" on="1"/>
        <pt x="466" y="327" on="1"/>
        <pt x="411" y="387" on="0"/>
        <pt x="204" y="387" on="0"/>
        <pt x="73" y="227" on="0"/>
        <pt x="73" y="20" on="0"/>
        <pt x="137" y="-49" on="1"/>
        <pt x="209" y="-127" on="0"/>
        <pt x="456" y="-127" on="0"/>
        <pt x="544" y="-38" on="1"/>
        <pt x="588" y="5" on="0"/>
        <pt x="653" y="97" on="0"/>
        <pt x="691" y="162" on="1"/>
        <pt x="657" y="184" on="0"/>
        <pt x="560" y="261" on="0"/>
        <pt x="515" y="284" on="1"/>
        <pt x="532" y="242" on="0"/>
      </contour>
      <contour>
        <pt x="931" y="147" on="1"/>
        <pt x="955" y="316" on="0"/>
        <pt x="1021" y="567" on="1"/>
        <pt x="981" y="548" on="0"/>
        <pt x="909" y="483" on="0"/>
        <pt x="825" y="362" on="0"/>
        <pt x="756" y="237" on="1"/>
        <pt x="718" y="168" on="1"/>
        <pt x="782" y="130" on="0"/>
        <pt x="889" y="130" on="0"/>
      </contour>
      <contour>
        <pt x="1085" y="658" on="1"/>
        <pt x="1138" y="764" on="1"/>
        <pt x="1164" y="754" on="1"/>
        <pt x="1111" y="648" on="1"/>
      </contour>
    </TTGlyph>
    <TTGlyph name="Acircumflex" xMin="53" yMin="-147" xMax="1233" yMax="846">
      <component glyphName="A" x="0" y="0" flags="0x1004"/>
      <component glyphName="circumflex" x="925" y="193" flags="0x1004"/>
    </TTGlyph>
    <TTGlyph name="Adieresis" xMin="53" yMin="-147" xMax="1226" yMax="765">
      <component glyphName="A" x="0" y="0" flags="0x1004"/>
      <component glyphName="dieresis" x="850" y="117" flags="0x1004"/>
    </TTGlyph>
    <TTGlyph name="Agrave" xMin="53" yMin="-147" xMax="1214" yMax="764">
      <component glyphName="A" x="0" y="0" flags="0x1004"/>
      <component glyphName="grave" x="991" y="190" flags="0x1004"/>
    </TTGlyph>
    <TTGlyph name="Aring" xMin="53" yMin="-147" xMax="1214" yMax="746">
      <contour>
        <pt x="1043" y="-41" on="1"/>
        <pt x="1069" y="-41" on="0"/>
        <pt x="1093" y="-13" on="1"/>
        <pt x="1108" y="-25" on="1"/>
        <pt x="1105" y="-29" on="0"/>
        <pt x="1095" y="-41" on="0"/>
        <pt x="1056" y="-61" on="0"/>
        <pt x="1033" y="-61" on="1"/>
        <pt x="921" y="-61" on="0"/>
        <pt x="921" y="36" on="1"/>
        <pt x="921" y="66" on="0"/>
        <pt x="928" y="125" on="1"/>
        <pt x="880" y="110" on="0"/>
        <pt x="842" y="110" on="1"/>
        <pt x="775" y="110" on="0"/>
        <pt x="708" y="151" on="1"/>
        <pt x="669" y="84" on="0"/>
        <pt x="601" y="-11" on="0"/>
        <pt x="556" y="-56" on="1"/>
        <pt x="463" y="-147" on="0"/>
        <pt x="200" y="-147" on="0"/>
        <pt x="122" y="-63" on="1"/>
        <pt x="53" y="14" on="0"/>
        <pt x="53" y="235" on="0"/>
        <pt x="195" y="407" on="0"/>
        <pt x="421" y="407" on="0"/>
        <pt x="480" y="340" on="1"/>
        <pt x="494" y="322" on="0"/>
        <pt x="500" y="313" on="1"/>
        <pt x="554" y="290" on="0"/>
        <pt x="623" y="237" on="1"/>
        <pt x="675" y="195" on="0"/>
        <pt x="700" y="179" on="1"/>
        <pt x="714" y="205" on="0"/>
        <pt x="763" y="293" on="0"/>
        <pt x="789" y="339" on="0"/>
        <pt x="841" y="423" on="0"/>
        <pt x="874" y="466" on="0"/>
        <pt x="929" y="531" on="0"/>
        <pt x="952" y="547" on="1"/>
        <pt x="1021" y="596" on="0"/>
        <pt x="1068" y="604" on="1"/>
        <pt x="1094" y="608" on="0"/>
        <pt x="1130" y="608" on="0"/>
        <pt x="1174" y="607" on="0"/>
        <pt x="1214" y="596" on="1"/>
        <pt x="1209" y="577" on="1"/>
        <pt x="1185" y="584" on="0"/>
        <pt x="1158" y="587" on="1"/>
        <pt x="1058" y="194" on="0"/>
      </contour>
      <contour>
        <pt x="532" y="197" on="1"/>
        <pt x="532" y="123" on="0"/>
        <pt x="447" y="9" on="0"/>
        <pt x="375" y="9" on="1"/>
        <pt x="328" y="9" on="0"/>
        <pt x="269" y="65" on="0"/>
        <pt x="269" y="125" on="0"/>
        <pt x="287" y="164" on="0"/>
        <pt x="310" y="184" on="0"/>
        <pt x="324" y="190" on="1"/>
        <pt x="343" y="200" on="0"/>
        <pt x="354" y="200" on="1"/>
        <pt x="356" y="180" on="1"/>
        <pt x="331" y="180" on="0"/>
        <pt x="289" y="132" on="0"/>
        <pt x="289" y="72" on="0"/>
        <pt x="336" y="29" on="0"/>
        <pt x="375" y="29" on="1"/>
        <pt x="439" y="29" on="0"/>
        <pt x="513" y="129" on="0"/>
        <pt x="513" y="251" on="0"/>
        <pt x="488" y="296" on="1"/>
        <pt x="433" y="317" on="0"/>
        <pt x="379" y="317" on="1"/>
        <pt x="275" y="317" on="0"/>
        <pt x="232" y="220" on="1"/>
        <pt x="213" y="226" on="1"/>
        <pt x="224" y="251" on="0"/>
        <pt x="248" y="280" on="1"/>
        <pt x="295" y="337" on="0"/>
        <pt x="379" y="337" on="1"/>
        <pt x="424" y="337" on="0"/>
        <pt x="468" y="324" on="1"/>
        <pt x="466" y="327" on="1"/>
        <pt x="411" y="387" on="0"/>
        <pt x="204" y="387" on="0"/>
        <pt x="73" y="227" on="0"/>
        <pt x="73" y="20" on="0"/>
        <pt x="137" y="-49" on="1"/>
        <pt x="209" y="-127" on="0"/>
        <pt x="338" y="-127" on="1"/>
        <pt x="456" y="-127" on="0"/>
        <pt x="544" y="-38" on="1"/>
        <pt x="588" y="5" on="0"/>
        <pt x="653" y="97" on="0"/>
        <pt x="691" y="162" on="1"/>
        <pt x="657" y="184" on="0"/>
        <pt x="560" y="261" on="0"/>
        <pt x="515" y="284" on="1"/>
        <pt x="532" y="242" on="0"/>
      </contour>
      <contour>
        <pt x="718" y="168" on="1"/>
        <pt x="782" y="130" on="0"/>
        <pt x="889" y="130" on="0"/>
        <pt x="931" y="147" on="1"/>
        <pt x="955" y="316" on="0"/>
        <pt x="1021" y="567" on="1"/>
        <pt x="941" y="529" on="0"/>
        <pt x="874" y="432" on="1"/>
        <pt x="825" y="362" on="0"/>
        <pt x="756" y="237" on="1"/>
      </contour>
      <contour>
        <pt x="1119" y="648" on="0"/>
        <pt x="1079" y="648" on="0"/>
        <pt x="1049" y="677" on="0"/>
        <pt x="1049" y="717" on="0"/>
        <pt x="1079" y="746" on="0"/>
        <pt x="1119" y="746" on="0"/>
        <pt x="1148" y="717" on="0"/>
        <pt x="1148" y="677" on="0"/>
      </contour>
      <contour>
        <pt x="1130" y="710" on="0"/>
        <pt x="1112" y="728" on="0"/>
        <pt x="1087" y="728" on="0"/>
        <pt x="1069" y="710" on="0"/>
        <pt x="1069" y="685" on="0"/>
        <pt x="1087" y="667" on="0"/>
        <pt x="1112" y="667" on="0"/>
        <pt x="1130" y="685" on="0"/>
      </contour>
    </TTGlyph>
    <TTGlyph name="Atilde" xMin="53" yMin="-147" xMax="1280" yMax="781">
      <contour>
        <pt x="1214" y="596" on="1"/>
        <pt x="1209" y="577" on="1"/>
        <pt x="1185" y="584" on="0"/>
        <pt x="1158" y="587" on="1"/>
        <pt x="1058" y="194" on="0"/>
        <pt x="1043" y="-41" on="1"/>
        <pt x="1072" y="-41" on="0"/>
        <pt x="1093" y="-13" on="1"/>
        <pt x="1108" y="-25" on="1"/>
        <pt x="1100" y="-34" on="1"/>
        <pt x="1093" y="-43" on="0"/>
        <pt x="1056" y="-61" on="0"/>
        <pt x="1033" y="-61" on="1"/>
        <pt x="921" y="-61" on="0"/>
        <pt x="921" y="36" on="1"/>
        <pt x="921" y="66" on="0"/>
        <pt x="928" y="125" on="1"/>
        <pt x="880" y="110" on="0"/>
        <pt x="842" y="110" on="1"/>
        <pt x="775" y="110" on="0"/>
        <pt x="708" y="151" on="1"/>
        <pt x="669" y="84" on="0"/>
        <pt x="601" y="-11" on="0"/>
        <pt x="556" y="-56" on="1"/>
        <pt x="463" y="-147" on="0"/>
        <pt x="338" y="-147" on="1"/>
        <pt x="200" y="-147" on="0"/>
        <pt x="122" y="-63" on="1"/>
        <pt x="53" y="14" on="0"/>
        <pt x="53" y="235" on="0"/>
        <pt x="195" y="407" on="0"/>
        <pt x="421" y="407" on="0"/>
        <pt x="480" y="340" on="1"/>
        <pt x="494" y="322" on="0"/>
        <pt x="500" y="313" on="1"/>
        <pt x="554" y="290" on="0"/>
        <pt x="623" y="237" on="1"/>
        <pt x="675" y="195" on="0"/>
        <pt x="700" y="179" on="1"/>
        <pt x="707" y="192" on="0"/>
        <pt x="734" y="240" on="0"/>
        <pt x="781" y="326" on="0"/>
        <pt x="815" y="381" on="1"/>
        <pt x="841" y="423" on="0"/>
        <pt x="874" y="466" on="0"/>
        <pt x="929" y="531" on="0"/>
        <pt x="974" y="563" on="0"/>
        <pt x="1038" y="599" on="0"/>
        <pt x="1094" y="608" on="0"/>
        <pt x="1170" y="608" on="0"/>
      </contour>
      <contour>
        <pt x="532" y="197" on="1"/>
        <pt x="532" y="123" on="0"/>
        <pt x="447" y="9" on="0"/>
        <pt x="375" y="9" on="1"/>
        <pt x="328" y="9" on="0"/>
        <pt x="269" y="65" on="0"/>
        <pt x="269" y="148" on="0"/>
        <pt x="298" y="174" on="1"/>
        <pt x="310" y="184" on="0"/>
        <pt x="343" y="200" on="0"/>
        <pt x="354" y="200" on="1"/>
        <pt x="356" y="180" on="1"/>
        <pt x="331" y="180" on="0"/>
        <pt x="306" y="152" on="1"/>
        <pt x="289" y="132" on="0"/>
        <pt x="289" y="72" on="0"/>
        <pt x="336" y="29" on="0"/>
        <pt x="375" y="29" on="1"/>
        <pt x="439" y="29" on="0"/>
        <pt x="513" y="129" on="0"/>
        <pt x="513" y="251" on="0"/>
        <pt x="488" y="296" on="1"/>
        <pt x="433" y="317" on="0"/>
        <pt x="379" y="317" on="1"/>
        <pt x="307" y="317" on="0"/>
        <pt x="263" y="269" on="1"/>
        <pt x="249" y="254" on="0"/>
        <pt x="232" y="220" on="1"/>
        <pt x="213" y="226" on="1"/>
        <pt x="222" y="244" on="1"/>
        <pt x="224" y="249" on="0"/>
        <pt x="255" y="292" on="0"/>
        <pt x="287" y="315" on="0"/>
        <pt x="346" y="337" on="0"/>
        <pt x="424" y="337" on="0"/>
        <pt x="468" y="324" on="1"/>
        <pt x="466" y="327" on="1"/>
        <pt x="411" y="387" on="0"/>
        <pt x="204" y="387" on="0"/>
        <pt x="73" y="227" on="0"/>
        <pt x="73" y="20" on="0"/>
        <pt x="137" y="-49" on="1"/>
        <pt x="209" y="-127" on="0"/>
        <pt x="456" y="-127" on="0"/>
        <pt x="544" y="-38" on="1"/>
        <pt x="588" y="5" on="0"/>
        <pt x="653" y="97" on="0"/>
        <pt x="691" y="162" on="1"/>
        <pt x="657" y="184" on="0"/>
        <pt x="560" y="261" on="0"/>
        <pt x="515" y="284" on="1"/>
        <pt x="532" y="242" on="0"/>
      </contour>
      <contour>
        <pt x="931" y="147" on="1"/>
        <pt x="955" y="316" on="0"/>
        <pt x="1021" y="567" on="1"/>
        <pt x="981" y="548" on="0"/>
        <pt x="909" y="483" on="0"/>
        <pt x="825" y="362" on="0"/>
        <pt x="756" y="237" on="1"/>
        <pt x="718" y="168" on="1"/>
        <pt x="782" y="130" on="0"/>
        <pt x="889" y="130" on="0"/>
      </contour>
      <contour>
        <pt x="968" y="781" on="0"/>
        <pt x="1028" y="781" on="0"/>
        <pt x="1063" y="759" on="0"/>
        <pt x="1076" y="727" on="0"/>
        <pt x="1082" y="711" on="1"/>
        <pt x="1095" y="673" on="0"/>
        <pt x="1167" y="673" on="0"/>
        <pt x="1229" y="727" on="0"/>
        <pt x="1242" y="754" on="1"/>
        <pt x="1254" y="781" on="1"/>
        <pt x="1280" y="781" on="1"/>
        <pt x="1278" y="776" on="0"/>
        <pt x="1271" y="758" on="0"/>
        <pt x="1245" y="712" on="0"/>
        <pt x="1214" y="677" on="0"/>
        <pt x="1159" y="648" on="0"/>
        <pt x="1093" y="648" on="0"/>
        <pt x="1057" y="682" on="0"/>
        <pt x="1049" y="723" on="0"/>
        <pt x="1021" y="757" on="0"/>
        <pt x="962" y="757" on="0"/>
        <pt x="903" y="704" on="0"/>
        <pt x="872" y="651" on="0"/>
        <pt x="874" y="651" on="1"/>
        <pt x="843" y="651" on="1"/>
        <pt x="876" y="733" on="0"/>
        <pt x="941" y="767" on="1"/>
      </contour>
    </TTGlyph>
    <TTGlyph name="B" xMin="82" yMin="-153" xMax="960" yMax="609">
      <contour>
        <pt x="82" y="310" on="1"/>
        <pt x="82" y="453" on="0"/>
        <pt x="381" y="609" on="0"/>
        <pt x="654" y="609" on="1"/>
        <pt x="809" y="609" on="0"/>
        <pt x="953" y="515" on="0"/>
        <pt x="953" y="434" on="1"/>
        <pt x="953" y="366" on="0"/>
        <pt x="860" y="258" on="0"/>
        <pt x="776" y="232" on="1"/>
        <pt x="960" y="211" on="0"/>
        <pt x="960" y="103" on="1"/>
        <pt x="960" y="47" on="0"/>
        <pt x="881" y="-28" on="0"/>
        <pt x="816" y="-44" on="1"/>
        <pt x="706" y="-71" on="0"/>
        <pt x="590" y="-71" on="1"/>
        <pt x="590" y="-51" on="1"/>
        <pt x="613" y="-53" on="0"/>
        <pt x="634" y="-53" on="1"/>
        <pt x="734" y="-53" on="0"/>
        <pt x="785" y="-18" on="1"/>
        <pt x="847" y="25" on="0"/>
        <pt x="847" y="95" on="1"/>
        <pt x="847" y="135" on="0"/>
        <pt x="798" y="198" on="0"/>
        <pt x="774" y="210" on="1"/>
        <pt x="749" y="222" on="1"/>
        <pt x="717" y="215" on="0"/>
        <pt x="677" y="215" on="1"/>
        <pt x="677" y="235" on="1"/>
        <pt x="773" y="235" on="0"/>
        <pt x="931" y="345" on="0"/>
        <pt x="931" y="434" on="1"/>
        <pt x="931" y="508" on="0"/>
        <pt x="792" y="589" on="0"/>
        <pt x="663" y="590" on="1"/>
        <pt x="608" y="218" on="0"/>
        <pt x="579" y="78" on="1"/>
        <pt x="559" y="-30" on="0"/>
        <pt x="399" y="-153" on="0"/>
        <pt x="308" y="-153" on="1"/>
        <pt x="308" y="-134" on="1"/>
        <pt x="347" y="-131" on="0"/>
        <pt x="384" y="-120" on="0"/>
        <pt x="410" y="-85" on="0"/>
        <pt x="416" y="-61" on="1"/>
        <pt x="427" y="-12" on="0"/>
        <pt x="433" y="32" on="1"/>
        <pt x="529" y="585" on="1"/>
        <pt x="324" y="568" on="0"/>
        <pt x="101" y="425" on="0"/>
        <pt x="101" y="310" on="1"/>
        <pt x="101" y="258" on="0"/>
        <pt x="137" y="222" on="1"/>
        <pt x="162" y="198" on="0"/>
        <pt x="244" y="173" on="0"/>
        <pt x="297" y="170" on="0"/>
        <pt x="299" y="172" on="1"/>
        <pt x="299" y="151" on="1"/>
        <pt x="181" y="151" on="0"/>
        <pt x="124" y="207" on="1"/>
        <pt x="82" y="246" on="0"/>
      </contour>
    </TTGlyph>
    <TTGlyph name="C" xMin="92" yMin="-85" xMax="682" yMax="609">
      <contour>
        <pt x="210" y="136" on="1"/>
        <pt x="210" y="-14" on="0"/>
        <pt x="307" y="-62" on="1"/>
        <pt x="331" y="-65" on="0"/>
        <pt x="410" y="-65" on="0"/>
        <pt x="498" y="-35" on="0"/>
        <pt x="522" y="-13" on="1"/>
        <pt x="573" y="34" on="0"/>
        <pt x="586" y="68" on="1"/>
        <pt x="591" y="83" on="1"/>
        <pt x="611" y="75" on="1"/>
        <pt x="604" y="52" on="0"/>
        <pt x="564" y="-8" on="0"/>
        <pt x="513" y="-50" on="0"/>
        <pt x="416" y="-85" on="0"/>
        <pt x="357" y="-85" on="1"/>
        <pt x="231" y="-85" on="0"/>
        <pt x="92" y="61" on="0"/>
        <pt x="92" y="194" on="1"/>
        <pt x="92" y="375" on="0"/>
        <pt x="326" y="609" on="0"/>
        <pt x="516" y="609" on="1"/>
        <pt x="604" y="609" on="0"/>
        <pt x="682" y="546" on="0"/>
        <pt x="682" y="479" on="1"/>
        <pt x="682" y="434" on="0"/>
        <pt x="638" y="368" on="1"/>
        <pt x="598" y="304" on="0"/>
        <pt x="598" y="268" on="1"/>
        <pt x="576" y="268" on="1"/>
        <pt x="576" y="288" on="0"/>
        <pt x="592" y="334" on="0"/>
        <pt x="604" y="354" on="0"/>
        <pt x="620" y="380" on="1"/>
        <pt x="659" y="439" on="0"/>
        <pt x="659" y="477" on="1"/>
        <pt x="659" y="557" on="0"/>
        <pt x="593" y="578" on="1"/>
        <pt x="562" y="588" on="0"/>
        <pt x="494" y="588" on="0"/>
        <pt x="456" y="584" on="1"/>
        <pt x="421" y="573" on="0"/>
        <pt x="358" y="538" on="0"/>
        <pt x="290" y="467" on="0"/>
        <pt x="242" y="373" on="0"/>
        <pt x="210" y="226" on="0"/>
      </contour>
    </TTGlyph>
    <TTGlyph name="Ccedilla" xMin="92" yMin="-233" xMax="682" yMax="609">
      <contour>
        <pt x="210" y="136" on="1"/>
        <pt x="210" y="-14" on="0"/>
        <pt x="307" y="-62" on="1"/>
        <pt x="331" y="-65" on="0"/>
        <pt x="410" y="-65" on="0"/>
        <pt x="498" y="-35" on="0"/>
        <pt x="522" y="-13" on="1"/>
        <pt x="573" y="34" on="0"/>
        <pt x="586" y="68" on="1"/>
        <pt x="591" y="83" on="1"/>
        <pt x="611" y="75" on="1"/>
        <pt x="592" y="17" on="0"/>
        <pt x="543" y="-24" on="1"/>
        <pt x="519" y="-45" on="0"/>
        <pt x="430" y="-81" on="0"/>
        <pt x="375" y="-84" on="1"/>
        <pt x="371" y="-128" on="1"/>
        <pt x="357" y="-128" on="1"/>
        <pt x="292" y="-128" on="0"/>
        <pt x="292" y="-173" on="1"/>
        <pt x="292" y="-195" on="0"/>
        <pt x="321" y="-213" on="0"/>
        <pt x="348" y="-213" on="1"/>
        <pt x="395" y="-213" on="0"/>
        <pt x="418" y="-196" on="1"/>
        <pt x="426" y="-190" on="1"/>
        <pt x="435" y="-208" on="1"/>
        <pt x="409" y="-233" on="0"/>
        <pt x="352" y="-233" on="1"/>
        <pt x="269" y="-233" on="0"/>
        <pt x="269" y="-173" on="1"/>
        <pt x="269" y="-144" on="0"/>
        <pt x="313" y="-108" on="0"/>
        <pt x="354" y="-108" on="1"/>
        <pt x="356" y="-85" on="1"/>
        <pt x="230" y="-84" on="0"/>
        <pt x="92" y="61" on="0"/>
        <pt x="92" y="194" on="1"/>
        <pt x="92" y="375" on="0"/>
        <pt x="326" y="609" on="0"/>
        <pt x="516" y="609" on="1"/>
        <pt x="604" y="609" on="0"/>
        <pt x="682" y="546" on="0"/>
        <pt x="682" y="479" on="1"/>
        <pt x="682" y="434" on="0"/>
        <pt x="638" y="368" on="1"/>
        <pt x="598" y="304" on="0"/>
        <pt x="598" y="268" on="1"/>
        <pt x="576" y="268" on="1"/>
        <pt x="576" y="288" on="0"/>
        <pt x="592" y="334" on="0"/>
        <pt x="604" y="354" on="0"/>
        <pt x="620" y="380" on="1"/>
        <pt x="659" y="439" on="0"/>
        <pt x="659" y="477" on="1"/>
        <pt x="659" y="557" on="0"/>
        <pt x="593" y="578" on="1"/>
        <pt x="562" y="588" on="0"/>
        <pt x="495" y="588" on="0"/>
        <pt x="455" y="584" on="1"/>
        <pt x="410" y="570" on="0"/>
        <pt x="333" y="516" on="0"/>
        <pt x="255" y="417" on="0"/>
        <pt x="210" y="247" on="0"/>
      </contour>
    </TTGlyph>
    <TTGlyph name="D" xMin="105" yMin="-102" xMax="974" yMax="645">
      <contour>
        <pt x="829" y="-3" on="0"/>
        <pt x="670" y="-69" on="0"/>
        <pt x="503" y="-69" on="0"/>
        <pt x="445" y="-53" on="1"/>
        <pt x="376" y="-102" on="0"/>
        <pt x="298" y="-102" on="1"/>
        <pt x="298" y="-83" on="1"/>
        <pt x="337" y="-82" on="0"/>
        <pt x="372" y="-63" on="0"/>
        <pt x="385" y="-32" on="1"/>
        <pt x="333" y="-9" on="0"/>
        <pt x="255" y="62" on="0"/>
        <pt x="228" y="106" on="0"/>
        <pt x="228" y="110" on="1"/>
        <pt x="246" y="117" on="1"/>
        <pt x="246" y="113" on="0"/>
        <pt x="271" y="73" on="0"/>
        <pt x="344" y="6" on="0"/>
        <pt x="392" y="-15" on="1"/>
        <pt x="406" y="20" on="0"/>
        <pt x="415" y="72" on="1"/>
        <pt x="504" y="586" on="1"/>
        <pt x="400" y="578" on="0"/>
        <pt x="320" y="545" on="1"/>
        <pt x="388" y="473" on="0"/>
        <pt x="388" y="373" on="1"/>
        <pt x="388" y="281" on="0"/>
        <pt x="289" y="170" on="0"/>
        <pt x="169" y="170" on="0"/>
        <pt x="105" y="243" on="0"/>
        <pt x="105" y="293" on="1"/>
        <pt x="105" y="371" on="0"/>
        <pt x="193" y="508" on="0"/>
        <pt x="285" y="552" on="1"/>
        <pt x="219" y="608" on="0"/>
        <pt x="111" y="626" on="1"/>
        <pt x="115" y="645" on="1"/>
        <pt x="236" y="623" on="0"/>
        <pt x="304" y="560" on="1"/>
        <pt x="425" y="609" on="0"/>
        <pt x="774" y="609" on="0"/>
        <pt x="974" y="450" on="0"/>
        <pt x="974" y="308" on="1"/>
        <pt x="974" y="163" on="0"/>
        <pt x="876" y="52" on="1"/>
      </contour>
      <contour>
        <pt x="570" y="-51" on="1"/>
        <pt x="665" y="-51" on="0"/>
        <pt x="817" y="12" on="0"/>
        <pt x="862" y="64" on="1"/>
        <pt x="955" y="170" on="0"/>
        <pt x="955" y="433" on="0"/>
        <pt x="783" y="581" on="0"/>
        <pt x="629" y="589" on="1"/>
        <pt x="580" y="258" on="0"/>
        <pt x="552" y="113" on="1"/>
        <pt x="534" y="21" on="0"/>
        <pt x="464" y="-39" on="1"/>
        <pt x="517" y="-51" on="0"/>
      </contour>
      <contour>
        <pt x="124" y="293" on="1"/>
        <pt x="124" y="252" on="0"/>
        <pt x="177" y="189" on="0"/>
        <pt x="282" y="189" on="0"/>
        <pt x="362" y="281" on="0"/>
        <pt x="368" y="352" on="1"/>
        <pt x="369" y="365" on="0"/>
        <pt x="369" y="378" on="1"/>
        <pt x="369" y="468" on="0"/>
        <pt x="300" y="537" on="1"/>
        <pt x="210" y="496" on="0"/>
        <pt x="124" y="367" on="0"/>
      </contour>
    </TTGlyph>
    <TTGlyph name="E" xMin="65" yMin="-55" xMax="588" yMax="609">
      <contour>
        <pt x="273" y="306" on="1"/>
        <pt x="325" y="323" on="0"/>
        <pt x="463" y="323" on="0"/>
        <pt x="463" y="283" on="1"/>
        <pt x="463" y="259" on="0"/>
        <pt x="411" y="228" on="0"/>
        <pt x="362" y="228" on="1"/>
        <pt x="285" y="228" on="0"/>
        <pt x="238" y="265" on="1"/>
        <pt x="220" y="246" on="0"/>
        <pt x="200" y="220" on="0"/>
        <pt x="175" y="146" on="0"/>
        <pt x="175" y="42" on="0"/>
        <pt x="263" y="-35" on="0"/>
        <pt x="358" y="-35" on="0"/>
        <pt x="440" y="1" on="0"/>
        <pt x="488" y="49" on="0"/>
        <pt x="506" y="78" on="1"/>
        <pt x="531" y="115" on="0"/>
        <pt x="539" y="143" on="1"/>
        <pt x="559" y="138" on="1"/>
        <pt x="559" y="135" on="0"/>
        <pt x="544" y="99" on="0"/>
        <pt x="504" y="40" on="0"/>
        <pt x="448" y="-15" on="0"/>
        <pt x="350" y="-55" on="0"/>
        <pt x="292" y="-55" on="1"/>
        <pt x="185" y="-55" on="0"/>
        <pt x="65" y="36" on="0"/>
        <pt x="65" y="182" on="0"/>
        <pt x="156" y="268" on="0"/>
        <pt x="218" y="285" on="1"/>
        <pt x="173" y="340" on="0"/>
        <pt x="173" y="491" on="0"/>
        <pt x="294" y="609" on="0"/>
        <pt x="408" y="609" on="1"/>
        <pt x="495" y="609" on="0"/>
        <pt x="588" y="548" on="0"/>
        <pt x="588" y="457" on="0"/>
        <pt x="541" y="362" on="0"/>
        <pt x="538" y="334" on="1"/>
        <pt x="517" y="334" on="1"/>
        <pt x="520" y="364" on="0"/>
        <pt x="567" y="458" on="0"/>
        <pt x="567" y="539" on="0"/>
        <pt x="482" y="591" on="0"/>
        <pt x="351" y="591" on="0"/>
        <pt x="259" y="490" on="0"/>
        <pt x="259" y="386" on="1"/>
        <pt x="259" y="330" on="0"/>
      </contour>
      <contour>
        <pt x="293" y="270" on="0"/>
        <pt x="334" y="246" on="0"/>
        <pt x="402" y="246" on="0"/>
        <pt x="443" y="267" on="0"/>
        <pt x="443" y="281" on="1"/>
        <pt x="443" y="305" on="0"/>
        <pt x="335" y="305" on="0"/>
        <pt x="281" y="289" on="1"/>
        <pt x="283" y="284" on="0"/>
      </contour>
    </TTGlyph>
    <TTGlyph name="Eacute" xMin="65" yMin="-55" xMax="588" yMax="764">
      <contour>
        <pt x="259" y="386" on="1"/>
        <pt x="259" y="324" on="0"/>
        <pt x="273" y="306" on="1"/>
        <pt x="325" y="323" on="0"/>
        <pt x="463" y="323" on="0"/>
        <pt x="463" y="283" on="1"/>
        <pt x="463" y="259" on="0"/>
        <pt x="411" y="228" on="0"/>
        <pt x="362" y="228" on="1"/>
        <pt x="285" y="228" on="0"/>
        <pt x="238" y="265" on="1"/>
        <pt x="220" y="246" on="0"/>
        <pt x="200" y="220" on="0"/>
        <pt x="175" y="146" on="0"/>
        <pt x="175" y="42" on="0"/>
        <pt x="263" y="-35" on="0"/>
        <pt x="358" y="-35" on="0"/>
        <pt x="440" y="1" on="0"/>
        <pt x="488" y="49" on="0"/>
        <pt x="531" y="115" on="0"/>
        <pt x="539" y="143" on="1"/>
        <pt x="559" y="138" on="1"/>
        <pt x="559" y="135" on="0"/>
        <pt x="544" y="99" on="0"/>
        <pt x="504" y="40" on="0"/>
        <pt x="448" y="-15" on="0"/>
        <pt x="350" y="-55" on="0"/>
        <pt x="292" y="-55" on="1"/>
        <pt x="185" y="-55" on="0"/>
        <pt x="65" y="36" on="0"/>
        <pt x="65" y="182" on="0"/>
        <pt x="156" y="268" on="0"/>
        <pt x="218" y="285" on="1"/>
        <pt x="173" y="340" on="0"/>
        <pt x="173" y="491" on="0"/>
        <pt x="294" y="609" on="0"/>
        <pt x="408" y="609" on="1"/>
        <pt x="495" y="609" on="0"/>
        <pt x="588" y="548" on="0"/>
        <pt x="588" y="457" on="0"/>
        <pt x="541" y="362" on="0"/>
        <pt x="538" y="334" on="1"/>
        <pt x="517" y="334" on="1"/>
        <pt x="520" y="364" on="0"/>
        <pt x="567" y="458" on="0"/>
        <pt x="567" y="539" on="0"/>
        <pt x="482" y="591" on="0"/>
        <pt x="351" y="591" on="0"/>
        <pt x="259" y="490" on="0"/>
      </contour>
      <contour>
        <pt x="402" y="246" on="0"/>
        <pt x="443" y="267" on="0"/>
        <pt x="443" y="281" on="1"/>
        <pt x="443" y="305" on="0"/>
        <pt x="335" y="305" on="0"/>
        <pt x="281" y="289" on="1"/>
        <pt x="288" y="278" on="1"/>
        <pt x="294" y="268" on="0"/>
        <pt x="334" y="246" on="0"/>
      </contour>
      <contour>
        <pt x="408" y="658" on="1"/>
        <pt x="461" y="764" on="1"/>
        <pt x="487" y="754" on="1"/>
        <pt x="434" y="648" on="1"/>
      </contour>
    </TTGlyph>
    <TTGlyph name="Ecircumflex" xMin="65" yMin="-55" xMax="588" yMax="846">
      <component glyphName="E" x="0" y="0" flags="0x1004"/>
      <component glyphName="circumflex" x="252" y="193" flags="0x1004"/>
    </TTGlyph>
    <TTGlyph name="Edieresis" xMin="65" yMin="-55" xMax="588" yMax="765">
      <contour>
        <pt x="259" y="386" on="1"/>
        <pt x="259" y="324" on="0"/>
        <pt x="273" y="306" on="1"/>
        <pt x="325" y="323" on="0"/>
        <pt x="463" y="323" on="0"/>
        <pt x="463" y="283" on="1"/>
        <pt x="463" y="259" on="0"/>
        <pt x="411" y="228" on="0"/>
        <pt x="362" y="228" on="1"/>
        <pt x="285" y="228" on="0"/>
        <pt x="238" y="265" on="1"/>
        <pt x="220" y="246" on="0"/>
        <pt x="200" y="220" on="0"/>
        <pt x="175" y="146" on="0"/>
        <pt x="175" y="42" on="0"/>
        <pt x="263" y="-35" on="0"/>
        <pt x="358" y="-35" on="0"/>
        <pt x="440" y="1" on="0"/>
        <pt x="488" y="49" on="0"/>
        <pt x="531" y="115" on="0"/>
        <pt x="539" y="143" on="1"/>
        <pt x="559" y="138" on="1"/>
        <pt x="559" y="135" on="0"/>
        <pt x="544" y="99" on="0"/>
        <pt x="504" y="40" on="0"/>
        <pt x="448" y="-15" on="0"/>
        <pt x="350" y="-55" on="0"/>
        <pt x="292" y="-55" on="1"/>
        <pt x="185" y="-55" on="0"/>
        <pt x="65" y="36" on="0"/>
        <pt x="65" y="182" on="0"/>
        <pt x="156" y="268" on="0"/>
        <pt x="218" y="285" on="1"/>
        <pt x="173" y="340" on="0"/>
        <pt x="173" y="491" on="0"/>
        <pt x="294" y="609" on="0"/>
        <pt x="408" y="609" on="1"/>
        <pt x="495" y="609" on="0"/>
        <pt x="588" y="548" on="0"/>
        <pt x="588" y="457" on="0"/>
        <pt x="541" y="362" on="0"/>
        <pt x="538" y="334" on="1"/>
        <pt x="517" y="334" on="1"/>
        <pt x="520" y="364" on="0"/>
        <pt x="567" y="458" on="0"/>
        <pt x="567" y="539" on="0"/>
        <pt x="482" y="591" on="0"/>
        <pt x="351" y="591" on="0"/>
        <pt x="259" y="490" on="0"/>
      </contour>
      <contour>
        <pt x="402" y="246" on="0"/>
        <pt x="443" y="267" on="0"/>
        <pt x="443" y="281" on="1"/>
        <pt x="443" y="305" on="0"/>
        <pt x="335" y="305" on="0"/>
        <pt x="281" y="289" on="1"/>
        <pt x="288" y="278" on="1"/>
        <pt x="294" y="268" on="0"/>
        <pt x="334" y="246" on="0"/>
      </contour>
      <contour>
        <pt x="464" y="648" on="0"/>
        <pt x="431" y="681" on="0"/>
        <pt x="431" y="730" on="0"/>
        <pt x="465" y="765" on="0"/>
        <pt x="513" y="765" on="0"/>
        <pt x="548" y="730" on="0"/>
        <pt x="548" y="682" on="0"/>
        <pt x="513" y="648" on="0"/>
      </contour>
      <contour>
        <pt x="304" y="648" on="0"/>
        <pt x="271" y="681" on="0"/>
        <pt x="271" y="730" on="0"/>
        <pt x="305" y="765" on="0"/>
        <pt x="353" y="765" on="0"/>
        <pt x="388" y="730" on="0"/>
        <pt x="388" y="682" on="0"/>
        <pt x="353" y="648" on="0"/>
      </contour>
    </TTGlyph>
    <TTGlyph name="Egrave" xMin="65" yMin="-55" xMax="588" yMax="764">
      <component glyphName="E" x="0" y="0" flags="0x1004"/>
      <component glyphName="grave" x="317" y="190" flags="0x1004"/>
    </TTGlyph>
    <TTGlyph name="Eth" xMin="105" yMin="-102" xMax="974" yMax="645">
      <contour>
        <pt x="388" y="281" on="0"/>
        <pt x="289" y="170" on="0"/>
        <pt x="169" y="170" on="0"/>
        <pt x="105" y="243" on="0"/>
        <pt x="105" y="293" on="1"/>
        <pt x="105" y="371" on="0"/>
        <pt x="193" y="508" on="0"/>
        <pt x="285" y="552" on="1"/>
        <pt x="219" y="608" on="0"/>
        <pt x="111" y="626" on="1"/>
        <pt x="115" y="645" on="1"/>
        <pt x="236" y="623" on="0"/>
        <pt x="304" y="560" on="1"/>
        <pt x="425" y="609" on="0"/>
        <pt x="774" y="609" on="0"/>
        <pt x="974" y="450" on="0"/>
        <pt x="974" y="308" on="1"/>
        <pt x="974" y="163" on="0"/>
        <pt x="876" y="52" on="1"/>
        <pt x="829" y="-3" on="0"/>
        <pt x="670" y="-69" on="0"/>
        <pt x="503" y="-69" on="0"/>
        <pt x="445" y="-53" on="1"/>
        <pt x="376" y="-102" on="0"/>
        <pt x="298" y="-102" on="1"/>
        <pt x="298" y="-83" on="1"/>
        <pt x="337" y="-82" on="0"/>
        <pt x="372" y="-63" on="0"/>
        <pt x="385" y="-32" on="1"/>
        <pt x="333" y="-9" on="0"/>
        <pt x="255" y="62" on="0"/>
        <pt x="228" y="106" on="0"/>
        <pt x="228" y="110" on="1"/>
        <pt x="246" y="117" on="1"/>
        <pt x="246" y="113" on="0"/>
        <pt x="271" y="73" on="0"/>
        <pt x="344" y="6" on="0"/>
        <pt x="392" y="-15" on="1"/>
        <pt x="406" y="20" on="0"/>
        <pt x="415" y="72" on="1"/>
        <pt x="434" y="184" on="1"/>
        <pt x="352" y="184" on="1"/>
        <pt x="354" y="202" on="1"/>
        <pt x="437" y="202" on="1"/>
        <pt x="504" y="586" on="1"/>
        <pt x="400" y="578" on="0"/>
        <pt x="320" y="545" on="1"/>
        <pt x="388" y="473" on="0"/>
      </contour>
      <contour>
        <pt x="570" y="-51" on="1"/>
        <pt x="665" y="-51" on="0"/>
        <pt x="817" y="12" on="0"/>
        <pt x="862" y="64" on="1"/>
        <pt x="955" y="170" on="0"/>
        <pt x="955" y="433" on="0"/>
        <pt x="783" y="581" on="0"/>
        <pt x="629" y="589" on="1"/>
        <pt x="584" y="292" on="0"/>
        <pt x="568" y="202" on="1"/>
        <pt x="737" y="202" on="1"/>
        <pt x="735" y="184" on="1"/>
        <pt x="565" y="184" on="1"/>
        <pt x="561" y="165" on="0"/>
        <pt x="552" y="113" on="1"/>
        <pt x="534" y="21" on="0"/>
        <pt x="464" y="-39" on="1"/>
        <pt x="517" y="-51" on="0"/>
      </contour>
      <contour>
        <pt x="124" y="293" on="1"/>
        <pt x="124" y="252" on="0"/>
        <pt x="177" y="189" on="0"/>
        <pt x="282" y="189" on="0"/>
        <pt x="362" y="281" on="0"/>
        <pt x="368" y="352" on="1"/>
        <pt x="369" y="365" on="0"/>
        <pt x="369" y="378" on="1"/>
        <pt x="369" y="468" on="0"/>
        <pt x="300" y="537" on="1"/>
        <pt x="210" y="496" on="0"/>
        <pt x="124" y="367" on="0"/>
      </contour>
    </TTGlyph>
    <TTGlyph name="Euro" xMin="57" yMin="-85" xMax="747" yMax="609">
      <contour>
        <pt x="157" y="195" on="1"/>
        <pt x="157" y="242" on="0"/>
        <pt x="164" y="281" on="1"/>
        <pt x="77" y="281" on="1"/>
        <pt x="79" y="299" on="1"/>
        <pt x="168" y="299" on="1"/>
        <pt x="200" y="439" on="0"/>
        <pt x="421" y="609" on="0"/>
        <pt x="581" y="609" on="1"/>
        <pt x="669" y="609" on="0"/>
        <pt x="747" y="546" on="0"/>
        <pt x="747" y="479" on="1"/>
        <pt x="747" y="434" on="0"/>
        <pt x="703" y="368" on="1"/>
        <pt x="663" y="304" on="0"/>
        <pt x="663" y="268" on="1"/>
        <pt x="641" y="268" on="1"/>
        <pt x="641" y="288" on="0"/>
        <pt x="657" y="334" on="0"/>
        <pt x="669" y="354" on="0"/>
        <pt x="685" y="380" on="1"/>
        <pt x="724" y="439" on="0"/>
        <pt x="724" y="477" on="1"/>
        <pt x="724" y="557" on="0"/>
        <pt x="658" y="578" on="1"/>
        <pt x="627" y="588" on="0"/>
        <pt x="559" y="588" on="0"/>
        <pt x="521" y="584" on="1"/>
        <pt x="337" y="528" on="0"/>
        <pt x="290" y="299" on="1"/>
        <pt x="532" y="299" on="1"/>
        <pt x="530" y="281" on="1"/>
        <pt x="287" y="281" on="1"/>
        <pt x="280" y="244" on="0"/>
        <pt x="277" y="195" on="1"/>
        <pt x="512" y="195" on="1"/>
        <pt x="510" y="177" on="1"/>
        <pt x="276" y="177" on="1"/>
        <pt x="275" y="163" on="0"/>
        <pt x="275" y="136" on="1"/>
        <pt x="275" y="-14" on="0"/>
        <pt x="372" y="-62" on="1"/>
        <pt x="396" y="-65" on="0"/>
        <pt x="475" y="-65" on="0"/>
        <pt x="563" y="-35" on="0"/>
        <pt x="587" y="-13" on="1"/>
        <pt x="638" y="34" on="0"/>
        <pt x="650" y="68" on="1"/>
        <pt x="656" y="83" on="1"/>
        <pt x="676" y="75" on="1"/>
        <pt x="669" y="52" on="0"/>
        <pt x="629" y="-8" on="0"/>
        <pt x="578" y="-50" on="0"/>
        <pt x="481" y="-85" on="0"/>
        <pt x="422" y="-85" on="1"/>
        <pt x="300" y="-85" on="0"/>
        <pt x="161" y="51" on="0"/>
        <pt x="157" y="177" on="1"/>
        <pt x="57" y="177" on="1"/>
        <pt x="59" y="195" on="1"/>
      </contour>
    </TTGlyph>
    <TTGlyph name="F" xMin="82" yMin="-155" xMax="915" yMax="609">
      <contour>
        <pt x="103" y="311" on="1"/>
        <pt x="103" y="216" on="0"/>
        <pt x="204" y="184" on="1"/>
        <pt x="244" y="172" on="0"/>
        <pt x="297" y="169" on="0"/>
        <pt x="299" y="171" on="1"/>
        <pt x="300" y="150" on="1"/>
        <pt x="294" y="150" on="1"/>
        <pt x="182" y="150" on="0"/>
        <pt x="124" y="206" on="1"/>
        <pt x="82" y="245" on="0"/>
        <pt x="82" y="311" on="1"/>
        <pt x="82" y="453" on="0"/>
        <pt x="383" y="609" on="0"/>
        <pt x="656" y="609" on="1"/>
        <pt x="799" y="609" on="0"/>
        <pt x="915" y="547" on="0"/>
        <pt x="915" y="489" on="1"/>
        <pt x="915" y="443" on="0"/>
        <pt x="857" y="348" on="0"/>
        <pt x="775" y="246" on="0"/>
        <pt x="760" y="211" on="1"/>
        <pt x="813" y="211" on="1"/>
        <pt x="811" y="193" on="1"/>
        <pt x="753" y="193" on="1"/>
        <pt x="745" y="167" on="0"/>
        <pt x="745" y="146" on="1"/>
        <pt x="724" y="146" on="1"/>
        <pt x="724" y="170" on="0"/>
        <pt x="730" y="193" on="1"/>
        <pt x="603" y="193" on="1"/>
        <pt x="582" y="76" on="1"/>
        <pt x="561" y="-32" on="0"/>
        <pt x="401" y="-155" on="0"/>
        <pt x="309" y="-155" on="1"/>
        <pt x="309" y="-135" on="1"/>
        <pt x="377" y="-134" on="0"/>
        <pt x="416" y="-78" on="0"/>
        <pt x="435" y="31" on="1"/>
        <pt x="462" y="193" on="1"/>
        <pt x="411" y="193" on="1"/>
        <pt x="413" y="211" on="1"/>
        <pt x="465" y="211" on="1"/>
        <pt x="530" y="584" on="1"/>
        <pt x="325" y="567" on="0"/>
        <pt x="103" y="426" on="0"/>
      </contour>
      <contour>
        <pt x="891" y="489" on="1"/>
        <pt x="891" y="589" on="0"/>
        <pt x="664" y="589" on="1"/>
        <pt x="623" y="306" on="0"/>
        <pt x="606" y="211" on="1"/>
        <pt x="737" y="211" on="1"/>
        <pt x="752" y="249" on="0"/>
        <pt x="832" y="352" on="0"/>
        <pt x="891" y="446" on="0"/>
      </contour>
    </TTGlyph>
    <TTGlyph name="G" xMin="92" yMin="-193" xMax="682" yMax="609">
      <contour>
        <pt x="210" y="136" on="1"/>
        <pt x="210" y="-14" on="0"/>
        <pt x="307" y="-62" on="1"/>
        <pt x="331" y="-65" on="0"/>
        <pt x="409" y="-65" on="0"/>
        <pt x="496" y="-42" on="0"/>
        <pt x="523" y="-24" on="1"/>
        <pt x="561" y="0" on="0"/>
        <pt x="580" y="22" on="1"/>
        <pt x="586" y="44" on="0"/>
        <pt x="607" y="141" on="0"/>
        <pt x="613" y="166" on="1"/>
        <pt x="634" y="161" on="1"/>
        <pt x="626" y="130" on="0"/>
        <pt x="603" y="26" on="0"/>
        <pt x="592" y="-19" on="0"/>
        <pt x="571" y="-90" on="0"/>
        <pt x="551" y="-123" on="0"/>
        <pt x="534" y="-143" on="1"/>
        <pt x="507" y="-176" on="0"/>
        <pt x="448" y="-193" on="1"/>
        <pt x="444" y="-172" on="1"/>
        <pt x="495" y="-161" on="0"/>
        <pt x="551" y="-84" on="0"/>
        <pt x="571" y="-14" on="1"/>
        <pt x="490" y="-87" on="0"/>
        <pt x="231" y="-87" on="0"/>
        <pt x="92" y="60" on="0"/>
        <pt x="92" y="194" on="1"/>
        <pt x="92" y="375" on="0"/>
        <pt x="326" y="609" on="0"/>
        <pt x="516" y="609" on="1"/>
        <pt x="604" y="609" on="0"/>
        <pt x="682" y="546" on="0"/>
        <pt x="682" y="479" on="1"/>
        <pt x="682" y="434" on="0"/>
        <pt x="638" y="368" on="1"/>
        <pt x="598" y="304" on="0"/>
        <pt x="598" y="268" on="1"/>
        <pt x="576" y="268" on="1"/>
        <pt x="576" y="288" on="0"/>
        <pt x="592" y="334" on="0"/>
        <pt x="604" y="354" on="0"/>
        <pt x="620" y="380" on="1"/>
        <pt x="659" y="439" on="0"/>
        <pt x="659" y="477" on="1"/>
        <pt x="659" y="557" on="0"/>
        <pt x="593" y="578" on="1"/>
        <pt x="562" y="588" on="0"/>
        <pt x="494" y="588" on="0"/>
        <pt x="456" y="584" on="1"/>
        <pt x="421" y="573" on="0"/>
        <pt x="358" y="538" on="0"/>
        <pt x="290" y="467" on="0"/>
        <pt x="242" y="373" on="0"/>
        <pt x="210" y="226" on="0"/>
      </contour>
    </TTGlyph>
    <TTGlyph name="H" xMin="18" yMin="-225" xMax="1017" yMax="665">
      <contour>
        <pt x="581" y="553" on="1"/>
        <pt x="502" y="587" on="0"/>
        <pt x="317" y="587" on="0"/>
        <pt x="202" y="469" on="0"/>
        <pt x="202" y="374" on="1"/>
        <pt x="180" y="374" on="1"/>
        <pt x="180" y="478" on="0"/>
        <pt x="308" y="609" on="0"/>
        <pt x="408" y="609" on="1"/>
        <pt x="488" y="609" on="0"/>
        <pt x="581" y="578" on="1"/>
        <pt x="688" y="539" on="0"/>
        <pt x="813" y="539" on="1"/>
        <pt x="813" y="518" on="1"/>
        <pt x="738" y="518" on="0"/>
        <pt x="693" y="525" on="1"/>
        <pt x="692" y="521" on="0"/>
        <pt x="686" y="492" on="1"/>
        <pt x="649" y="328" on="0"/>
        <pt x="626" y="231" on="1"/>
        <pt x="894" y="231" on="1"/>
        <pt x="996" y="665" on="1"/>
        <pt x="1017" y="665" on="1"/>
        <pt x="877" y="64" on="1"/>
        <pt x="868" y="27" on="0"/>
        <pt x="868" y="14" on="1"/>
        <pt x="868" y="-28" on="0"/>
        <pt x="907" y="-28" on="1"/>
        <pt x="935" y="-28" on="0"/>
        <pt x="956" y="1" on="1"/>
        <pt x="970" y="-11" on="1"/>
        <pt x="963" y="-24" on="0"/>
        <pt x="927" y="-47" on="0"/>
        <pt x="876" y="-47" on="0"/>
        <pt x="847" y="-13" on="0"/>
        <pt x="847" y="11" on="1"/>
        <pt x="859" y="77" on="1"/>
        <pt x="890" y="213" on="1"/>
        <pt x="621" y="213" on="1"/>
        <pt x="610" y="171" on="0"/>
        <pt x="588" y="73" on="0"/>
        <pt x="557" y="-21" on="0"/>
        <pt x="503" y="-121" on="0"/>
        <pt x="436" y="-184" on="0"/>
        <pt x="335" y="-225" on="0"/>
        <pt x="218" y="-225" on="0"/>
        <pt x="114" y="-181" on="0"/>
        <pt x="79" y="-142" on="1"/>
        <pt x="19" y="-73" on="0"/>
        <pt x="19" y="25" on="1"/>
        <pt x="19" y="41" on="0"/>
        <pt x="20" y="57" on="1"/>
        <pt x="42" y="54" on="1"/>
        <pt x="41" y="40" on="0"/>
        <pt x="41" y="26" on="1"/>
        <pt x="41" y="-67" on="0"/>
        <pt x="154" y="-192" on="0"/>
        <pt x="346" y="-192" on="0"/>
        <pt x="424" y="-90" on="0"/>
        <pt x="495" y="200" on="0"/>
      </contour>
    </TTGlyph>
    <TTGlyph name="I" xMin="90" yMin="-185" xMax="672" yMax="609">
      <contour>
        <pt x="303" y="588" on="1"/>
        <pt x="208" y="588" on="0"/>
        <pt x="113" y="484" on="0"/>
        <pt x="113" y="369" on="1"/>
        <pt x="90" y="369" on="1"/>
        <pt x="90" y="609" on="0"/>
        <pt x="297" y="609" on="1"/>
        <pt x="364" y="609" on="0"/>
        <pt x="608" y="507" on="0"/>
        <pt x="672" y="507" on="1"/>
        <pt x="672" y="484" on="1"/>
        <pt x="646" y="484" on="0"/>
        <pt x="613" y="491" on="1"/>
        <pt x="606" y="489" on="0"/>
        <pt x="571" y="448" on="0"/>
        <pt x="556" y="422" on="1"/>
        <pt x="514" y="346" on="0"/>
        <pt x="482" y="228" on="1"/>
        <pt x="590" y="228" on="1"/>
        <pt x="588" y="210" on="1"/>
        <pt x="477" y="210" on="1"/>
        <pt x="470" y="187" on="0"/>
        <pt x="461" y="147" on="1"/>
        <pt x="420" y="-32" on="0"/>
        <pt x="329" y="-185" on="0"/>
        <pt x="241" y="-185" on="1"/>
        <pt x="188" y="-185" on="0"/>
        <pt x="168" y="-173" on="1"/>
        <pt x="178" y="-152" on="1"/>
        <pt x="192" y="-166" on="0"/>
        <pt x="247" y="-166" on="1"/>
        <pt x="254" y="-166" on="0"/>
        <pt x="270" y="-164" on="1"/>
        <pt x="341" y="144" on="1"/>
        <pt x="344" y="157" on="0"/>
        <pt x="356" y="205" on="0"/>
        <pt x="357" y="210" on="1"/>
        <pt x="248" y="210" on="1"/>
        <pt x="250" y="228" on="1"/>
        <pt x="361" y="228" on="1"/>
        <pt x="400" y="375" on="0"/>
        <pt x="477" y="510" on="0"/>
        <pt x="529" y="517" on="1"/>
        <pt x="517" y="522" on="0"/>
        <pt x="434" y="558" on="0"/>
        <pt x="416" y="565" on="1"/>
        <pt x="355" y="588" on="0"/>
      </contour>
    </TTGlyph>
    <TTGlyph name="Iacute" xMin="90" yMin="-185" xMax="672" yMax="764">
      <contour>
        <pt x="247" y="-166" on="1"/>
        <pt x="254" y="-166" on="0"/>
        <pt x="270" y="-164" on="1"/>
        <pt x="341" y="144" on="1"/>
        <pt x="344" y="157" on="0"/>
        <pt x="356" y="205" on="0"/>
        <pt x="357" y="210" on="1"/>
        <pt x="248" y="210" on="1"/>
        <pt x="250" y="228" on="1"/>
        <pt x="361" y="228" on="1"/>
        <pt x="400" y="375" on="0"/>
        <pt x="477" y="510" on="0"/>
        <pt x="529" y="517" on="1"/>
        <pt x="517" y="522" on="0"/>
        <pt x="434" y="558" on="0"/>
        <pt x="416" y="565" on="1"/>
        <pt x="355" y="588" on="0"/>
        <pt x="303" y="588" on="1"/>
        <pt x="208" y="588" on="0"/>
        <pt x="113" y="484" on="0"/>
        <pt x="113" y="369" on="1"/>
        <pt x="90" y="369" on="1"/>
        <pt x="90" y="609" on="0"/>
        <pt x="297" y="609" on="1"/>
        <pt x="364" y="609" on="0"/>
        <pt x="608" y="507" on="0"/>
        <pt x="672" y="507" on="1"/>
        <pt x="672" y="484" on="1"/>
        <pt x="646" y="484" on="0"/>
        <pt x="613" y="491" on="1"/>
        <pt x="606" y="486" on="1"/>
        <pt x="591" y="477" on="0"/>
        <pt x="557" y="422" on="1"/>
        <pt x="517" y="358" on="0"/>
        <pt x="482" y="228" on="1"/>
        <pt x="590" y="228" on="1"/>
        <pt x="588" y="210" on="1"/>
        <pt x="477" y="210" on="1"/>
        <pt x="470" y="187" on="0"/>
        <pt x="461" y="147" on="1"/>
        <pt x="420" y="-32" on="0"/>
        <pt x="329" y="-185" on="0"/>
        <pt x="241" y="-185" on="1"/>
        <pt x="182" y="-185" on="0"/>
        <pt x="168" y="-173" on="1"/>
        <pt x="178" y="-152" on="1"/>
        <pt x="198" y="-166" on="0"/>
      </contour>
      <contour>
        <pt x="579" y="658" on="1"/>
        <pt x="632" y="764" on="1"/>
        <pt x="658" y="754" on="1"/>
        <pt x="605" y="648" on="1"/>
      </contour>
    </TTGlyph>
    <TTGlyph name="Icircumflex" xMin="90" yMin="-185" xMax="709" yMax="846">
      <component glyphName="I" x="0" y="0" flags="0x1004"/>
      <component glyphName="circumflex" x="401" y="193" flags="0x1004"/>
    </TTGlyph>
    <TTGlyph name="Idieresis" xMin="90" yMin="-185" xMax="701" yMax="765">
      <contour>
        <pt x="247" y="-166" on="1"/>
        <pt x="254" y="-166" on="0"/>
        <pt x="270" y="-164" on="1"/>
        <pt x="341" y="144" on="1"/>
        <pt x="344" y="157" on="0"/>
        <pt x="356" y="205" on="0"/>
        <pt x="357" y="210" on="1"/>
        <pt x="248" y="210" on="1"/>
        <pt x="250" y="228" on="1"/>
        <pt x="361" y="228" on="1"/>
        <pt x="400" y="375" on="0"/>
        <pt x="477" y="510" on="0"/>
        <pt x="529" y="517" on="1"/>
        <pt x="517" y="522" on="0"/>
        <pt x="434" y="558" on="0"/>
        <pt x="416" y="565" on="1"/>
        <pt x="355" y="588" on="0"/>
        <pt x="303" y="588" on="1"/>
        <pt x="208" y="588" on="0"/>
        <pt x="113" y="484" on="0"/>
        <pt x="113" y="369" on="1"/>
        <pt x="90" y="369" on="1"/>
        <pt x="90" y="609" on="0"/>
        <pt x="297" y="609" on="1"/>
        <pt x="364" y="609" on="0"/>
        <pt x="608" y="507" on="0"/>
        <pt x="672" y="507" on="1"/>
        <pt x="672" y="484" on="1"/>
        <pt x="646" y="484" on="0"/>
        <pt x="613" y="491" on="1"/>
        <pt x="606" y="486" on="1"/>
        <pt x="591" y="477" on="0"/>
        <pt x="557" y="422" on="1"/>
        <pt x="517" y="358" on="0"/>
        <pt x="482" y="228" on="1"/>
        <pt x="590" y="228" on="1"/>
        <pt x="588" y="210" on="1"/>
        <pt x="477" y="210" on="1"/>
        <pt x="470" y="187" on="0"/>
        <pt x="461" y="147" on="1"/>
        <pt x="420" y="-32" on="0"/>
        <pt x="329" y="-185" on="0"/>
        <pt x="241" y="-185" on="1"/>
        <pt x="182" y="-185" on="0"/>
        <pt x="168" y="-173" on="1"/>
        <pt x="178" y="-152" on="1"/>
        <pt x="198" y="-166" on="0"/>
      </contour>
      <contour>
        <pt x="617" y="648" on="0"/>
        <pt x="584" y="681" on="0"/>
        <pt x="584" y="730" on="0"/>
        <pt x="618" y="765" on="0"/>
        <pt x="666" y="765" on="0"/>
        <pt x="701" y="730" on="0"/>
        <pt x="701" y="682" on="0"/>
        <pt x="666" y="648" on="0"/>
      </contour>
      <contour>
        <pt x="457" y="648" on="0"/>
        <pt x="424" y="681" on="0"/>
        <pt x="424" y="730" on="0"/>
        <pt x="458" y="765" on="0"/>
        <pt x="506" y="765" on="0"/>
        <pt x="541" y="730" on="0"/>
        <pt x="541" y="682" on="0"/>
        <pt x="506" y="648" on="0"/>
      </contour>
    </TTGlyph>
    <TTGlyph name="Igrave" xMin="90" yMin="-185" xMax="672" yMax="764">
      <component glyphName="I" x="0" y="0" flags="0x1004"/>
      <component glyphName="grave" x="474" y="190" flags="0x1004"/>
    </TTGlyph>
    <TTGlyph name="J" xMin="13" yMin="-229" xMax="782" yMax="609">
      <contour>
        <pt x="397" y="588" on="1"/>
        <pt x="310" y="588" on="0"/>
        <pt x="200" y="474" on="0"/>
        <pt x="200" y="384" on="1"/>
        <pt x="179" y="384" on="1"/>
        <pt x="179" y="483" on="0"/>
        <pt x="301" y="609" on="0"/>
        <pt x="397" y="609" on="1"/>
        <pt x="432" y="609" on="0"/>
        <pt x="496" y="593" on="0"/>
        <pt x="527" y="577" on="0"/>
        <pt x="594" y="540" on="0"/>
        <pt x="636" y="521" on="0"/>
        <pt x="727" y="500" on="0"/>
        <pt x="782" y="500" on="1"/>
        <pt x="782" y="479" on="1"/>
        <pt x="750" y="479" on="0"/>
        <pt x="723" y="482" on="1"/>
        <pt x="715" y="474" on="0"/>
        <pt x="691" y="441" on="0"/>
        <pt x="633" y="314" on="0"/>
        <pt x="606" y="228" on="1"/>
        <pt x="712" y="228" on="1"/>
        <pt x="710" y="210" on="1"/>
        <pt x="601" y="210" on="1"/>
        <pt x="584" y="155" on="0"/>
        <pt x="557" y="40" on="0"/>
        <pt x="515" y="-69" on="0"/>
        <pt x="480" y="-122" on="1"/>
        <pt x="407" y="-229" on="0"/>
        <pt x="259" y="-229" on="1"/>
        <pt x="142" y="-229" on="0"/>
        <pt x="14" y="-78" on="0"/>
        <pt x="14" y="15" on="1"/>
        <pt x="14" y="27" on="0"/>
        <pt x="15" y="40" on="1"/>
        <pt x="38" y="40" on="1"/>
        <pt x="37" y="28" on="0"/>
        <pt x="37" y="17" on="1"/>
        <pt x="37" y="-74" on="0"/>
        <pt x="156" y="-208" on="0"/>
        <pt x="259" y="-208" on="1"/>
        <pt x="353" y="-208" on="0"/>
        <pt x="404" y="-70" on="1"/>
        <pt x="434" y="12" on="0"/>
        <pt x="473" y="186" on="0"/>
        <pt x="480" y="210" on="1"/>
        <pt x="370" y="210" on="1"/>
        <pt x="372" y="228" on="1"/>
        <pt x="484" y="228" on="1"/>
        <pt x="519" y="361" on="0"/>
        <pt x="587" y="488" on="0"/>
        <pt x="632" y="501" on="1"/>
        <pt x="597" y="513" on="0"/>
        <pt x="518" y="559" on="0"/>
        <pt x="503" y="566" on="1"/>
        <pt x="456" y="588" on="0"/>
      </contour>
    </TTGlyph>
    <TTGlyph name="K" xMin="18" yMin="-225" xMax="1173" yMax="665">
      <contour>
        <pt x="581" y="553" on="1"/>
        <pt x="502" y="587" on="0"/>
        <pt x="317" y="587" on="0"/>
        <pt x="202" y="469" on="0"/>
        <pt x="202" y="374" on="1"/>
        <pt x="180" y="374" on="1"/>
        <pt x="180" y="478" on="0"/>
        <pt x="308" y="609" on="0"/>
        <pt x="408" y="609" on="1"/>
        <pt x="488" y="609" on="0"/>
        <pt x="581" y="578" on="1"/>
        <pt x="688" y="539" on="0"/>
        <pt x="813" y="539" on="1"/>
        <pt x="813" y="518" on="1"/>
        <pt x="738" y="518" on="0"/>
        <pt x="693" y="525" on="1"/>
        <pt x="670" y="413" on="0"/>
        <pt x="588" y="73" on="0"/>
        <pt x="557" y="-21" on="0"/>
        <pt x="503" y="-121" on="0"/>
        <pt x="436" y="-184" on="0"/>
        <pt x="335" y="-225" on="0"/>
        <pt x="218" y="-225" on="0"/>
        <pt x="114" y="-181" on="0"/>
        <pt x="79" y="-142" on="1"/>
        <pt x="19" y="-73" on="0"/>
        <pt x="19" y="25" on="1"/>
        <pt x="19" y="41" on="0"/>
        <pt x="20" y="57" on="1"/>
        <pt x="42" y="54" on="1"/>
        <pt x="41" y="40" on="0"/>
        <pt x="41" y="26" on="1"/>
        <pt x="41" y="-67" on="0"/>
        <pt x="154" y="-192" on="0"/>
        <pt x="346" y="-192" on="0"/>
        <pt x="424" y="-90" on="0"/>
        <pt x="495" y="200" on="0"/>
      </contour>
      <contour>
        <pt x="1150" y="665" on="1"/>
        <pt x="1173" y="665" on="1"/>
        <pt x="1173" y="608" on="0"/>
        <pt x="1088" y="401" on="0"/>
        <pt x="1088" y="356" on="1"/>
        <pt x="1066" y="356" on="1"/>
        <pt x="1066" y="401" on="0"/>
        <pt x="1094" y="474" on="0"/>
        <pt x="1121" y="537" on="0"/>
        <pt x="1127" y="554" on="1"/>
        <pt x="969" y="545" on="0"/>
        <pt x="808" y="335" on="1"/>
        <pt x="772" y="291" on="0"/>
        <pt x="742" y="249" on="1"/>
        <pt x="837" y="51" on="0"/>
        <pt x="926" y="-112" on="0"/>
        <pt x="986" y="-174" on="0"/>
        <pt x="1054" y="-174" on="0"/>
        <pt x="1103" y="-135" on="0"/>
        <pt x="1113" y="-102" on="1"/>
        <pt x="1138" y="-102" on="1"/>
        <pt x="1106" y="-206" on="0"/>
        <pt x="981" y="-206" on="1"/>
        <pt x="902" y="-206" on="0"/>
        <pt x="800" y="-131" on="0"/>
        <pt x="764" y="-55" on="1"/>
        <pt x="654" y="177" on="1"/>
        <pt x="797" y="363" on="1"/>
        <pt x="870" y="458" on="0"/>
        <pt x="1033" y="575" on="0"/>
        <pt x="1135" y="578" on="1"/>
        <pt x="1150" y="623" on="0"/>
      </contour>
    </TTGlyph>
    <TTGlyph name="L" xMin="-77" yMin="-203" xMax="729" yMax="666">
      <contour>
        <pt x="137" y="-42" on="0"/>
        <pt x="79" y="-11" on="0"/>
        <pt x="-4" y="-11" on="0"/>
        <pt x="-53" y="-42" on="0"/>
        <pt x="-53" y="-99" on="0"/>
        <pt x="12" y="-134" on="0"/>
        <pt x="100" y="-134" on="0"/>
        <pt x="134" y="-126" on="1"/>
        <pt x="154" y="-108" on="0"/>
        <pt x="169" y="-72" on="1"/>
      </contour>
      <contour>
        <pt x="355" y="-179" on="0"/>
        <pt x="393" y="-183" on="0"/>
        <pt x="456" y="-183" on="0"/>
        <pt x="522" y="-149" on="0"/>
        <pt x="561" y="-104" on="0"/>
        <pt x="576" y="-76" on="1"/>
        <pt x="595" y="-43" on="0"/>
        <pt x="604" y="-10" on="1"/>
        <pt x="628" y="-18" on="1"/>
        <pt x="602" y="-103" on="0"/>
        <pt x="489" y="-203" on="0"/>
        <pt x="414" y="-203" on="1"/>
        <pt x="355" y="-203" on="0"/>
        <pt x="310" y="-186" on="0"/>
        <pt x="290" y="-181" on="0"/>
        <pt x="257" y="-156" on="0"/>
        <pt x="254" y="-154" on="1"/>
        <pt x="246" y="-148" on="0"/>
        <pt x="213" y="-115" on="1"/>
        <pt x="149" y="-153" on="0"/>
        <pt x="1" y="-153" on="0"/>
        <pt x="-77" y="-106" on="0"/>
        <pt x="-77" y="-35" on="0"/>
        <pt x="-20" y="8" on="0"/>
        <pt x="37" y="8" on="1"/>
        <pt x="115" y="8" on="0"/>
        <pt x="177" y="-50" on="1"/>
        <pt x="189" y="-13" on="0"/>
        <pt x="197" y="32" on="1"/>
        <pt x="264" y="419" on="1"/>
        <pt x="288" y="569" on="0"/>
        <pt x="368" y="621" on="1"/>
        <pt x="438" y="666" on="0"/>
        <pt x="616" y="666" on="0"/>
        <pt x="729" y="564" on="0"/>
        <pt x="729" y="454" on="1"/>
        <pt x="705" y="454" on="1"/>
        <pt x="705" y="543" on="0"/>
        <pt x="620" y="636" on="0"/>
        <pt x="555" y="636" on="1"/>
        <pt x="436" y="636" on="0"/>
        <pt x="414" y="488" on="1"/>
        <pt x="414" y="472" on="0"/>
        <pt x="363" y="175" on="0"/>
        <pt x="343" y="78" on="1"/>
        <pt x="322" y="-39" on="0"/>
        <pt x="231" y="-103" on="1"/>
        <pt x="285" y="-157" on="0"/>
        <pt x="311" y="-165" on="1"/>
        <pt x="321" y="-168" on="0"/>
      </contour>
    </TTGlyph>
    <TTGlyph name="M" xMin="21" yMin="-165" xMax="1410" yMax="608">
      <contour>
        <pt x="1291" y="-99" on="1"/>
        <pt x="1253" y="-137" on="0"/>
        <pt x="1132" y="-137" on="0"/>
        <pt x="1060" y="-58" on="0"/>
        <pt x="1060" y="71" on="0"/>
        <pt x="1083" y="155" on="1"/>
        <pt x="1128" y="303" on="1"/>
        <pt x="1044" y="197" on="0"/>
        <pt x="974" y="100" on="1"/>
        <pt x="836" y="-91" on="0"/>
        <pt x="787" y="-156" on="1"/>
        <pt x="769" y="-151" on="1"/>
        <pt x="730" y="333" on="1"/>
        <pt x="650" y="187" on="1"/>
        <pt x="536" y="-28" on="0"/>
        <pt x="383" y="-165" on="0"/>
        <pt x="256" y="-165" on="1"/>
        <pt x="148" y="-165" on="0"/>
        <pt x="77" y="-88" on="1"/>
        <pt x="21" y="-25" on="0"/>
        <pt x="21" y="63" on="1"/>
        <pt x="21" y="79" on="0"/>
        <pt x="23" y="96" on="1"/>
        <pt x="43" y="94" on="1"/>
        <pt x="41" y="78" on="0"/>
        <pt x="41" y="63" on="1"/>
        <pt x="41" y="-18" on="0"/>
        <pt x="92" y="-74" on="1"/>
        <pt x="157" y="-145" on="0"/>
        <pt x="256" y="-145" on="1"/>
        <pt x="375" y="-145" on="0"/>
        <pt x="521" y="-12" on="0"/>
        <pt x="632" y="196" on="1"/>
        <pt x="812" y="523" on="1"/>
        <pt x="706" y="525" on="0"/>
        <pt x="507" y="588" on="0"/>
        <pt x="350" y="588" on="0"/>
        <pt x="244" y="478" on="0"/>
        <pt x="244" y="391" on="1"/>
        <pt x="224" y="391" on="1"/>
        <pt x="224" y="487" on="0"/>
        <pt x="341" y="608" on="0"/>
        <pt x="434" y="608" on="1"/>
        <pt x="509" y="608" on="0"/>
        <pt x="716" y="543" on="0"/>
        <pt x="836" y="543" on="1"/>
        <pt x="878" y="3" on="1"/>
        <pt x="898" y="31" on="1"/>
        <pt x="1109" y="321" on="0"/>
        <pt x="1339" y="570" on="0"/>
        <pt x="1410" y="570" on="1"/>
        <pt x="1410" y="550" on="1"/>
        <pt x="1379" y="550" on="0"/>
        <pt x="1331" y="516" on="1"/>
        <pt x="1324" y="494" on="0"/>
        <pt x="1244" y="233" on="0"/>
        <pt x="1181" y="38" on="0"/>
        <pt x="1181" y="-86" on="0"/>
        <pt x="1203" y="-116" on="1"/>
        <pt x="1224" y="-116" on="0"/>
        <pt x="1261" y="-99" on="0"/>
        <pt x="1270" y="-90" on="1"/>
        <pt x="1278" y="-82" on="1"/>
      </contour>
    </TTGlyph>
    <TTGlyph name="N" xMin="19" yMin="-159" xMax="1403" yMax="610">
      <contour>
        <pt x="1177" y="-112" on="1"/>
        <pt x="1243" y="-112" on="0"/>
        <pt x="1267" y="-39" on="1"/>
        <pt x="1289" y="-39" on="1"/>
        <pt x="1288" y="-43" on="0"/>
        <pt x="1285" y="-57" on="0"/>
        <pt x="1265" y="-93" on="0"/>
        <pt x="1235" y="-121" on="0"/>
        <pt x="1174" y="-143" on="0"/>
        <pt x="1135" y="-143" on="1"/>
        <pt x="1051" y="-143" on="0"/>
        <pt x="947" y="-60" on="0"/>
        <pt x="911" y="24" on="1"/>
        <pt x="772" y="393" on="1"/>
        <pt x="671" y="209" on="1"/>
        <pt x="562" y="5" on="0"/>
        <pt x="372" y="-159" on="0"/>
        <pt x="243" y="-159" on="1"/>
        <pt x="140" y="-159" on="0"/>
        <pt x="72" y="-86" on="1"/>
        <pt x="19" y="-27" on="0"/>
        <pt x="19" y="59" on="1"/>
        <pt x="19" y="74" on="0"/>
        <pt x="21" y="90" on="1"/>
        <pt x="40" y="87" on="1"/>
        <pt x="39" y="74" on="0"/>
        <pt x="39" y="61" on="1"/>
        <pt x="39" y="-18" on="0"/>
        <pt x="86" y="-72" on="1"/>
        <pt x="145" y="-139" on="0"/>
        <pt x="243" y="-139" on="1"/>
        <pt x="365" y="-139" on="0"/>
        <pt x="549" y="21" on="0"/>
        <pt x="655" y="219" on="1"/>
        <pt x="825" y="529" on="1"/>
        <pt x="722" y="531" on="0"/>
        <pt x="538" y="590" on="0"/>
        <pt x="386" y="590" on="0"/>
        <pt x="285" y="486" on="0"/>
        <pt x="285" y="403" on="1"/>
        <pt x="266" y="403" on="1"/>
        <pt x="266" y="494" on="0"/>
        <pt x="378" y="610" on="0"/>
        <pt x="466" y="610" on="1"/>
        <pt x="536" y="610" on="0"/>
        <pt x="737" y="549" on="0"/>
        <pt x="852" y="549" on="1"/>
        <pt x="1012" y="114" on="1"/>
        <pt x="1092" y="241" on="0"/>
        <pt x="1193" y="421" on="0"/>
        <pt x="1254" y="515" on="0"/>
        <pt x="1278" y="540" on="1"/>
        <pt x="1333" y="596" on="0"/>
        <pt x="1403" y="596" on="1"/>
        <pt x="1403" y="576" on="1"/>
        <pt x="1364" y="576" on="0"/>
        <pt x="1299" y="535" on="0"/>
        <pt x="1228" y="438" on="0"/>
        <pt x="1170" y="340" on="0"/>
        <pt x="1066" y="161" on="0"/>
        <pt x="1021" y="91" on="1"/>
        <pt x="1050" y="20" on="0"/>
        <pt x="1093" y="-64" on="0"/>
        <pt x="1140" y="-112" on="0"/>
      </contour>
    </TTGlyph>
    <TTGlyph name="Ntilde" xMin="21" yMin="-159" xMax="1403" yMax="741">
      <component glyphName="N" x="0" y="0" flags="0x1004"/>
      <component glyphName="tilde" x="870" y="-20" flags="0x1004"/>
    </TTGlyph>
    <TTGlyph name="O" xMin="89" yMin="-103" xMax="742" yMax="610">
      <contour>
        <pt x="200" y="26" on="0"/>
        <pt x="305" y="-78" on="0"/>
        <pt x="372" y="-78" on="1"/>
        <pt x="463" y="-78" on="0"/>
        <pt x="628" y="43" on="0"/>
        <pt x="722" y="226" on="0"/>
        <pt x="722" y="418" on="0"/>
        <pt x="636" y="527" on="0"/>
        <pt x="557" y="527" on="1"/>
        <pt x="462" y="527" on="0"/>
        <pt x="354" y="395" on="0"/>
        <pt x="354" y="306" on="1"/>
        <pt x="354" y="267" on="0"/>
        <pt x="378" y="209" on="0"/>
        <pt x="408" y="181" on="0"/>
        <pt x="427" y="172" on="1"/>
        <pt x="452" y="160" on="0"/>
        <pt x="470" y="160" on="1"/>
        <pt x="469" y="140" on="1"/>
        <pt x="452" y="140" on="0"/>
        <pt x="399" y="164" on="0"/>
        <pt x="363" y="196" on="0"/>
        <pt x="334" y="262" on="0"/>
        <pt x="334" y="306" on="1"/>
        <pt x="334" y="403" on="0"/>
        <pt x="453" y="546" on="0"/>
        <pt x="557" y="546" on="1"/>
        <pt x="644" y="546" on="0"/>
        <pt x="742" y="426" on="0"/>
        <pt x="742" y="319" on="1"/>
        <pt x="742" y="244" on="0"/>
        <pt x="683" y="93" on="0"/>
        <pt x="582" y="-27" on="0"/>
        <pt x="431" y="-103" on="0"/>
        <pt x="346" y="-103" on="1"/>
        <pt x="225" y="-103" on="0"/>
        <pt x="89" y="44" on="0"/>
        <pt x="89" y="174" on="1"/>
        <pt x="89" y="353" on="0"/>
        <pt x="317" y="603" on="0"/>
        <pt x="487" y="610" on="1"/>
        <pt x="488" y="590" on="1"/>
        <pt x="423" y="588" on="0"/>
        <pt x="320" y="527" on="0"/>
        <pt x="257" y="434" on="0"/>
        <pt x="236" y="372" on="1"/>
        <pt x="200" y="263" on="0"/>
      </contour>
    </TTGlyph>
    <TTGlyph name="OE" xMin="89" yMin="-103" xMax="1155" yMax="665">
      <contour>
        <pt x="1132" y="665" on="1"/>
        <pt x="1155" y="665" on="1"/>
        <pt x="1155" y="608" on="0"/>
        <pt x="1070" y="401" on="0"/>
        <pt x="1070" y="356" on="1"/>
        <pt x="1048" y="356" on="1"/>
        <pt x="1048" y="403" on="0"/>
        <pt x="1116" y="571" on="0"/>
        <pt x="1121" y="589" on="1"/>
        <pt x="1080" y="572" on="0"/>
        <pt x="939" y="572" on="0"/>
        <pt x="858" y="590" on="0"/>
        <pt x="833" y="591" on="1"/>
        <pt x="788" y="424" on="0"/>
        <pt x="758" y="256" on="1"/>
        <pt x="1078" y="256" on="1"/>
        <pt x="1076" y="238" on="1"/>
        <pt x="755" y="238" on="1"/>
        <pt x="729" y="94" on="0"/>
        <pt x="716" y="-41" on="1"/>
        <pt x="720" y="-41" on="0"/>
        <pt x="724" y="-41" on="1"/>
        <pt x="783" y="-41" on="0"/>
        <pt x="963" y="16" on="0"/>
        <pt x="1038" y="20" on="1"/>
        <pt x="1035" y="0" on="1"/>
        <pt x="971" y="-3" on="0"/>
        <pt x="781" y="-61" on="0"/>
        <pt x="619" y="-61" on="0"/>
        <pt x="599" y="0" on="1"/>
        <pt x="489" y="-103" on="0"/>
        <pt x="346" y="-103" on="1"/>
        <pt x="225" y="-103" on="0"/>
        <pt x="89" y="44" on="0"/>
        <pt x="89" y="174" on="1"/>
        <pt x="89" y="353" on="0"/>
        <pt x="317" y="603" on="0"/>
        <pt x="487" y="610" on="1"/>
        <pt x="488" y="590" on="1"/>
        <pt x="423" y="588" on="0"/>
        <pt x="320" y="527" on="0"/>
        <pt x="257" y="434" on="0"/>
        <pt x="236" y="372" on="1"/>
        <pt x="200" y="263" on="0"/>
        <pt x="200" y="26" on="0"/>
        <pt x="305" y="-78" on="0"/>
        <pt x="372" y="-78" on="1"/>
        <pt x="492" y="-78" on="0"/>
        <pt x="594" y="24" on="1"/>
        <pt x="594" y="36" on="1"/>
        <pt x="594" y="168" on="0"/>
        <pt x="673" y="479" on="1"/>
        <pt x="630" y="527" on="0"/>
        <pt x="557" y="527" on="1"/>
        <pt x="462" y="527" on="0"/>
        <pt x="354" y="395" on="0"/>
        <pt x="354" y="306" on="1"/>
        <pt x="354" y="267" on="0"/>
        <pt x="378" y="209" on="0"/>
        <pt x="408" y="181" on="0"/>
        <pt x="427" y="172" on="1"/>
        <pt x="452" y="160" on="0"/>
        <pt x="470" y="160" on="1"/>
        <pt x="469" y="140" on="1"/>
        <pt x="452" y="140" on="0"/>
        <pt x="399" y="164" on="0"/>
        <pt x="363" y="196" on="0"/>
        <pt x="334" y="262" on="0"/>
        <pt x="334" y="306" on="1"/>
        <pt x="334" y="403" on="0"/>
        <pt x="453" y="546" on="0"/>
        <pt x="557" y="546" on="1"/>
        <pt x="631" y="546" on="0"/>
        <pt x="678" y="501" on="1"/>
        <pt x="703" y="594" on="1"/>
        <pt x="752" y="609" on="0"/>
        <pt x="838" y="609" on="1"/>
        <pt x="860" y="609" on="0"/>
        <pt x="947" y="590" on="0"/>
        <pt x="989" y="590" on="1"/>
        <pt x="1081" y="590" on="0"/>
        <pt x="1126" y="610" on="1"/>
        <pt x="1132" y="646" on="0"/>
      </contour>
    </TTGlyph>
    <TTGlyph name="Oacute" xMin="89" yMin="-103" xMax="742" yMax="764">
      <component glyphName="O" x="0" y="0" flags="0x1004"/>
      <component glyphName="acute" x="550" y="190" flags="0x1004"/>
    </TTGlyph>
    <TTGlyph name="Ocircumflex" xMin="89" yMin="-103" xMax="742" yMax="846">
      <contour>
        <pt x="236" y="372" on="1"/>
        <pt x="200" y="263" on="0"/>
        <pt x="200" y="26" on="0"/>
        <pt x="305" y="-78" on="0"/>
        <pt x="372" y="-78" on="1"/>
        <pt x="463" y="-78" on="0"/>
        <pt x="628" y="43" on="0"/>
        <pt x="722" y="226" on="0"/>
        <pt x="722" y="418" on="0"/>
        <pt x="636" y="527" on="0"/>
        <pt x="557" y="527" on="1"/>
        <pt x="462" y="527" on="0"/>
        <pt x="354" y="395" on="0"/>
        <pt x="354" y="306" on="1"/>
        <pt x="354" y="267" on="0"/>
        <pt x="378" y="209" on="0"/>
        <pt x="408" y="181" on="0"/>
        <pt x="452" y="160" on="0"/>
        <pt x="470" y="160" on="1"/>
        <pt x="469" y="140" on="1"/>
        <pt x="452" y="140" on="0"/>
        <pt x="421" y="154" on="1"/>
        <pt x="399" y="164" on="0"/>
        <pt x="363" y="196" on="0"/>
        <pt x="334" y="262" on="0"/>
        <pt x="334" y="306" on="1"/>
        <pt x="334" y="403" on="0"/>
        <pt x="453" y="546" on="0"/>
        <pt x="557" y="546" on="1"/>
        <pt x="644" y="546" on="0"/>
        <pt x="742" y="426" on="0"/>
        <pt x="742" y="319" on="1"/>
        <pt x="742" y="244" on="0"/>
        <pt x="683" y="93" on="0"/>
        <pt x="582" y="-27" on="0"/>
        <pt x="431" y="-103" on="0"/>
        <pt x="346" y="-103" on="1"/>
        <pt x="225" y="-103" on="0"/>
        <pt x="89" y="44" on="0"/>
        <pt x="89" y="174" on="1"/>
        <pt x="89" y="353" on="0"/>
        <pt x="317" y="603" on="0"/>
        <pt x="487" y="610" on="1"/>
        <pt x="488" y="590" on="1"/>
        <pt x="423" y="588" on="0"/>
        <pt x="320" y="527" on="0"/>
        <pt x="257" y="434" on="0"/>
      </contour>
      <contour>
        <pt x="565" y="818" on="1"/>
        <pt x="414" y="649" on="1"/>
        <pt x="392" y="666" on="1"/>
        <pt x="555" y="846" on="1"/>
        <pt x="582" y="846" on="1"/>
        <pt x="678" y="660" on="1"/>
        <pt x="653" y="648" on="1"/>
      </contour>
    </TTGlyph>
    <TTGlyph name="Odieresis" xMin="89" yMin="-103" xMax="742" yMax="768">
      <contour>
        <pt x="236" y="372" on="1"/>
        <pt x="200" y="263" on="0"/>
        <pt x="200" y="26" on="0"/>
        <pt x="305" y="-78" on="0"/>
        <pt x="372" y="-78" on="1"/>
        <pt x="463" y="-78" on="0"/>
        <pt x="628" y="43" on="0"/>
        <pt x="722" y="226" on="0"/>
        <pt x="722" y="418" on="0"/>
        <pt x="636" y="527" on="0"/>
        <pt x="557" y="527" on="1"/>
        <pt x="462" y="527" on="0"/>
        <pt x="354" y="395" on="0"/>
        <pt x="354" y="306" on="1"/>
        <pt x="354" y="267" on="0"/>
        <pt x="378" y="209" on="0"/>
        <pt x="408" y="181" on="0"/>
        <pt x="452" y="160" on="0"/>
        <pt x="470" y="160" on="1"/>
        <pt x="469" y="140" on="1"/>
        <pt x="452" y="140" on="0"/>
        <pt x="421" y="154" on="1"/>
        <pt x="399" y="164" on="0"/>
        <pt x="363" y="196" on="0"/>
        <pt x="334" y="262" on="0"/>
        <pt x="334" y="306" on="1"/>
        <pt x="334" y="403" on="0"/>
        <pt x="453" y="546" on="0"/>
        <pt x="557" y="546" on="1"/>
        <pt x="644" y="546" on="0"/>
        <pt x="742" y="426" on="0"/>
        <pt x="742" y="319" on="1"/>
        <pt x="742" y="244" on="0"/>
        <pt x="683" y="93" on="0"/>
        <pt x="582" y="-27" on="0"/>
        <pt x="431" y="-103" on="0"/>
        <pt x="346" y="-103" on="1"/>
        <pt x="225" y="-103" on="0"/>
        <pt x="89" y="44" on="0"/>
        <pt x="89" y="174" on="1"/>
        <pt x="89" y="353" on="0"/>
        <pt x="317" y="603" on="0"/>
        <pt x="487" y="610" on="1"/>
        <pt x="488" y="590" on="1"/>
        <pt x="423" y="588" on="0"/>
        <pt x="320" y="527" on="0"/>
        <pt x="257" y="434" on="0"/>
      </contour>
      <contour>
        <pt x="564" y="651" on="0"/>
        <pt x="531" y="684" on="0"/>
        <pt x="531" y="733" on="0"/>
        <pt x="565" y="768" on="0"/>
        <pt x="613" y="768" on="0"/>
        <pt x="648" y="733" on="0"/>
        <pt x="648" y="685" on="0"/>
        <pt x="613" y="651" on="0"/>
      </contour>
      <contour>
        <pt x="404" y="651" on="0"/>
        <pt x="371" y="684" on="0"/>
        <pt x="371" y="733" on="0"/>
        <pt x="405" y="768" on="0"/>
        <pt x="453" y="768" on="0"/>
        <pt x="488" y="733" on="0"/>
        <pt x="488" y="685" on="0"/>
        <pt x="453" y="651" on="0"/>
      </contour>
    </TTGlyph>
    <TTGlyph name="Ograve" xMin="89" yMin="-103" xMax="742" yMax="764">
      <component glyphName="O" x="0" y="0" flags="0x1004"/>
      <component glyphName="grave" x="462" y="190" flags="0x1004"/>
    </TTGlyph>
    <TTGlyph name="Oslash" xMin="89" yMin="-212" xMax="742" yMax="658">
      <contour>
        <pt x="277" y="-48" on="1"/>
        <pt x="387" y="175" on="1"/>
        <pt x="334" y="219" on="0"/>
        <pt x="334" y="403" on="0"/>
        <pt x="453" y="546" on="0"/>
        <pt x="557" y="546" on="1"/>
        <pt x="566" y="546" on="0"/>
        <pt x="570" y="545" on="1"/>
        <pt x="626" y="658" on="1"/>
        <pt x="646" y="648" on="1"/>
        <pt x="594" y="543" on="1"/>
        <pt x="664" y="530" on="0"/>
        <pt x="742" y="414" on="0"/>
        <pt x="742" y="244" on="0"/>
        <pt x="683" y="93" on="0"/>
        <pt x="582" y="-27" on="0"/>
        <pt x="431" y="-103" on="0"/>
        <pt x="346" y="-103" on="1"/>
        <pt x="316" y="-103" on="0"/>
        <pt x="279" y="-96" on="1"/>
        <pt x="222" y="-212" on="1"/>
        <pt x="201" y="-203" on="1"/>
        <pt x="256" y="-90" on="1"/>
        <pt x="176" y="-66" on="0"/>
        <pt x="89" y="70" on="0"/>
        <pt x="89" y="174" on="1"/>
        <pt x="89" y="353" on="0"/>
        <pt x="317" y="603" on="0"/>
        <pt x="487" y="610" on="1"/>
        <pt x="488" y="590" on="1"/>
        <pt x="423" y="588" on="0"/>
        <pt x="320" y="527" on="0"/>
        <pt x="257" y="434" on="0"/>
        <pt x="236" y="372" on="1"/>
        <pt x="200" y="263" on="0"/>
        <pt x="200" y="8" on="0"/>
      </contour>
      <contour>
        <pt x="415" y="180" on="1"/>
        <pt x="441" y="165" on="0"/>
        <pt x="472" y="161" on="1"/>
        <pt x="469" y="142" on="1"/>
        <pt x="440" y="142" on="0"/>
        <pt x="406" y="162" on="1"/>
        <pt x="297" y="-60" on="1"/>
        <pt x="333" y="-78" on="0"/>
        <pt x="372" y="-78" on="1"/>
        <pt x="463" y="-78" on="0"/>
        <pt x="628" y="43" on="0"/>
        <pt x="722" y="226" on="0"/>
        <pt x="722" y="409" on="0"/>
        <pt x="651" y="515" on="0"/>
        <pt x="585" y="525" on="1"/>
      </contour>
      <contour>
        <pt x="462" y="527" on="0"/>
        <pt x="354" y="395" on="0"/>
        <pt x="354" y="232" on="0"/>
        <pt x="397" y="194" on="1"/>
        <pt x="561" y="527" on="1"/>
        <pt x="557" y="527" on="1"/>
      </contour>
    </TTGlyph>
    <TTGlyph name="Otilde" xMin="89" yMin="-103" xMax="742" yMax="781">
      <component glyphName="O" x="0" y="0" flags="0x1004"/>
      <component glyphName="tilde" x="267" y="20" flags="0x1004"/>
    </TTGlyph>
    <TTGlyph name="P" xMin="105" yMin="-204" xMax="980" yMax="710">
      <contour>
        <pt x="472" y="-115" on="1"/>
        <pt x="408" y="-153" on="0"/>
        <pt x="260" y="-153" on="0"/>
        <pt x="182" y="-106" on="0"/>
        <pt x="182" y="-35" on="0"/>
        <pt x="239" y="8" on="0"/>
        <pt x="296" y="8" on="1"/>
        <pt x="374" y="8" on="0"/>
        <pt x="436" y="-50" on="1"/>
        <pt x="448" y="-13" on="0"/>
        <pt x="456" y="32" on="1"/>
        <pt x="462" y="69" on="1"/>
        <pt x="420" y="69" on="1"/>
        <pt x="420" y="91" on="1"/>
        <pt x="466" y="91" on="1"/>
        <pt x="542" y="525" on="1"/>
        <pt x="547" y="562" on="0"/>
        <pt x="556" y="585" on="1"/>
        <pt x="349" y="569" on="0"/>
        <pt x="124" y="426" on="0"/>
        <pt x="124" y="310" on="1"/>
        <pt x="124" y="258" on="0"/>
        <pt x="160" y="222" on="1"/>
        <pt x="185" y="198" on="0"/>
        <pt x="267" y="173" on="0"/>
        <pt x="320" y="170" on="0"/>
        <pt x="322" y="172" on="1"/>
        <pt x="322" y="151" on="1"/>
        <pt x="204" y="151" on="0"/>
        <pt x="147" y="207" on="1"/>
        <pt x="105" y="246" on="0"/>
        <pt x="105" y="310" on="1"/>
        <pt x="105" y="437" on="0"/>
        <pt x="343" y="590" on="0"/>
        <pt x="564" y="605" on="1"/>
        <pt x="611" y="710" on="0"/>
        <pt x="739" y="710" on="1"/>
        <pt x="739" y="684" on="1"/>
        <pt x="714" y="681" on="0"/>
        <pt x="695" y="647" on="0"/>
        <pt x="688" y="609" on="1"/>
        <pt x="771" y="608" on="0"/>
        <pt x="890" y="569" on="0"/>
        <pt x="921" y="537" on="1"/>
        <pt x="980" y="476" on="0"/>
        <pt x="980" y="394" on="1"/>
        <pt x="980" y="331" on="0"/>
        <pt x="933" y="228" on="0"/>
        <pt x="861" y="162" on="0"/>
        <pt x="809" y="138" on="1"/>
        <pt x="723" y="97" on="0"/>
        <pt x="602" y="80" on="1"/>
        <pt x="602" y="78" on="1"/>
        <pt x="581" y="-39" on="0"/>
        <pt x="490" y="-103" on="1"/>
        <pt x="531" y="-140" on="0"/>
        <pt x="629" y="-182" on="0"/>
        <pt x="706" y="-182" on="1"/>
        <pt x="706" y="-204" on="1"/>
        <pt x="623" y="-204" on="0"/>
        <pt x="516" y="-157" on="0"/>
      </contour>
      <contour>
        <pt x="954" y="394" on="1"/>
        <pt x="954" y="482" on="0"/>
        <pt x="821" y="588" on="0"/>
        <pt x="686" y="590" on="1"/>
        <pt x="649" y="318" on="0"/>
        <pt x="607" y="103" on="1"/>
        <pt x="954" y="153" on="0"/>
      </contour>
      <contour>
        <pt x="396" y="-42" on="0"/>
        <pt x="338" y="-11" on="0"/>
        <pt x="255" y="-11" on="0"/>
        <pt x="206" y="-42" on="0"/>
        <pt x="206" y="-97" on="0"/>
        <pt x="270" y="-134" on="0"/>
        <pt x="360" y="-134" on="0"/>
        <pt x="413" y="-108" on="0"/>
        <pt x="428" y="-72" on="1"/>
      </contour>
    </TTGlyph>
    <TTGlyph name="Q" xMin="10" yMin="-294" xMax="903" yMax="610">
      <contour>
        <pt x="10" y="-171" on="0"/>
        <pt x="139" y="-95" on="0"/>
        <pt x="326" y="-95" on="0"/>
        <pt x="437" y="-139" on="1"/>
        <pt x="568" y="-42" on="0"/>
        <pt x="741" y="221" on="0"/>
        <pt x="741" y="463" on="0"/>
        <pt x="615" y="590" on="0"/>
        <pt x="497" y="590" on="1"/>
        <pt x="396" y="590" on="0"/>
        <pt x="308" y="488" on="1"/>
        <pt x="264" y="437" on="0"/>
        <pt x="210" y="254" on="0"/>
        <pt x="210" y="136" on="1"/>
        <pt x="210" y="94" on="0"/>
        <pt x="227" y="33" on="0"/>
        <pt x="248" y="5" on="0"/>
        <pt x="266" y="-3" on="1"/>
        <pt x="287" y="-13" on="0"/>
        <pt x="316" y="-13" on="1"/>
        <pt x="376" y="-13" on="0"/>
        <pt x="479" y="119" on="0"/>
        <pt x="479" y="209" on="1"/>
        <pt x="479" y="294" on="0"/>
        <pt x="422" y="329" on="1"/>
        <pt x="400" y="342" on="0"/>
        <pt x="363" y="346" on="1"/>
        <pt x="363" y="366" on="1"/>
        <pt x="417" y="366" on="0"/>
        <pt x="499" y="285" on="0"/>
        <pt x="499" y="209" on="1"/>
        <pt x="499" y="111" on="0"/>
        <pt x="379" y="-41" on="0"/>
        <pt x="184" y="-41" on="0"/>
        <pt x="84" y="69" on="0"/>
        <pt x="84" y="169" on="1"/>
        <pt x="84" y="293" on="0"/>
        <pt x="148" y="404" on="1"/>
        <pt x="181" y="462" on="0"/>
        <pt x="275" y="553" on="0"/>
        <pt x="415" y="610" on="0"/>
        <pt x="497" y="610" on="1"/>
        <pt x="622" y="610" on="0"/>
        <pt x="760" y="471" on="0"/>
        <pt x="760" y="219" on="0"/>
        <pt x="589" y="-46" on="0"/>
        <pt x="457" y="-147" on="1"/>
        <pt x="493" y="-162" on="0"/>
        <pt x="619" y="-228" on="0"/>
        <pt x="704" y="-260" on="0"/>
        <pt x="772" y="-260" on="0"/>
        <pt x="823" y="-242" on="0"/>
        <pt x="853" y="-218" on="0"/>
        <pt x="864" y="-204" on="1"/>
        <pt x="880" y="-183" on="0"/>
        <pt x="884" y="-172" on="1"/>
        <pt x="903" y="-177" on="1"/>
        <pt x="860" y="-294" on="0"/>
        <pt x="652" y="-294" on="1"/>
        <pt x="592" y="-294" on="0"/>
        <pt x="476" y="-267" on="0"/>
        <pt x="413" y="-240" on="0"/>
        <pt x="360" y="-214" on="1"/>
        <pt x="222" y="-294" on="0"/>
        <pt x="103" y="-294" on="1"/>
        <pt x="56" y="-294" on="0"/>
        <pt x="10" y="-253" on="0"/>
        <pt x="10" y="-223" on="1"/>
      </contour>
      <contour>
        <pt x="33" y="-223" on="1"/>
        <pt x="33" y="-246" on="0"/>
        <pt x="73" y="-274" on="0"/>
        <pt x="108" y="-274" on="1"/>
        <pt x="214" y="-274" on="0"/>
        <pt x="339" y="-203" on="1"/>
        <pt x="223" y="-147" on="0"/>
        <pt x="137" y="-147" on="1"/>
        <pt x="97" y="-147" on="0"/>
        <pt x="33" y="-187" on="0"/>
      </contour>
    </TTGlyph>
    <TTGlyph name="R" xMin="82" yMin="-198" xMax="1140" yMax="609">
      <contour>
        <pt x="308" y="-153" on="1"/>
        <pt x="308" y="-134" on="1"/>
        <pt x="370" y="-131" on="0"/>
        <pt x="414" y="-73" on="0"/>
        <pt x="433" y="32" on="1"/>
        <pt x="529" y="585" on="1"/>
        <pt x="324" y="568" on="0"/>
        <pt x="101" y="425" on="0"/>
        <pt x="101" y="310" on="1"/>
        <pt x="101" y="258" on="0"/>
        <pt x="137" y="222" on="1"/>
        <pt x="162" y="198" on="0"/>
        <pt x="244" y="173" on="0"/>
        <pt x="297" y="170" on="0"/>
        <pt x="299" y="172" on="1"/>
        <pt x="299" y="151" on="1"/>
        <pt x="181" y="151" on="0"/>
        <pt x="124" y="207" on="1"/>
        <pt x="82" y="246" on="0"/>
        <pt x="82" y="310" on="1"/>
        <pt x="82" y="453" on="0"/>
        <pt x="381" y="609" on="0"/>
        <pt x="654" y="609" on="1"/>
        <pt x="824" y="609" on="0"/>
        <pt x="967" y="517" on="0"/>
        <pt x="967" y="358" on="0"/>
        <pt x="858" y="244" on="0"/>
        <pt x="769" y="213" on="1"/>
        <pt x="899" y="-57" on="0"/>
        <pt x="973" y="-166" on="0"/>
        <pt x="1025" y="-166" on="1"/>
        <pt x="1056" y="-166" on="0"/>
        <pt x="1105" y="-127" on="0"/>
        <pt x="1115" y="-94" on="1"/>
        <pt x="1140" y="-94" on="1"/>
        <pt x="1108" y="-198" on="0"/>
        <pt x="983" y="-198" on="1"/>
        <pt x="904" y="-198" on="0"/>
        <pt x="801" y="-123" on="0"/>
        <pt x="766" y="-47" on="1"/>
        <pt x="658" y="187" on="1"/>
        <pt x="618" y="183" on="0"/>
        <pt x="599" y="183" on="1"/>
        <pt x="596" y="168" on="0"/>
        <pt x="584" y="96" on="0"/>
        <pt x="580" y="78" on="1"/>
        <pt x="560" y="-30" on="0"/>
        <pt x="399" y="-153" on="0"/>
      </contour>
      <contour>
        <pt x="941" y="434" on="1"/>
        <pt x="941" y="587" on="0"/>
        <pt x="663" y="590" on="1"/>
        <pt x="603" y="205" on="1"/>
        <pt x="745" y="209" on="0"/>
        <pt x="941" y="344" on="0"/>
      </contour>
    </TTGlyph>
    <TTGlyph name="S" xMin="81" yMin="-216" xMax="758" yMax="690">
      <contour>
        <pt x="309" y="-194" on="1"/>
        <pt x="414" y="-194" on="0"/>
        <pt x="531" y="-108" on="0"/>
        <pt x="531" y="-37" on="1"/>
        <pt x="531" y="14" on="0"/>
        <pt x="480" y="92" on="0"/>
        <pt x="404" y="143" on="0"/>
        <pt x="325" y="193" on="0"/>
        <pt x="257" y="269" on="0"/>
        <pt x="246" y="317" on="1"/>
        <pt x="155" y="344" on="0"/>
        <pt x="126" y="430" on="1"/>
        <pt x="115" y="463" on="0"/>
        <pt x="115" y="535" on="0"/>
        <pt x="126" y="574" on="1"/>
        <pt x="149" y="651" on="0"/>
        <pt x="201" y="690" on="1"/>
        <pt x="212" y="674" on="1"/>
        <pt x="165" y="640" on="0"/>
        <pt x="144" y="568" on="1"/>
        <pt x="134" y="532" on="0"/>
        <pt x="134" y="466" on="0"/>
        <pt x="144" y="436" on="1"/>
        <pt x="168" y="363" on="0"/>
        <pt x="243" y="338" on="1"/>
        <pt x="241" y="349" on="0"/>
        <pt x="241" y="372" on="1"/>
        <pt x="241" y="503" on="0"/>
        <pt x="431" y="665" on="0"/>
        <pt x="568" y="665" on="1"/>
        <pt x="658" y="665" on="0"/>
        <pt x="712" y="616" on="1"/>
        <pt x="758" y="573" on="0"/>
        <pt x="758" y="448" on="0"/>
        <pt x="674" y="357" on="0"/>
        <pt x="603" y="357" on="1"/>
        <pt x="564" y="357" on="0"/>
        <pt x="539" y="372" on="1"/>
        <pt x="488" y="333" on="0"/>
        <pt x="418" y="316" on="1"/>
        <pt x="438" y="297" on="0"/>
        <pt x="585" y="195" on="0"/>
        <pt x="658" y="102" on="0"/>
        <pt x="658" y="40" on="1"/>
        <pt x="658" y="-74" on="0"/>
        <pt x="481" y="-216" on="0"/>
        <pt x="210" y="-216" on="0"/>
        <pt x="141" y="-156" on="1"/>
        <pt x="81" y="-105" on="0"/>
        <pt x="81" y="42" on="0"/>
        <pt x="176" y="147" on="0"/>
        <pt x="318" y="147" on="0"/>
        <pt x="386" y="84" on="0"/>
        <pt x="386" y="-6" on="0"/>
        <pt x="331" y="-76" on="0"/>
        <pt x="243" y="-76" on="0"/>
        <pt x="217" y="-48" on="1"/>
        <pt x="193" y="-24" on="0"/>
        <pt x="190" y="12" on="1"/>
        <pt x="189" y="22" on="0"/>
        <pt x="190" y="24" on="1"/>
        <pt x="209" y="23" on="1"/>
        <pt x="208" y="-12" on="0"/>
        <pt x="231" y="-35" on="1"/>
        <pt x="250" y="-56" on="0"/>
        <pt x="323" y="-56" on="0"/>
        <pt x="367" y="1" on="0"/>
        <pt x="367" y="76" on="0"/>
        <pt x="341" y="99" on="1"/>
        <pt x="312" y="128" on="0"/>
        <pt x="184" y="128" on="0"/>
        <pt x="100" y="35" on="0"/>
        <pt x="100" y="-96" on="0"/>
        <pt x="154" y="-142" on="1"/>
        <pt x="186" y="-170" on="0"/>
        <pt x="253" y="-194" on="0"/>
      </contour>
      <contour>
        <pt x="479" y="494" on="1"/>
        <pt x="479" y="538" on="0"/>
        <pt x="524" y="596" on="0"/>
        <pt x="563" y="596" on="1"/>
        <pt x="630" y="596" on="0"/>
        <pt x="630" y="449" on="0"/>
        <pt x="557" y="384" on="1"/>
        <pt x="579" y="374" on="0"/>
        <pt x="603" y="374" on="1"/>
        <pt x="665" y="374" on="0"/>
        <pt x="739" y="455" on="0"/>
        <pt x="739" y="564" on="0"/>
        <pt x="699" y="602" on="1"/>
        <pt x="650" y="646" on="0"/>
        <pt x="490" y="646" on="0"/>
        <pt x="434" y="607" on="1"/>
        <pt x="347" y="545" on="0"/>
        <pt x="347" y="447" on="1"/>
        <pt x="347" y="366" on="0"/>
        <pt x="401" y="329" on="1"/>
        <pt x="468" y="344" on="0"/>
        <pt x="525" y="383" on="1"/>
        <pt x="479" y="424" on="0"/>
      </contour>
      <contour>
        <pt x="562" y="578" on="1"/>
        <pt x="532" y="578" on="0"/>
        <pt x="499" y="532" on="0"/>
        <pt x="499" y="494" on="1"/>
        <pt x="499" y="429" on="0"/>
        <pt x="540" y="395" on="1"/>
        <pt x="570" y="416" on="0"/>
        <pt x="610" y="488" on="0"/>
        <pt x="610" y="523" on="1"/>
        <pt x="610" y="578" on="0"/>
      </contour>
    </TTGlyph>
    <TTGlyph name="Scaron" xMin="81" yMin="-216" xMax="758" yMax="860">
      <component glyphName="S" x="0" y="0" flags="0x1004"/>
      <component glyphName="caron" x="305" y="207" flags="0x1004"/>
    </TTGlyph>
    <TTGlyph name="T" xMin="45" yMin="-162" xMax="1063" yMax="664">
      <contour>
        <pt x="187" y="203" on="0"/>
        <pt x="145" y="289" on="0"/>
        <pt x="145" y="397" on="0"/>
        <pt x="179" y="489" on="0"/>
        <pt x="246" y="564" on="0"/>
        <pt x="358" y="609" on="0"/>
        <pt x="484" y="609" on="0"/>
        <pt x="586" y="590" on="0"/>
        <pt x="644" y="569" on="0"/>
        <pt x="689" y="550" on="0"/>
        <pt x="717" y="539" on="0"/>
        <pt x="723" y="537" on="0"/>
        <pt x="749" y="527" on="0"/>
        <pt x="758" y="525" on="0"/>
        <pt x="781" y="517" on="0"/>
        <pt x="794" y="515" on="0"/>
        <pt x="816" y="510" on="0"/>
        <pt x="832" y="509" on="0"/>
        <pt x="854" y="507" on="0"/>
        <pt x="864" y="507" on="1"/>
        <pt x="913" y="507" on="0"/>
        <pt x="986" y="540" on="0"/>
        <pt x="1019" y="580" on="0"/>
        <pt x="1029" y="606" on="1"/>
        <pt x="1041" y="638" on="0"/>
        <pt x="1041" y="664" on="1"/>
        <pt x="1063" y="664" on="1"/>
        <pt x="1063" y="640" on="0"/>
        <pt x="1038" y="571" on="0"/>
        <pt x="1001" y="524" on="0"/>
        <pt x="919" y="486" on="0"/>
        <pt x="806" y="486" on="0"/>
        <pt x="749" y="504" on="1"/>
        <pt x="681" y="408" on="0"/>
        <pt x="606" y="117" on="1"/>
        <pt x="569" y="-29" on="0"/>
        <pt x="430" y="-162" on="0"/>
        <pt x="167" y="-162" on="0"/>
        <pt x="102" y="-82" on="1"/>
        <pt x="45" y="-11" on="0"/>
        <pt x="45" y="83" on="1"/>
        <pt x="45" y="95" on="0"/>
        <pt x="46" y="107" on="1"/>
        <pt x="69" y="107" on="1"/>
        <pt x="69" y="93" on="1"/>
        <pt x="69" y="24" on="0"/>
        <pt x="106" y="-42" on="1"/>
        <pt x="122" y="-70" on="0"/>
        <pt x="167" y="-111" on="0"/>
        <pt x="243" y="-139" on="0"/>
        <pt x="290" y="-139" on="1"/>
        <pt x="368" y="-139" on="0"/>
        <pt x="459" y="-13" on="0"/>
        <pt x="544" y="348" on="0"/>
        <pt x="633" y="503" on="0"/>
        <pt x="718" y="515" on="1"/>
        <pt x="692" y="525" on="0"/>
        <pt x="634" y="550" on="0"/>
        <pt x="581" y="569" on="0"/>
        <pt x="482" y="588" on="0"/>
        <pt x="360" y="588" on="0"/>
        <pt x="255" y="544" on="0"/>
        <pt x="226" y="508" on="1"/>
        <pt x="168" y="438" on="0"/>
        <pt x="168" y="346" on="1"/>
        <pt x="168" y="294" on="0"/>
        <pt x="206" y="215" on="0"/>
        <pt x="233" y="196" on="1"/>
        <pt x="288" y="159" on="0"/>
        <pt x="333" y="154" on="1"/>
        <pt x="352" y="152" on="1"/>
        <pt x="346" y="130" on="1"/>
        <pt x="321" y="130" on="0"/>
        <pt x="242" y="161" on="0"/>
      </contour>
    </TTGlyph>
    <TTGlyph name="Thorn" xMin="-28" yMin="-153" xMax="621" yMax="710">
      <contour>
        <pt x="595" y="394" on="1"/>
        <pt x="595" y="482" on="0"/>
        <pt x="462" y="588" on="0"/>
        <pt x="327" y="590" on="1"/>
        <pt x="290" y="318" on="0"/>
        <pt x="248" y="103" on="1"/>
        <pt x="595" y="153" on="0"/>
      </contour>
      <contour>
        <pt x="-28" y="-153" on="1"/>
        <pt x="-28" y="-128" on="1"/>
        <pt x="7" y="-128" on="0"/>
        <pt x="52" y="-106" on="0"/>
        <pt x="79" y="-52" on="0"/>
        <pt x="88" y="-18" on="0"/>
        <pt x="96" y="29" on="0"/>
        <pt x="97" y="32" on="1"/>
        <pt x="183" y="525" on="1"/>
        <pt x="215" y="707" on="0"/>
        <pt x="380" y="710" on="1"/>
        <pt x="380" y="684" on="1"/>
        <pt x="355" y="681" on="0"/>
        <pt x="336" y="647" on="0"/>
        <pt x="329" y="609" on="1"/>
        <pt x="412" y="608" on="0"/>
        <pt x="531" y="569" on="0"/>
        <pt x="562" y="537" on="1"/>
        <pt x="621" y="476" on="0"/>
        <pt x="621" y="394" on="1"/>
        <pt x="621" y="331" on="0"/>
        <pt x="574" y="228" on="0"/>
        <pt x="502" y="162" on="0"/>
        <pt x="450" y="138" on="1"/>
        <pt x="364" y="97" on="0"/>
        <pt x="243" y="80" on="1"/>
        <pt x="224" y="-21" on="0"/>
        <pt x="70" y="-153" on="0"/>
      </contour>
    </TTGlyph>
    <TTGlyph name="U" xMin="85" yMin="-47" xMax="922" yMax="665">
      <contour>
        <pt x="486" y="553" on="1"/>
        <pt x="407" y="587" on="0"/>
        <pt x="222" y="587" on="0"/>
        <pt x="107" y="469" on="0"/>
        <pt x="107" y="374" on="1"/>
        <pt x="85" y="374" on="1"/>
        <pt x="85" y="478" on="0"/>
        <pt x="213" y="609" on="0"/>
        <pt x="313" y="609" on="1"/>
        <pt x="393" y="609" on="0"/>
        <pt x="486" y="578" on="1"/>
        <pt x="593" y="539" on="0"/>
        <pt x="718" y="539" on="1"/>
        <pt x="718" y="518" on="1"/>
        <pt x="643" y="518" on="0"/>
        <pt x="598" y="525" on="1"/>
        <pt x="586" y="475" on="0"/>
        <pt x="540" y="298" on="0"/>
        <pt x="522" y="205" on="0"/>
        <pt x="522" y="107" on="0"/>
        <pt x="589" y="44" on="0"/>
        <pt x="695" y="44" on="0"/>
        <pt x="766" y="115" on="0"/>
        <pt x="783" y="157" on="1"/>
        <pt x="901" y="665" on="1"/>
        <pt x="922" y="665" on="1"/>
        <pt x="782" y="64" on="1"/>
        <pt x="773" y="27" on="0"/>
        <pt x="773" y="14" on="1"/>
        <pt x="773" y="-28" on="0"/>
        <pt x="812" y="-28" on="1"/>
        <pt x="840" y="-28" on="0"/>
        <pt x="861" y="1" on="1"/>
        <pt x="875" y="-11" on="1"/>
        <pt x="868" y="-24" on="0"/>
        <pt x="832" y="-47" on="0"/>
        <pt x="781" y="-47" on="0"/>
        <pt x="752" y="-13" on="0"/>
        <pt x="752" y="11" on="1"/>
        <pt x="764" y="77" on="1"/>
        <pt x="769" y="100" on="1"/>
        <pt x="742" y="58" on="0"/>
        <pt x="651" y="-9" on="0"/>
        <pt x="596" y="-9" on="1"/>
        <pt x="504" y="-9" on="0"/>
        <pt x="406" y="88" on="0"/>
        <pt x="406" y="171" on="1"/>
        <pt x="406" y="237" on="0"/>
        <pt x="434" y="351" on="0"/>
        <pt x="474" y="504" on="0"/>
      </contour>
    </TTGlyph>
    <TTGlyph name="Uacute" xMin="85" yMin="-47" xMax="922" yMax="764">
      <contour>
        <pt x="695" y="44" on="0"/>
        <pt x="766" y="115" on="0"/>
        <pt x="783" y="157" on="1"/>
        <pt x="901" y="665" on="1"/>
        <pt x="922" y="665" on="1"/>
        <pt x="782" y="64" on="1"/>
        <pt x="773" y="14" on="1"/>
        <pt x="773" y="-28" on="0"/>
        <pt x="812" y="-28" on="1"/>
        <pt x="843" y="-28" on="0"/>
        <pt x="861" y="1" on="1"/>
        <pt x="875" y="-11" on="1"/>
        <pt x="869" y="-20" on="1"/>
        <pt x="863" y="-29" on="0"/>
        <pt x="832" y="-47" on="0"/>
        <pt x="781" y="-47" on="0"/>
        <pt x="752" y="-13" on="0"/>
        <pt x="752" y="29" on="0"/>
        <pt x="764" y="77" on="1"/>
        <pt x="769" y="100" on="1"/>
        <pt x="742" y="58" on="0"/>
        <pt x="651" y="-9" on="0"/>
        <pt x="596" y="-9" on="1"/>
        <pt x="504" y="-9" on="0"/>
        <pt x="406" y="88" on="0"/>
        <pt x="406" y="237" on="0"/>
        <pt x="426" y="320" on="1"/>
        <pt x="434" y="351" on="0"/>
        <pt x="474" y="504" on="0"/>
        <pt x="486" y="553" on="1"/>
        <pt x="407" y="587" on="0"/>
        <pt x="308" y="587" on="1"/>
        <pt x="222" y="587" on="0"/>
        <pt x="107" y="469" on="0"/>
        <pt x="107" y="374" on="1"/>
        <pt x="85" y="374" on="1"/>
        <pt x="85" y="478" on="0"/>
        <pt x="213" y="609" on="0"/>
        <pt x="313" y="609" on="1"/>
        <pt x="393" y="609" on="0"/>
        <pt x="486" y="578" on="1"/>
        <pt x="593" y="539" on="0"/>
        <pt x="718" y="539" on="1"/>
        <pt x="718" y="518" on="1"/>
        <pt x="643" y="518" on="0"/>
        <pt x="598" y="525" on="1"/>
        <pt x="586" y="475" on="0"/>
        <pt x="540" y="298" on="0"/>
        <pt x="522" y="205" on="0"/>
        <pt x="522" y="107" on="0"/>
        <pt x="589" y="44" on="0"/>
      </contour>
      <contour>
        <pt x="696" y="658" on="1"/>
        <pt x="749" y="764" on="1"/>
        <pt x="775" y="754" on="1"/>
        <pt x="722" y="648" on="1"/>
      </contour>
    </TTGlyph>
    <TTGlyph name="Ucircumflex" xMin="85" yMin="-47" xMax="922" yMax="844">
      <component glyphName="U" x="0" y="0" flags="0x1004"/>
      <component glyphName="circumflex" x="495" y="191" flags="0x1004"/>
    </TTGlyph>
    <TTGlyph name="Udieresis" xMin="85" yMin="-47" xMax="922" yMax="765">
      <contour>
        <pt x="695" y="44" on="0"/>
        <pt x="766" y="115" on="0"/>
        <pt x="783" y="157" on="1"/>
        <pt x="901" y="665" on="1"/>
        <pt x="922" y="665" on="1"/>
        <pt x="782" y="64" on="1"/>
        <pt x="773" y="14" on="1"/>
        <pt x="773" y="-28" on="0"/>
        <pt x="812" y="-28" on="1"/>
        <pt x="843" y="-28" on="0"/>
        <pt x="861" y="1" on="1"/>
        <pt x="875" y="-11" on="1"/>
        <pt x="869" y="-20" on="1"/>
        <pt x="863" y="-29" on="0"/>
        <pt x="832" y="-47" on="0"/>
        <pt x="781" y="-47" on="0"/>
        <pt x="752" y="-13" on="0"/>
        <pt x="752" y="29" on="0"/>
        <pt x="764" y="77" on="1"/>
        <pt x="769" y="100" on="1"/>
        <pt x="742" y="58" on="0"/>
        <pt x="651" y="-9" on="0"/>
        <pt x="596" y="-9" on="1"/>
        <pt x="504" y="-9" on="0"/>
        <pt x="406" y="88" on="0"/>
        <pt x="406" y="237" on="0"/>
        <pt x="426" y="320" on="1"/>
        <pt x="434" y="351" on="0"/>
        <pt x="474" y="504" on="0"/>
        <pt x="486" y="553" on="1"/>
        <pt x="407" y="587" on="0"/>
        <pt x="308" y="587" on="1"/>
        <pt x="222" y="587" on="0"/>
        <pt x="107" y="469" on="0"/>
        <pt x="107" y="374" on="1"/>
        <pt x="85" y="374" on="1"/>
        <pt x="85" y="478" on="0"/>
        <pt x="213" y="609" on="0"/>
        <pt x="313" y="609" on="1"/>
        <pt x="393" y="609" on="0"/>
        <pt x="486" y="578" on="1"/>
        <pt x="593" y="539" on="0"/>
        <pt x="718" y="539" on="1"/>
        <pt x="718" y="518" on="1"/>
        <pt x="643" y="518" on="0"/>
        <pt x="598" y="525" on="1"/>
        <pt x="586" y="475" on="0"/>
        <pt x="540" y="298" on="0"/>
        <pt x="522" y="205" on="0"/>
        <pt x="522" y="107" on="0"/>
        <pt x="589" y="44" on="0"/>
      </contour>
      <contour>
        <pt x="719" y="648" on="0"/>
        <pt x="686" y="681" on="0"/>
        <pt x="686" y="730" on="0"/>
        <pt x="720" y="765" on="0"/>
        <pt x="768" y="765" on="0"/>
        <pt x="803" y="730" on="0"/>
        <pt x="803" y="682" on="0"/>
        <pt x="768" y="648" on="0"/>
      </contour>
      <contour>
        <pt x="559" y="648" on="0"/>
        <pt x="526" y="681" on="0"/>
        <pt x="526" y="730" on="0"/>
        <pt x="560" y="765" on="0"/>
        <pt x="608" y="765" on="0"/>
        <pt x="643" y="730" on="0"/>
        <pt x="643" y="682" on="0"/>
        <pt x="608" y="648" on="0"/>
      </contour>
    </TTGlyph>
    <TTGlyph name="Ugrave" xMin="85" yMin="-47" xMax="922" yMax="764">
      <component glyphName="U" x="0" y="0" flags="0x1004"/>
      <component glyphName="grave" x="666" y="190" flags="0x1004"/>
    </TTGlyph>
    <TTGlyph name="V" xMin="107" yMin="-84" xMax="1023" yMax="739">
      <contour>
        <pt x="628" y="595" on="1"/>
        <pt x="721" y="595" on="0"/>
        <pt x="789" y="633" on="1"/>
        <pt x="801" y="614" on="1"/>
        <pt x="738" y="580" on="0"/>
        <pt x="666" y="575" on="1"/>
        <pt x="611" y="509" on="0"/>
        <pt x="533" y="291" on="0"/>
        <pt x="533" y="77" on="0"/>
        <pt x="611" y="-9" on="0"/>
        <pt x="677" y="-9" on="1"/>
        <pt x="771" y="-9" on="0"/>
        <pt x="851" y="89" on="1"/>
        <pt x="910" y="165" on="0"/>
        <pt x="983" y="357" on="0"/>
        <pt x="1001" y="516" on="0"/>
        <pt x="1001" y="669" on="0"/>
        <pt x="985" y="734" on="1"/>
        <pt x="1006" y="739" on="1"/>
        <pt x="1023" y="674" on="0"/>
        <pt x="1023" y="516" on="0"/>
        <pt x="1004" y="352" on="0"/>
        <pt x="929" y="154" on="0"/>
        <pt x="868" y="76" on="1"/>
        <pt x="744" y="-84" on="0"/>
        <pt x="594" y="-84" on="1"/>
        <pt x="508" y="-84" on="0"/>
        <pt x="426" y="29" on="0"/>
        <pt x="426" y="187" on="0"/>
        <pt x="473" y="349" on="0"/>
        <pt x="510" y="410" on="1"/>
        <pt x="573" y="516" on="0"/>
        <pt x="631" y="574" on="1"/>
        <pt x="603" y="574" on="0"/>
        <pt x="543" y="580" on="1"/>
        <pt x="426" y="587" on="1"/>
        <pt x="286" y="587" on="0"/>
        <pt x="128" y="448" on="0"/>
        <pt x="128" y="324" on="1"/>
        <pt x="128" y="277" on="0"/>
        <pt x="160" y="202" on="0"/>
        <pt x="201" y="162" on="0"/>
        <pt x="227" y="148" on="1"/>
        <pt x="259" y="130" on="0"/>
        <pt x="289" y="123" on="1"/>
        <pt x="284" y="102" on="1"/>
        <pt x="264" y="102" on="0"/>
        <pt x="193" y="142" on="0"/>
        <pt x="144" y="187" on="0"/>
        <pt x="107" y="271" on="0"/>
        <pt x="107" y="324" on="1"/>
        <pt x="107" y="455" on="0"/>
        <pt x="279" y="609" on="0"/>
        <pt x="426" y="609" on="1"/>
        <pt x="460" y="609" on="0"/>
        <pt x="546" y="602" on="1"/>
        <pt x="587" y="595" on="0"/>
      </contour>
    </TTGlyph>
    <TTGlyph name="W" xMin="106" yMin="-150" xMax="1330" yMax="732">
      <contour>
        <pt x="628" y="595" on="1"/>
        <pt x="725" y="595" on="0"/>
        <pt x="794" y="633" on="1"/>
        <pt x="805" y="615" on="1"/>
        <pt x="740" y="577" on="0"/>
        <pt x="662" y="574" on="1"/>
        <pt x="599" y="514" on="0"/>
        <pt x="512" y="234" on="0"/>
        <pt x="512" y="76" on="1"/>
        <pt x="512" y="-21" on="0"/>
        <pt x="583" y="-101" on="0"/>
        <pt x="631" y="-101" on="1"/>
        <pt x="663" y="-101" on="0"/>
        <pt x="723" y="-72" on="0"/>
        <pt x="756" y="-44" on="0"/>
        <pt x="783" y="-17" on="1"/>
        <pt x="767" y="31" on="0"/>
        <pt x="767" y="234" on="0"/>
        <pt x="837" y="469" on="0"/>
        <pt x="953" y="619" on="0"/>
        <pt x="1015" y="619" on="1"/>
        <pt x="1045" y="619" on="0"/>
        <pt x="1076" y="587" on="0"/>
        <pt x="1076" y="545" on="1"/>
        <pt x="1076" y="460" on="0"/>
        <pt x="967" y="178" on="0"/>
        <pt x="881" y="62" on="1"/>
        <pt x="890" y="-15" on="0"/>
        <pt x="970" y="-89" on="0"/>
        <pt x="1032" y="-89" on="1"/>
        <pt x="1146" y="-89" on="0"/>
        <pt x="1237" y="129" on="1"/>
        <pt x="1307" y="297" on="0"/>
        <pt x="1307" y="649" on="0"/>
        <pt x="1239" y="717" on="1"/>
        <pt x="1254" y="732" on="1"/>
        <pt x="1329" y="657" on="0"/>
        <pt x="1329" y="470" on="1"/>
        <pt x="1329" y="296" on="0"/>
        <pt x="1258" y="120" on="1"/>
        <pt x="1146" y="-150" on="0"/>
        <pt x="953" y="-150" on="1"/>
        <pt x="854" y="-150" on="0"/>
        <pt x="808" y="-71" on="1"/>
        <pt x="796" y="-51" on="0"/>
        <pt x="791" y="-41" on="1"/>
        <pt x="685" y="-150" on="0"/>
        <pt x="557" y="-150" on="1"/>
        <pt x="474" y="-150" on="0"/>
        <pt x="393" y="-39" on="0"/>
        <pt x="393" y="119" on="0"/>
        <pt x="434" y="276" on="0"/>
        <pt x="488" y="388" on="0"/>
        <pt x="526" y="442" on="1"/>
        <pt x="578" y="519" on="0"/>
        <pt x="633" y="574" on="1"/>
        <pt x="600" y="574" on="0"/>
        <pt x="547" y="581" on="1"/>
        <pt x="436" y="587" on="0"/>
        <pt x="428" y="587" on="1"/>
        <pt x="288" y="587" on="0"/>
        <pt x="128" y="446" on="0"/>
        <pt x="128" y="322" on="1"/>
        <pt x="128" y="264" on="0"/>
        <pt x="155" y="213" on="1"/>
        <pt x="169" y="186" on="0"/>
        <pt x="216" y="151" on="1"/>
        <pt x="226" y="143" on="0"/>
        <pt x="270" y="125" on="0"/>
        <pt x="271" y="125" on="1"/>
        <pt x="288" y="120" on="1"/>
        <pt x="285" y="99" on="1"/>
        <pt x="266" y="99" on="0"/>
        <pt x="194" y="139" on="0"/>
        <pt x="143" y="184" on="0"/>
        <pt x="106" y="269" on="0"/>
        <pt x="106" y="322" on="1"/>
        <pt x="106" y="454" on="0"/>
        <pt x="280" y="609" on="0"/>
        <pt x="428" y="609" on="1"/>
        <pt x="488" y="609" on="0"/>
        <pt x="588" y="595" on="0"/>
      </contour>
      <contour>
        <pt x="878" y="112" on="1"/>
        <pt x="878" y="97" on="1"/>
        <pt x="888" y="111" on="0"/>
        <pt x="904" y="137" on="1"/>
        <pt x="969" y="238" on="0"/>
        <pt x="1053" y="470" on="0"/>
        <pt x="1053" y="545" on="1"/>
        <pt x="1053" y="597" on="0"/>
        <pt x="1015" y="597" on="1"/>
        <pt x="1000" y="597" on="0"/>
        <pt x="982" y="589" on="1"/>
        <pt x="949" y="558" on="0"/>
        <pt x="918" y="466" on="1"/>
        <pt x="878" y="348" on="0"/>
      </contour>
    </TTGlyph>
    <TTGlyph name="X" xMin="-45" yMin="-273" xMax="1125" yMax="779">
      <contour>
        <pt x="494" y="381" on="1"/>
        <pt x="494" y="500" on="0"/>
        <pt x="429" y="588" on="0"/>
        <pt x="365" y="588" on="1"/>
        <pt x="280" y="588" on="0"/>
        <pt x="208" y="524" on="1"/>
        <pt x="172" y="492" on="0"/>
        <pt x="129" y="385" on="0"/>
        <pt x="129" y="269" on="0"/>
        <pt x="162" y="191" on="0"/>
        <pt x="185" y="171" on="1"/>
        <pt x="234" y="128" on="0"/>
        <pt x="270" y="120" on="1"/>
        <pt x="287" y="117" on="1"/>
        <pt x="280" y="98" on="1"/>
        <pt x="263" y="103" on="0"/>
        <pt x="240" y="110" on="0"/>
        <pt x="182" y="144" on="0"/>
        <pt x="141" y="187" on="0"/>
        <pt x="108" y="268" on="0"/>
        <pt x="108" y="318" on="1"/>
        <pt x="108" y="447" on="0"/>
        <pt x="257" y="609" on="0"/>
        <pt x="376" y="609" on="1"/>
        <pt x="596" y="609" on="0"/>
        <pt x="596" y="400" on="1"/>
        <pt x="596" y="329" on="0"/>
        <pt x="580" y="228" on="0"/>
        <pt x="578" y="223" on="1"/>
        <pt x="624" y="356" on="0"/>
        <pt x="771" y="608" on="0"/>
        <pt x="949" y="779" on="0"/>
        <pt x="1023" y="779" on="1"/>
        <pt x="1079" y="779" on="0"/>
        <pt x="1125" y="730" on="0"/>
        <pt x="1125" y="682" on="1"/>
        <pt x="1102" y="682" on="1"/>
        <pt x="1097" y="726" on="0"/>
        <pt x="1060" y="755" on="0"/>
        <pt x="1023" y="755" on="1"/>
        <pt x="962" y="755" on="0"/>
        <pt x="803" y="603" on="0"/>
        <pt x="673" y="395" on="0"/>
        <pt x="582" y="172" on="0"/>
        <pt x="582" y="103" on="1"/>
        <pt x="582" y="0" on="0"/>
        <pt x="651" y="-82" on="0"/>
        <pt x="768" y="-82" on="0"/>
        <pt x="819" y="-55" on="1"/>
        <pt x="819" y="-78" on="1"/>
        <pt x="766" y="-103" on="0"/>
        <pt x="704" y="-103" on="1"/>
        <pt x="475" y="-103" on="0"/>
        <pt x="475" y="125" on="1"/>
        <pt x="475" y="173" on="0"/>
        <pt x="483" y="221" on="1"/>
        <pt x="390" y="-1" on="0"/>
        <pt x="160" y="-273" on="0"/>
        <pt x="57" y="-273" on="1"/>
        <pt x="1" y="-273" on="0"/>
        <pt x="-45" y="-224" on="0"/>
        <pt x="-45" y="-176" on="1"/>
        <pt x="-22" y="-176" on="1"/>
        <pt x="-17" y="-220" on="0"/>
        <pt x="20" y="-249" on="0"/>
        <pt x="57" y="-249" on="1"/>
        <pt x="141" y="-249" on="0"/>
        <pt x="352" y="-15" on="0"/>
        <pt x="494" y="285" on="0"/>
      </contour>
    </TTGlyph>
    <TTGlyph name="Y" xMin="106" yMin="-168" xMax="1123" yMax="779">
      <contour>
        <pt x="451" y="194" on="0"/>
        <pt x="488" y="364" on="0"/>
        <pt x="488" y="506" on="0"/>
        <pt x="422" y="588" on="0"/>
        <pt x="363" y="588" on="1"/>
        <pt x="278" y="588" on="0"/>
        <pt x="206" y="524" on="1"/>
        <pt x="170" y="492" on="0"/>
        <pt x="127" y="385" on="0"/>
        <pt x="127" y="269" on="0"/>
        <pt x="160" y="191" on="0"/>
        <pt x="183" y="171" on="1"/>
        <pt x="232" y="128" on="0"/>
        <pt x="268" y="120" on="1"/>
        <pt x="285" y="117" on="1"/>
        <pt x="278" y="98" on="1"/>
        <pt x="261" y="103" on="0"/>
        <pt x="238" y="110" on="0"/>
        <pt x="180" y="144" on="0"/>
        <pt x="139" y="187" on="0"/>
        <pt x="106" y="268" on="0"/>
        <pt x="106" y="318" on="1"/>
        <pt x="106" y="447" on="0"/>
        <pt x="255" y="609" on="0"/>
        <pt x="374" y="609" on="1"/>
        <pt x="594" y="609" on="0"/>
        <pt x="594" y="400" on="1"/>
        <pt x="594" y="294" on="0"/>
        <pt x="576" y="240" on="1"/>
        <pt x="825" y="779" on="0"/>
        <pt x="1021" y="779" on="1"/>
        <pt x="1077" y="779" on="0"/>
        <pt x="1123" y="730" on="0"/>
        <pt x="1123" y="682" on="1"/>
        <pt x="1100" y="682" on="1"/>
        <pt x="1095" y="726" on="0"/>
        <pt x="1058" y="755" on="0"/>
        <pt x="1021" y="755" on="1"/>
        <pt x="959" y="755" on="0"/>
        <pt x="814" y="624" on="0"/>
        <pt x="750" y="522" on="1"/>
        <pt x="616" y="311" on="0"/>
        <pt x="539" y="86" on="1"/>
        <pt x="477" y="-93" on="0"/>
        <pt x="452" y="-168" on="1"/>
        <pt x="318" y="-168" on="1"/>
        <pt x="338" y="-124" on="0"/>
        <pt x="406" y="54" on="0"/>
      </contour>
    </TTGlyph>
    <TTGlyph name="Yacute" xMin="106" yMin="-168" xMax="1123" yMax="781">
      <contour>
        <pt x="1021" y="755" on="1"/>
        <pt x="959" y="755" on="0"/>
        <pt x="814" y="624" on="0"/>
        <pt x="685" y="420" on="0"/>
        <pt x="576" y="194" on="0"/>
        <pt x="477" y="-93" on="0"/>
        <pt x="452" y="-168" on="1"/>
        <pt x="318" y="-168" on="1"/>
        <pt x="360" y="-68" on="1"/>
        <pt x="403" y="33" on="0"/>
        <pt x="488" y="329" on="0"/>
        <pt x="488" y="506" on="0"/>
        <pt x="422" y="588" on="0"/>
        <pt x="363" y="588" on="1"/>
        <pt x="278" y="588" on="0"/>
        <pt x="206" y="524" on="1"/>
        <pt x="170" y="492" on="0"/>
        <pt x="127" y="385" on="0"/>
        <pt x="127" y="269" on="0"/>
        <pt x="161" y="191" on="0"/>
        <pt x="203" y="151" on="0"/>
        <pt x="261" y="121" on="0"/>
        <pt x="285" y="117" on="1"/>
        <pt x="278" y="98" on="1"/>
        <pt x="256" y="104" on="0"/>
        <pt x="223" y="119" on="0"/>
        <pt x="149" y="166" on="0"/>
        <pt x="106" y="257" on="0"/>
        <pt x="106" y="318" on="1"/>
        <pt x="106" y="447" on="0"/>
        <pt x="255" y="609" on="0"/>
        <pt x="374" y="609" on="1"/>
        <pt x="594" y="609" on="0"/>
        <pt x="594" y="400" on="1"/>
        <pt x="594" y="294" on="0"/>
        <pt x="576" y="240" on="1"/>
        <pt x="825" y="779" on="0"/>
        <pt x="1021" y="779" on="1"/>
        <pt x="1077" y="779" on="0"/>
        <pt x="1123" y="730" on="0"/>
        <pt x="1123" y="682" on="1"/>
        <pt x="1100" y="682" on="1"/>
        <pt x="1095" y="726" on="0"/>
        <pt x="1058" y="755" on="0"/>
      </contour>
      <contour>
        <pt x="632" y="675" on="1"/>
        <pt x="685" y="781" on="1"/>
        <pt x="711" y="771" on="1"/>
        <pt x="658" y="665" on="1"/>
      </contour>
    </TTGlyph>
    <TTGlyph name="Ydieresis" xMin="106" yMin="-168" xMax="1123" yMax="779">
      <component glyphName="Y" x="0" y="0" flags="0x1004"/>
      <component glyphName="dieresis" x="367" y="103" flags="0x1004"/>
    </TTGlyph>
    <TTGlyph name="Z" xMin="21" yMin="-203" xMax="769" yMax="643">
      <contour>
        <pt x="698" y="-45" on="1"/>
        <pt x="719" y="-45" on="1"/>
        <pt x="719" y="-203" on="0"/>
        <pt x="554" y="-203" on="1"/>
        <pt x="502" y="-201" on="0"/>
        <pt x="376" y="-142" on="0"/>
        <pt x="278" y="-74" on="0"/>
        <pt x="152" y="-17" on="0"/>
        <pt x="100" y="-17" on="1"/>
        <pt x="79" y="-17" on="0"/>
        <pt x="51" y="-30" on="0"/>
        <pt x="48" y="-36" on="1"/>
        <pt x="44" y="-42" on="1"/>
        <pt x="21" y="-42" on="1"/>
        <pt x="25" y="13" on="0"/>
        <pt x="87" y="73" on="0"/>
        <pt x="139" y="73" on="1"/>
        <pt x="181" y="73" on="0"/>
        <pt x="214" y="63" on="1"/>
        <pt x="224" y="60" on="1"/>
        <pt x="557" y="397" on="1"/>
        <pt x="506" y="411" on="0"/>
        <pt x="273" y="540" on="0"/>
        <pt x="178" y="540" on="0"/>
        <pt x="154" y="518" on="1"/>
        <pt x="154" y="504" on="1"/>
        <pt x="154" y="450" on="0"/>
        <pt x="189" y="422" on="1"/>
        <pt x="220" y="397" on="0"/>
        <pt x="243" y="392" on="1"/>
        <pt x="253" y="389" on="1"/>
        <pt x="248" y="372" on="1"/>
        <pt x="240" y="374" on="0"/>
        <pt x="227" y="379" on="0"/>
        <pt x="209" y="385" on="0"/>
        <pt x="191" y="397" on="0"/>
        <pt x="172" y="411" on="0"/>
        <pt x="155" y="431" on="0"/>
        <pt x="148" y="442" on="1"/>
        <pt x="134" y="468" on="0"/>
        <pt x="134" y="504" on="1"/>
        <pt x="134" y="570" on="0"/>
        <pt x="213" y="643" on="0"/>
        <pt x="285" y="643" on="1"/>
        <pt x="324" y="643" on="0"/>
        <pt x="401" y="616" on="0"/>
        <pt x="442" y="591" on="0"/>
        <pt x="513" y="542" on="0"/>
        <pt x="547" y="521" on="0"/>
        <pt x="608" y="498" on="0"/>
        <pt x="681" y="498" on="0"/>
        <pt x="735" y="522" on="0"/>
        <pt x="740" y="534" on="1"/>
        <pt x="745" y="545" on="1"/>
        <pt x="769" y="546" on="1"/>
        <pt x="769" y="508" on="0"/>
        <pt x="748" y="443" on="0"/>
        <pt x="676" y="389" on="0"/>
        <pt x="617" y="389" on="1"/>
        <pt x="598" y="389" on="0"/>
        <pt x="580" y="392" on="1"/>
        <pt x="246" y="53" on="1"/>
        <pt x="291" y="36" on="0"/>
        <pt x="426" y="-52" on="0"/>
        <pt x="549" y="-110" on="0"/>
        <pt x="670" y="-110" on="0"/>
        <pt x="693" y="-87" on="1"/>
        <pt x="698" y="-65" on="0"/>
      </contour>
    </TTGlyph>
    <TTGlyph name="Zcaron" xMin="21" yMin="-203" xMax="771" yMax="808">
      <contour>
        <pt x="719" y="-45" on="1"/>
        <pt x="719" y="-203" on="0"/>
        <pt x="554" y="-203" on="1"/>
        <pt x="502" y="-201" on="0"/>
        <pt x="376" y="-142" on="0"/>
        <pt x="278" y="-74" on="0"/>
        <pt x="152" y="-17" on="0"/>
        <pt x="100" y="-17" on="1"/>
        <pt x="79" y="-17" on="0"/>
        <pt x="47" y="-33" on="0"/>
        <pt x="44" y="-42" on="1"/>
        <pt x="21" y="-42" on="1"/>
        <pt x="25" y="13" on="0"/>
        <pt x="87" y="73" on="0"/>
        <pt x="189" y="73" on="0"/>
        <pt x="224" y="60" on="1"/>
        <pt x="557" y="397" on="1"/>
        <pt x="506" y="411" on="0"/>
        <pt x="273" y="540" on="0"/>
        <pt x="178" y="540" on="0"/>
        <pt x="154" y="518" on="1"/>
        <pt x="154" y="504" on="1"/>
        <pt x="154" y="477" on="0"/>
        <pt x="164" y="456" on="1"/>
        <pt x="189" y="405" on="0"/>
        <pt x="253" y="389" on="1"/>
        <pt x="248" y="372" on="1"/>
        <pt x="240" y="374" on="0"/>
        <pt x="227" y="379" on="0"/>
        <pt x="209" y="385" on="0"/>
        <pt x="191" y="397" on="0"/>
        <pt x="172" y="411" on="0"/>
        <pt x="155" y="431" on="0"/>
        <pt x="134" y="468" on="0"/>
        <pt x="134" y="504" on="1"/>
        <pt x="134" y="570" on="0"/>
        <pt x="213" y="643" on="0"/>
        <pt x="285" y="643" on="1"/>
        <pt x="324" y="643" on="0"/>
        <pt x="401" y="616" on="0"/>
        <pt x="442" y="591" on="0"/>
        <pt x="513" y="542" on="0"/>
        <pt x="547" y="521" on="0"/>
        <pt x="608" y="498" on="0"/>
        <pt x="692" y="498" on="0"/>
        <pt x="718" y="514" on="1"/>
        <pt x="729" y="521" on="0"/>
        <pt x="745" y="541" on="0"/>
        <pt x="745" y="545" on="1"/>
        <pt x="769" y="546" on="1"/>
        <pt x="769" y="508" on="0"/>
        <pt x="748" y="443" on="0"/>
        <pt x="676" y="389" on="0"/>
        <pt x="617" y="389" on="1"/>
        <pt x="598" y="389" on="0"/>
        <pt x="580" y="392" on="1"/>
        <pt x="246" y="53" on="1"/>
        <pt x="291" y="36" on="0"/>
        <pt x="426" y="-52" on="0"/>
        <pt x="549" y="-110" on="0"/>
        <pt x="670" y="-110" on="0"/>
        <pt x="693" y="-87" on="1"/>
        <pt x="698" y="-65" on="0"/>
        <pt x="698" y="-45" on="1"/>
      </contour>
      <contour>
        <pt x="598" y="638" on="1"/>
        <pt x="749" y="807" on="1"/>
        <pt x="771" y="790" on="1"/>
        <pt x="608" y="610" on="1"/>
        <pt x="581" y="610" on="1"/>
        <pt x="485" y="796" on="1"/>
        <pt x="510" y="808" on="1"/>
      </contour>
    </TTGlyph>
    <TTGlyph name="a" xMin="59" yMin="-9" xMax="491" yMax="389">
      <contour>
        <pt x="412" y="-9" on="1"/>
        <pt x="324" y="-9" on="0"/>
        <pt x="316" y="68" on="1"/>
        <pt x="272" y="-9" on="0"/>
        <pt x="138" y="-9" on="0"/>
        <pt x="59" y="72" on="0"/>
        <pt x="59" y="145" on="1"/>
        <pt x="59" y="259" on="0"/>
        <pt x="171" y="389" on="0"/>
        <pt x="260" y="389" on="1"/>
        <pt x="333" y="389" on="0"/>
        <pt x="357" y="320" on="1"/>
        <pt x="362" y="350" on="0"/>
        <pt x="368" y="380" on="1"/>
        <pt x="442" y="380" on="0"/>
        <pt x="478" y="386" on="1"/>
        <pt x="491" y="389" on="1"/>
        <pt x="422" y="11" on="1"/>
        <pt x="452" y="14" on="0"/>
        <pt x="472" y="39" on="1"/>
        <pt x="487" y="27" on="1"/>
        <pt x="457" y="-9" on="0"/>
      </contour>
      <contour>
        <pt x="172" y="49" on="0"/>
        <pt x="195" y="14" on="0"/>
        <pt x="243" y="14" on="0"/>
        <pt x="268" y="40" on="1"/>
        <pt x="301" y="74" on="0"/>
        <pt x="321" y="126" on="1"/>
        <pt x="324" y="139" on="0"/>
        <pt x="341" y="238" on="0"/>
        <pt x="347" y="270" on="1"/>
        <pt x="344" y="308" on="0"/>
        <pt x="308" y="364" on="0"/>
        <pt x="281" y="364" on="1"/>
        <pt x="232" y="364" on="0"/>
        <pt x="172" y="189" on="0"/>
        <pt x="172" y="94" on="1"/>
      </contour>
    </TTGlyph>
    <TTGlyph name="aacute" xMin="59" yMin="-9" xMax="491" yMax="574">
      <component glyphName="a" x="0" y="0" flags="0x1004"/>
      <component glyphName="acute" x="241" y="0" flags="0x1004"/>
    </TTGlyph>
    <TTGlyph name="acircumflex" xMin="59" yMin="-9" xMax="491" yMax="633">
      <component glyphName="a" x="0" y="0" flags="0x1004"/>
      <component glyphName="circumflex" x="161" y="-20" flags="0x1004"/>
    </TTGlyph>
    <TTGlyph name="acute" xMin="33" yMin="458" xMax="112" yMax="574">
      <contour>
        <pt x="33" y="468" on="1"/>
        <pt x="86" y="574" on="1"/>
        <pt x="112" y="564" on="1"/>
        <pt x="59" y="458" on="1"/>
      </contour>
    </TTGlyph>
    <TTGlyph name="adieresis" xMin="59" yMin="-9" xMax="491" yMax="552">
      <component glyphName="a" x="0" y="0" flags="0x1004"/>
      <component glyphName="dieresis" x="74" y="-96" flags="0x1004"/>
    </TTGlyph>
    <TTGlyph name="ae" xMin="59" yMin="-9" xMax="667" yMax="389">
      <contour>
        <pt x="362" y="297" on="1"/>
        <pt x="419" y="389" on="0"/>
        <pt x="665" y="389" on="0"/>
        <pt x="665" y="288" on="1"/>
        <pt x="665" y="225" on="0"/>
        <pt x="546" y="160" on="0"/>
        <pt x="436" y="159" on="1"/>
        <pt x="434" y="123" on="0"/>
        <pt x="434" y="102" on="1"/>
        <pt x="434" y="57" on="0"/>
        <pt x="475" y="14" on="0"/>
        <pt x="537" y="14" on="0"/>
        <pt x="588" y="38" on="0"/>
        <pt x="618" y="71" on="0"/>
        <pt x="629" y="89" on="1"/>
        <pt x="649" y="122" on="0"/>
        <pt x="649" y="131" on="1"/>
        <pt x="667" y="123" on="1"/>
        <pt x="664" y="107" on="0"/>
        <pt x="634" y="54" on="0"/>
        <pt x="598" y="20" on="0"/>
        <pt x="528" y="-9" on="0"/>
        <pt x="485" y="-9" on="1"/>
        <pt x="353" y="-9" on="0"/>
        <pt x="327" y="88" on="1"/>
        <pt x="281" y="-9" on="0"/>
        <pt x="204" y="-9" on="1"/>
        <pt x="138" y="-9" on="0"/>
        <pt x="59" y="72" on="0"/>
        <pt x="59" y="145" on="1"/>
        <pt x="59" y="259" on="0"/>
        <pt x="171" y="389" on="0"/>
        <pt x="344" y="389" on="0"/>
      </contour>
      <contour>
        <pt x="172" y="49" on="0"/>
        <pt x="195" y="14" on="0"/>
        <pt x="243" y="14" on="0"/>
        <pt x="292" y="64" on="0"/>
        <pt x="313" y="105" on="0"/>
        <pt x="321" y="125" on="1"/>
        <pt x="321" y="135" on="1"/>
        <pt x="321" y="213" on="0"/>
        <pt x="347" y="270" on="1"/>
        <pt x="344" y="309" on="0"/>
        <pt x="308" y="364" on="0"/>
        <pt x="281" y="364" on="1"/>
        <pt x="232" y="364" on="0"/>
        <pt x="172" y="189" on="0"/>
        <pt x="172" y="94" on="1"/>
      </contour>
      <contour>
        <pt x="640" y="321" on="0"/>
        <pt x="601" y="364" on="0"/>
        <pt x="524" y="364" on="0"/>
        <pt x="451" y="272" on="0"/>
        <pt x="439" y="182" on="1"/>
        <pt x="640" y="183" on="0"/>
        <pt x="640" y="288" on="1"/>
      </contour>
    </TTGlyph>
    <TTGlyph name="agrave" xMin="59" yMin="-9" xMax="491" yMax="574">
      <contour>
        <pt x="412" y="-9" on="1"/>
        <pt x="324" y="-9" on="0"/>
        <pt x="316" y="68" on="1"/>
        <pt x="272" y="-9" on="0"/>
        <pt x="138" y="-9" on="0"/>
        <pt x="59" y="72" on="0"/>
        <pt x="59" y="145" on="1"/>
        <pt x="59" y="259" on="0"/>
        <pt x="171" y="389" on="0"/>
        <pt x="260" y="389" on="1"/>
        <pt x="333" y="389" on="0"/>
        <pt x="357" y="320" on="1"/>
        <pt x="362" y="350" on="0"/>
        <pt x="368" y="380" on="1"/>
        <pt x="442" y="380" on="0"/>
        <pt x="478" y="386" on="1"/>
        <pt x="491" y="389" on="1"/>
        <pt x="422" y="11" on="1"/>
        <pt x="452" y="14" on="0"/>
        <pt x="472" y="39" on="1"/>
        <pt x="487" y="27" on="1"/>
        <pt x="457" y="-9" on="0"/>
      </contour>
      <contour>
        <pt x="172" y="49" on="0"/>
        <pt x="195" y="14" on="0"/>
        <pt x="243" y="14" on="0"/>
        <pt x="268" y="40" on="1"/>
        <pt x="301" y="74" on="0"/>
        <pt x="321" y="126" on="1"/>
        <pt x="324" y="139" on="0"/>
        <pt x="341" y="238" on="0"/>
        <pt x="347" y="270" on="1"/>
        <pt x="344" y="308" on="0"/>
        <pt x="308" y="364" on="0"/>
        <pt x="281" y="364" on="1"/>
        <pt x="232" y="364" on="0"/>
        <pt x="172" y="189" on="0"/>
        <pt x="172" y="94" on="1"/>
      </contour>
      <contour>
        <pt x="258" y="574" on="1"/>
        <pt x="311" y="468" on="1"/>
        <pt x="285" y="458" on="1"/>
        <pt x="232" y="564" on="1"/>
      </contour>
    </TTGlyph>
    <TTGlyph name="ampersand" xMin="55" yMin="-55" xMax="761" yMax="609">
      <contour>
        <pt x="367" y="177" on="1"/>
        <pt x="448" y="147" on="0"/>
        <pt x="625" y="147" on="0"/>
        <pt x="743" y="268" on="0"/>
        <pt x="743" y="362" on="1"/>
        <pt x="761" y="362" on="1"/>
        <pt x="761" y="262" on="0"/>
        <pt x="642" y="134" on="0"/>
        <pt x="546" y="129" on="1"/>
        <pt x="494" y="3" on="0"/>
        <pt x="378" y="-39" on="1"/>
        <pt x="333" y="-55" on="0"/>
        <pt x="282" y="-55" on="1"/>
        <pt x="175" y="-55" on="0"/>
        <pt x="55" y="36" on="0"/>
        <pt x="55" y="182" on="0"/>
        <pt x="146" y="268" on="0"/>
        <pt x="208" y="285" on="1"/>
        <pt x="163" y="340" on="0"/>
        <pt x="163" y="491" on="0"/>
        <pt x="284" y="609" on="0"/>
        <pt x="398" y="609" on="1"/>
        <pt x="485" y="609" on="0"/>
        <pt x="578" y="548" on="0"/>
        <pt x="578" y="457" on="0"/>
        <pt x="531" y="362" on="0"/>
        <pt x="528" y="334" on="1"/>
        <pt x="507" y="334" on="1"/>
        <pt x="510" y="364" on="0"/>
        <pt x="557" y="458" on="0"/>
        <pt x="557" y="539" on="0"/>
        <pt x="472" y="591" on="0"/>
        <pt x="341" y="591" on="0"/>
        <pt x="249" y="490" on="0"/>
        <pt x="249" y="386" on="1"/>
        <pt x="249" y="330" on="0"/>
        <pt x="263" y="306" on="1"/>
        <pt x="315" y="323" on="0"/>
        <pt x="453" y="323" on="0"/>
        <pt x="453" y="283" on="1"/>
        <pt x="453" y="259" on="0"/>
        <pt x="401" y="228" on="0"/>
        <pt x="352" y="228" on="1"/>
        <pt x="275" y="228" on="0"/>
        <pt x="228" y="265" on="1"/>
        <pt x="210" y="246" on="0"/>
        <pt x="190" y="220" on="0"/>
        <pt x="165" y="146" on="0"/>
        <pt x="165" y="42" on="0"/>
        <pt x="253" y="-35" on="0"/>
        <pt x="342" y="-35" on="0"/>
        <pt x="413" y="-8" on="0"/>
        <pt x="460" y="29" on="0"/>
        <pt x="480" y="54" on="1"/>
        <pt x="505" y="85" on="0"/>
        <pt x="524" y="129" on="1"/>
        <pt x="446" y="130" on="0"/>
        <pt x="360" y="160" on="1"/>
        <pt x="359" y="160" on="1"/>
      </contour>
      <contour>
        <pt x="283" y="270" on="0"/>
        <pt x="324" y="246" on="0"/>
        <pt x="392" y="246" on="0"/>
        <pt x="433" y="267" on="0"/>
        <pt x="433" y="281" on="1"/>
        <pt x="433" y="305" on="0"/>
        <pt x="325" y="305" on="0"/>
        <pt x="271" y="289" on="1"/>
        <pt x="273" y="284" on="0"/>
      </contour>
    </TTGlyph>
    <TTGlyph name="aring" xMin="59" yMin="-9" xMax="491" yMax="533">
      <component glyphName="a" x="0" y="0" flags="0x1004"/>
      <component glyphName="ring" x="202" y="-228" flags="0x1004"/>
    </TTGlyph>
    <TTGlyph name="asciicircum" xMin="22" yMin="248" xMax="308" yMax="446">
      <contour>
        <pt x="195" y="418" on="1"/>
        <pt x="44" y="249" on="1"/>
        <pt x="22" y="266" on="1"/>
        <pt x="185" y="446" on="1"/>
        <pt x="212" y="446" on="1"/>
        <pt x="308" y="260" on="1"/>
        <pt x="283" y="248" on="1"/>
      </contour>
    </TTGlyph>
    <TTGlyph name="asciitilde" xMin="93" yMin="256" xMax="530" yMax="389">
      <contour>
        <pt x="218" y="389" on="0"/>
        <pt x="278" y="389" on="0"/>
        <pt x="313" y="367" on="0"/>
        <pt x="326" y="335" on="0"/>
        <pt x="332" y="319" on="1"/>
        <pt x="345" y="281" on="0"/>
        <pt x="417" y="281" on="0"/>
        <pt x="479" y="335" on="0"/>
        <pt x="492" y="362" on="1"/>
        <pt x="504" y="389" on="1"/>
        <pt x="530" y="389" on="1"/>
        <pt x="528" y="384" on="0"/>
        <pt x="521" y="366" on="0"/>
        <pt x="495" y="320" on="0"/>
        <pt x="464" y="285" on="0"/>
        <pt x="409" y="256" on="0"/>
        <pt x="343" y="256" on="0"/>
        <pt x="307" y="290" on="0"/>
        <pt x="299" y="331" on="0"/>
        <pt x="271" y="365" on="0"/>
        <pt x="212" y="365" on="0"/>
        <pt x="153" y="312" on="0"/>
        <pt x="122" y="259" on="0"/>
        <pt x="124" y="259" on="1"/>
        <pt x="93" y="259" on="1"/>
        <pt x="126" y="341" on="0"/>
        <pt x="191" y="375" on="1"/>
      </contour>
    </TTGlyph>
    <TTGlyph name="asterisk" xMin="119" yMin="346" xMax="360" yMax="594">
      <contour>
        <pt x="320" y="563" on="1"/>
        <pt x="348" y="531" on="1"/>
        <pt x="274" y="476" on="1"/>
        <pt x="360" y="448" on="1"/>
        <pt x="346" y="407" on="1"/>
        <pt x="262" y="442" on="1"/>
        <pt x="280" y="355" on="1"/>
        <pt x="238" y="346" on="1"/>
        <pt x="227" y="439" on="1"/>
        <pt x="159" y="377" on="1"/>
        <pt x="130" y="409" on="1"/>
        <pt x="205" y="463" on="1"/>
        <pt x="119" y="492" on="1"/>
        <pt x="133" y="533" on="1"/>
        <pt x="215" y="498" on="1"/>
        <pt x="200" y="585" on="1"/>
        <pt x="242" y="594" on="1"/>
        <pt x="251" y="501" on="1"/>
      </contour>
    </TTGlyph>
    <TTGlyph name="at" xMin="83" yMin="-85" xMax="673" yMax="609">
      <contour>
        <pt x="348" y="-85" on="1"/>
        <pt x="222" y="-85" on="0"/>
        <pt x="83" y="61" on="0"/>
        <pt x="83" y="194" on="1"/>
        <pt x="83" y="375" on="0"/>
        <pt x="317" y="609" on="0"/>
        <pt x="507" y="609" on="1"/>
        <pt x="673" y="609" on="0"/>
        <pt x="673" y="479" on="1"/>
        <pt x="673" y="428" on="0"/>
        <pt x="566" y="222" on="0"/>
        <pt x="566" y="168" on="1"/>
        <pt x="566" y="129" on="0"/>
        <pt x="594" y="129" on="1"/>
        <pt x="615" y="130" on="0"/>
        <pt x="629" y="148" on="1"/>
        <pt x="639" y="140" on="1"/>
        <pt x="619" y="115" on="0"/>
        <pt x="587" y="115" on="1"/>
        <pt x="512" y="115" on="0"/>
        <pt x="507" y="188" on="1"/>
        <pt x="492" y="150" on="0"/>
        <pt x="446" y="115" on="0"/>
        <pt x="363" y="115" on="0"/>
        <pt x="308" y="170" on="0"/>
        <pt x="308" y="221" on="1"/>
        <pt x="308" y="299" on="0"/>
        <pt x="384" y="388" on="0"/>
        <pt x="446" y="388" on="1"/>
        <pt x="526" y="388" on="0"/>
        <pt x="546" y="346" on="1"/>
        <pt x="558" y="319" on="0"/>
        <pt x="558" y="245" on="0"/>
        <pt x="553" y="210" on="1"/>
        <pt x="561" y="263" on="0"/>
        <pt x="611" y="358" on="0"/>
        <pt x="650" y="436" on="0"/>
        <pt x="650" y="478" on="1"/>
        <pt x="650" y="588" on="0"/>
        <pt x="507" y="588" on="1"/>
        <pt x="424" y="588" on="0"/>
        <pt x="299" y="508" on="0"/>
        <pt x="266" y="442" on="1"/>
        <pt x="201" y="316" on="0"/>
        <pt x="201" y="160" on="1"/>
        <pt x="201" y="52" on="0"/>
        <pt x="295" y="-65" on="0"/>
        <pt x="435" y="-65" on="0"/>
        <pt x="497" y="-24" on="1"/>
        <pt x="506" y="-45" on="1"/>
        <pt x="442" y="-85" on="0"/>
      </contour>
      <contour>
        <pt x="426" y="139" on="1"/>
        <pt x="449" y="139" on="0"/>
        <pt x="466" y="164" on="1"/>
        <pt x="499" y="209" on="0"/>
        <pt x="499" y="298" on="1"/>
        <pt x="499" y="365" on="0"/>
        <pt x="460" y="365" on="1"/>
        <pt x="424" y="365" on="0"/>
        <pt x="386" y="281" on="0"/>
        <pt x="386" y="139" on="0"/>
      </contour>
    </TTGlyph>
    <TTGlyph name="atilde" xMin="59" yMin="-9" xMax="528" yMax="569">
      <component glyphName="a" x="0" y="0" flags="0x1004"/>
      <component glyphName="tilde" x="58" y="-192" flags="0x1004"/>
    </TTGlyph>
    <TTGlyph name="b" xMin="46" yMin="-27" xMax="471" yMax="648">
      <contour>
        <pt x="241" y="-9" on="1"/>
        <pt x="178" y="-9" on="0"/>
        <pt x="149" y="33" on="1"/>
        <pt x="65" y="-27" on="1"/>
        <pt x="46" y="-27" on="1"/>
        <pt x="158" y="628" on="1"/>
        <pt x="128" y="625" on="0"/>
        <pt x="108" y="600" on="1"/>
        <pt x="93" y="612" on="1"/>
        <pt x="123" y="648" on="0"/>
        <pt x="214" y="648" on="0"/>
        <pt x="264" y="602" on="0"/>
        <pt x="264" y="560" on="1"/>
        <pt x="264" y="552" on="0"/>
        <pt x="262" y="534" on="1"/>
        <pt x="246" y="445" on="0"/>
        <pt x="223" y="320" on="1"/>
        <pt x="265" y="388" on="0"/>
        <pt x="399" y="388" on="0"/>
        <pt x="471" y="311" on="0"/>
        <pt x="471" y="244" on="1"/>
        <pt x="471" y="126" on="0"/>
        <pt x="343" y="-9" on="0"/>
      </contour>
      <contour>
        <pt x="234" y="18" on="1"/>
        <pt x="289" y="18" on="0"/>
        <pt x="358" y="171" on="0"/>
        <pt x="358" y="285" on="1"/>
        <pt x="358" y="331" on="0"/>
        <pt x="339" y="365" on="0"/>
        <pt x="289" y="365" on="0"/>
        <pt x="236" y="305" on="0"/>
        <pt x="212" y="252" on="0"/>
        <pt x="212" y="248" on="1"/>
        <pt x="210" y="248" on="1"/>
        <pt x="185" y="117" on="0"/>
        <pt x="173" y="50" on="1"/>
        <pt x="190" y="18" on="0"/>
      </contour>
    </TTGlyph>
    <TTGlyph name="backslash" xMin="130" yMin="-42" xMax="507" yMax="667">
      <contour>
        <pt x="156" y="667" on="1"/>
        <pt x="507" y="-32" on="1"/>
        <pt x="481" y="-42" on="1"/>
        <pt x="130" y="657" on="1"/>
      </contour>
    </TTGlyph>
    <TTGlyph name="bar" xMin="53" yMin="-123" xMax="214" yMax="616">
      <contour>
        <pt x="53" y="-123" on="1"/>
        <pt x="184" y="616" on="1"/>
        <pt x="214" y="616" on="1"/>
        <pt x="83" y="-123" on="1"/>
      </contour>
    </TTGlyph>
    <TTGlyph name="braceleft" xMin="62" yMin="-143" xMax="375" yMax="636">
      <contour>
        <pt x="218" y="272" on="1"/>
        <pt x="236" y="254" on="0"/>
        <pt x="236" y="219" on="1"/>
        <pt x="236" y="209" on="0"/>
        <pt x="234" y="198" on="1"/>
        <pt x="179" y="-123" on="1"/>
        <pt x="209" y="-120" on="0"/>
        <pt x="229" y="-95" on="1"/>
        <pt x="244" y="-107" on="1"/>
        <pt x="214" y="-143" on="0"/>
        <pt x="123" y="-143" on="0"/>
        <pt x="73" y="-97" on="0"/>
        <pt x="73" y="-18" on="0"/>
        <pt x="127" y="273" on="1"/>
        <pt x="97" y="270" on="0"/>
        <pt x="77" y="245" on="1"/>
        <pt x="62" y="257" on="1"/>
        <pt x="89" y="290" on="0"/>
        <pt x="131" y="293" on="1"/>
        <pt x="174" y="527" on="1"/>
        <pt x="183" y="581" on="0"/>
        <pt x="251" y="636" on="0"/>
        <pt x="345" y="636" on="0"/>
        <pt x="375" y="600" on="1"/>
        <pt x="360" y="588" on="1"/>
        <pt x="340" y="613" on="0"/>
        <pt x="310" y="616" on="1"/>
        <pt x="262" y="337" on="1"/>
        <pt x="259" y="314" on="0"/>
        <pt x="237" y="281" on="0"/>
        <pt x="228" y="276" on="1"/>
      </contour>
    </TTGlyph>
    <TTGlyph name="braceright" xMin="3" yMin="-143" xMax="316" yMax="636">
      <contour>
        <pt x="160" y="221" on="1"/>
        <pt x="142" y="239" on="0"/>
        <pt x="142" y="274" on="1"/>
        <pt x="142" y="284" on="0"/>
        <pt x="144" y="295" on="1"/>
        <pt x="199" y="616" on="1"/>
        <pt x="169" y="613" on="0"/>
        <pt x="149" y="588" on="1"/>
        <pt x="134" y="600" on="1"/>
        <pt x="164" y="636" on="0"/>
        <pt x="255" y="636" on="0"/>
        <pt x="305" y="590" on="0"/>
        <pt x="305" y="511" on="0"/>
        <pt x="251" y="220" on="1"/>
        <pt x="281" y="223" on="0"/>
        <pt x="301" y="248" on="1"/>
        <pt x="316" y="236" on="1"/>
        <pt x="289" y="203" on="0"/>
        <pt x="247" y="200" on="1"/>
        <pt x="204" y="-34" on="1"/>
        <pt x="195" y="-88" on="0"/>
        <pt x="127" y="-143" on="0"/>
        <pt x="33" y="-143" on="0"/>
        <pt x="3" y="-107" on="1"/>
        <pt x="18" y="-95" on="1"/>
        <pt x="38" y="-120" on="0"/>
        <pt x="68" y="-123" on="1"/>
        <pt x="116" y="156" on="1"/>
        <pt x="119" y="179" on="0"/>
        <pt x="141" y="212" on="0"/>
        <pt x="150" y="216" on="1"/>
      </contour>
    </TTGlyph>
    <TTGlyph name="bracketleft" xMin="48" yMin="-143" xMax="371" yMax="636">
      <contour>
        <pt x="230" y="-143" on="1"/>
        <pt x="48" y="-143" on="1"/>
        <pt x="188" y="636" on="1"/>
        <pt x="371" y="636" on="1"/>
        <pt x="369" y="618" on="1"/>
        <pt x="306" y="618" on="1"/>
        <pt x="171" y="-125" on="1"/>
        <pt x="232" y="-125" on="1"/>
      </contour>
    </TTGlyph>
    <TTGlyph name="bracketright" xMin="0" yMin="-143" xMax="324" yMax="636">
      <contour>
        <pt x="0" y="-143" on="1"/>
        <pt x="2" y="-125" on="1"/>
        <pt x="65" y="-125" on="1"/>
        <pt x="199" y="618" on="1"/>
        <pt x="137" y="618" on="1"/>
        <pt x="139" y="636" on="1"/>
        <pt x="324" y="636" on="1"/>
        <pt x="182" y="-143" on="1"/>
      </contour>
    </TTGlyph>
    <TTGlyph name="brokenbar" xMin="58" yMin="-123" xMax="219" yMax="616">
      <contour>
        <pt x="58" y="-123" on="1"/>
        <pt x="114" y="195" on="1"/>
        <pt x="144" y="195" on="1"/>
        <pt x="88" y="-123" on="1"/>
      </contour>
      <contour>
        <pt x="219" y="616" on="1"/>
        <pt x="167" y="322" on="1"/>
        <pt x="137" y="322" on="1"/>
        <pt x="189" y="616" on="1"/>
      </contour>
    </TTGlyph>
    <TTGlyph name="bullet" xMin="107" yMin="149" xMax="286" yMax="328">
      <contour>
        <pt x="107" y="201" on="0"/>
        <pt x="107" y="275" on="0"/>
        <pt x="159" y="328" on="0"/>
        <pt x="233" y="328" on="0"/>
        <pt x="286" y="275" on="0"/>
        <pt x="286" y="201" on="0"/>
        <pt x="233" y="149" on="0"/>
        <pt x="159" y="149" on="0"/>
      </contour>
    </TTGlyph>
    <TTGlyph name="c" xMin="58" yMin="-9" xMax="422" yMax="389">
      <contour>
        <pt x="279" y="230" on="0"/>
        <pt x="279" y="290" on="0"/>
        <pt x="321" y="333" on="0"/>
        <pt x="351" y="333" on="1"/>
        <pt x="360" y="333" on="0"/>
        <pt x="374" y="329" on="1"/>
        <pt x="355" y="364" on="0"/>
        <pt x="251" y="364" on="0"/>
        <pt x="171" y="232" on="0"/>
        <pt x="171" y="102" on="1"/>
        <pt x="171" y="57" on="0"/>
        <pt x="212" y="14" on="0"/>
        <pt x="274" y="14" on="0"/>
        <pt x="325" y="38" on="0"/>
        <pt x="355" y="71" on="0"/>
        <pt x="366" y="89" on="1"/>
        <pt x="386" y="122" on="0"/>
        <pt x="386" y="131" on="1"/>
        <pt x="404" y="123" on="1"/>
        <pt x="401" y="107" on="0"/>
        <pt x="371" y="54" on="0"/>
        <pt x="335" y="20" on="0"/>
        <pt x="265" y="-9" on="0"/>
        <pt x="222" y="-9" on="1"/>
        <pt x="141" y="-9" on="0"/>
        <pt x="58" y="68" on="0"/>
        <pt x="58" y="135" on="1"/>
        <pt x="58" y="254" on="0"/>
        <pt x="177" y="389" on="0"/>
        <pt x="279" y="389" on="1"/>
        <pt x="348" y="389" on="0"/>
        <pt x="422" y="319" on="0"/>
        <pt x="422" y="262" on="1"/>
        <pt x="422" y="226" on="0"/>
        <pt x="379" y="188" on="0"/>
        <pt x="321" y="188" on="0"/>
      </contour>
    </TTGlyph>
    <TTGlyph name="caron" xMin="22" yMin="455" xMax="308" yMax="653">
      <contour>
        <pt x="135" y="483" on="1"/>
        <pt x="286" y="652" on="1"/>
        <pt x="308" y="635" on="1"/>
        <pt x="145" y="455" on="1"/>
        <pt x="118" y="455" on="1"/>
        <pt x="22" y="641" on="1"/>
        <pt x="47" y="653" on="1"/>
      </contour>
    </TTGlyph>
    <TTGlyph name="ccedilla" xMin="58" yMin="-184" xMax="422" yMax="389">
      <contour>
        <pt x="279" y="230" on="0"/>
        <pt x="279" y="290" on="0"/>
        <pt x="321" y="333" on="0"/>
        <pt x="351" y="333" on="1"/>
        <pt x="360" y="333" on="0"/>
        <pt x="374" y="329" on="1"/>
        <pt x="355" y="364" on="0"/>
        <pt x="251" y="364" on="0"/>
        <pt x="171" y="232" on="0"/>
        <pt x="171" y="102" on="1"/>
        <pt x="171" y="57" on="0"/>
        <pt x="212" y="14" on="0"/>
        <pt x="274" y="14" on="0"/>
        <pt x="325" y="38" on="0"/>
        <pt x="355" y="71" on="0"/>
        <pt x="366" y="89" on="1"/>
        <pt x="386" y="122" on="0"/>
        <pt x="386" y="131" on="1"/>
        <pt x="404" y="123" on="1"/>
        <pt x="401" y="107" on="0"/>
        <pt x="371" y="54" on="0"/>
        <pt x="335" y="20" on="0"/>
        <pt x="265" y="-9" on="0"/>
        <pt x="222" y="-9" on="1"/>
        <pt x="141" y="-9" on="0"/>
        <pt x="58" y="68" on="0"/>
        <pt x="58" y="135" on="1"/>
        <pt x="58" y="254" on="0"/>
        <pt x="177" y="389" on="0"/>
        <pt x="279" y="389" on="1"/>
        <pt x="348" y="389" on="0"/>
        <pt x="422" y="319" on="0"/>
        <pt x="422" y="262" on="1"/>
        <pt x="422" y="226" on="0"/>
        <pt x="379" y="188" on="0"/>
        <pt x="321" y="188" on="0"/>
      </contour>
      <contour>
        <pt x="220" y="-184" on="1"/>
        <pt x="127" y="-184" on="0"/>
        <pt x="127" y="-116" on="1"/>
        <pt x="127" y="-83" on="0"/>
        <pt x="176" y="-44" on="0"/>
        <pt x="225" y="-44" on="1"/>
        <pt x="234" y="2" on="1"/>
        <pt x="252" y="2" on="1"/>
        <pt x="241" y="-63" on="1"/>
        <pt x="225" y="-63" on="1"/>
        <pt x="190" y="-63" on="0"/>
        <pt x="149" y="-92" on="0"/>
        <pt x="149" y="-117" on="1"/>
        <pt x="149" y="-165" on="0"/>
        <pt x="221" y="-165" on="1"/>
        <pt x="244" y="-165" on="0"/>
        <pt x="285" y="-152" on="0"/>
        <pt x="294" y="-146" on="1"/>
        <pt x="303" y="-139" on="1"/>
        <pt x="313" y="-156" on="1"/>
        <pt x="284" y="-184" on="0"/>
      </contour>
    </TTGlyph>
    <TTGlyph name="cedilla" xMin="44" yMin="-184" xMax="230" yMax="2">
      <contour>
        <pt x="137" y="-184" on="1"/>
        <pt x="44" y="-184" on="0"/>
        <pt x="44" y="-116" on="1"/>
        <pt x="44" y="-83" on="0"/>
        <pt x="93" y="-44" on="0"/>
        <pt x="142" y="-44" on="1"/>
        <pt x="151" y="2" on="1"/>
        <pt x="169" y="2" on="1"/>
        <pt x="158" y="-63" on="1"/>
        <pt x="142" y="-63" on="1"/>
        <pt x="107" y="-63" on="0"/>
        <pt x="66" y="-92" on="0"/>
        <pt x="66" y="-117" on="1"/>
        <pt x="66" y="-165" on="0"/>
        <pt x="138" y="-165" on="1"/>
        <pt x="161" y="-165" on="0"/>
        <pt x="202" y="-152" on="0"/>
        <pt x="211" y="-146" on="1"/>
        <pt x="220" y="-139" on="1"/>
        <pt x="230" y="-156" on="1"/>
        <pt x="201" y="-184" on="0"/>
      </contour>
    </TTGlyph>
    <TTGlyph name="cent" xMin="59" yMin="-162" xMax="423" yMax="577">
      <contour>
        <pt x="280" y="230" on="0"/>
        <pt x="280" y="290" on="0"/>
        <pt x="322" y="333" on="0"/>
        <pt x="352" y="333" on="1"/>
        <pt x="361" y="333" on="0"/>
        <pt x="375" y="329" on="1"/>
        <pt x="356" y="364" on="0"/>
        <pt x="252" y="364" on="0"/>
        <pt x="172" y="232" on="0"/>
        <pt x="172" y="102" on="1"/>
        <pt x="172" y="57" on="0"/>
        <pt x="213" y="14" on="0"/>
        <pt x="275" y="14" on="0"/>
        <pt x="326" y="38" on="0"/>
        <pt x="356" y="71" on="0"/>
        <pt x="367" y="89" on="1"/>
        <pt x="387" y="122" on="0"/>
        <pt x="387" y="131" on="1"/>
        <pt x="405" y="123" on="1"/>
        <pt x="402" y="107" on="0"/>
        <pt x="376" y="59" on="0"/>
        <pt x="344" y="26" on="0"/>
        <pt x="282" y="-5" on="0"/>
        <pt x="244" y="-8" on="1"/>
        <pt x="217" y="-162" on="1"/>
        <pt x="187" y="-162" on="1"/>
        <pt x="214" y="-9" on="1"/>
        <pt x="138" y="-7" on="0"/>
        <pt x="59" y="70" on="0"/>
        <pt x="59" y="135" on="1"/>
        <pt x="59" y="254" on="0"/>
        <pt x="178" y="389" on="0"/>
        <pt x="280" y="389" on="1"/>
        <pt x="285" y="389" on="1"/>
        <pt x="318" y="577" on="1"/>
        <pt x="348" y="577" on="1"/>
        <pt x="314" y="386" on="1"/>
        <pt x="367" y="377" on="0"/>
        <pt x="423" y="311" on="0"/>
        <pt x="423" y="226" on="0"/>
        <pt x="380" y="188" on="0"/>
        <pt x="322" y="188" on="0"/>
      </contour>
    </TTGlyph>
    <TTGlyph name="circumflex" xMin="22" yMin="455" xMax="308" yMax="653">
      <contour>
        <pt x="195" y="625" on="1"/>
        <pt x="44" y="456" on="1"/>
        <pt x="22" y="473" on="1"/>
        <pt x="185" y="653" on="1"/>
        <pt x="212" y="653" on="1"/>
        <pt x="308" y="467" on="1"/>
        <pt x="283" y="455" on="1"/>
      </contour>
    </TTGlyph>
    <TTGlyph name="colon" xMin="76" yMin="-8" xMax="261" yMax="389">
      <contour>
        <pt x="76" y="34" on="0"/>
        <pt x="76" y="94" on="0"/>
        <pt x="118" y="137" on="0"/>
        <pt x="178" y="137" on="0"/>
        <pt x="221" y="94" on="0"/>
        <pt x="221" y="34" on="0"/>
        <pt x="178" y="-8" on="0"/>
        <pt x="118" y="-8" on="0"/>
      </contour>
      <contour>
        <pt x="116" y="286" on="0"/>
        <pt x="116" y="346" on="0"/>
        <pt x="158" y="389" on="0"/>
        <pt x="218" y="389" on="0"/>
        <pt x="261" y="346" on="0"/>
        <pt x="261" y="286" on="0"/>
        <pt x="218" y="244" on="0"/>
        <pt x="158" y="244" on="0"/>
      </contour>
    </TTGlyph>
    <TTGlyph name="comma" xMin="30" yMin="-116" xMax="206" yMax="137">
      <contour>
        <pt x="61" y="34" on="0"/>
        <pt x="61" y="94" on="0"/>
        <pt x="103" y="137" on="0"/>
        <pt x="163" y="137" on="0"/>
        <pt x="206" y="94" on="0"/>
        <pt x="206" y="64" on="1"/>
        <pt x="206" y="15" on="0"/>
        <pt x="119" y="-93" on="0"/>
        <pt x="39" y="-116" on="1"/>
        <pt x="30" y="-95" on="1"/>
        <pt x="75" y="-80" on="0"/>
        <pt x="138" y="-35" on="0"/>
        <pt x="147" y="-20" on="1"/>
        <pt x="156" y="-4" on="1"/>
        <pt x="147" y="-8" on="0"/>
        <pt x="133" y="-8" on="1"/>
        <pt x="103" y="-8" on="0"/>
      </contour>
    </TTGlyph>
    <TTGlyph name="copyright" xMin="85" yMin="-1" xMax="702" yMax="596">
      <contour>
        <pt x="329" y="-1" on="1"/>
        <pt x="215" y="-1" on="0"/>
        <pt x="85" y="119" on="0"/>
        <pt x="85" y="222" on="1"/>
        <pt x="85" y="262" on="0"/>
        <pt x="94" y="297" on="1"/>
        <pt x="122" y="431" on="0"/>
        <pt x="324" y="596" on="0"/>
        <pt x="458" y="596" on="1"/>
        <pt x="571" y="596" on="0"/>
        <pt x="702" y="475" on="0"/>
        <pt x="702" y="373" on="1"/>
        <pt x="702" y="334" on="0"/>
        <pt x="694" y="299" on="1"/>
        <pt x="666" y="164" on="0"/>
        <pt x="464" y="-1" on="0"/>
      </contour>
      <contour>
        <pt x="673" y="460" on="0"/>
        <pt x="556" y="571" on="0"/>
        <pt x="331" y="571" on="0"/>
        <pt x="150" y="421" on="0"/>
        <pt x="123" y="299" on="1"/>
        <pt x="116" y="264" on="0"/>
        <pt x="116" y="230" on="1"/>
        <pt x="116" y="134" on="0"/>
        <pt x="234" y="23" on="0"/>
        <pt x="453" y="23" on="0"/>
        <pt x="636" y="178" on="0"/>
        <pt x="666" y="297" on="1"/>
        <pt x="673" y="328" on="0"/>
        <pt x="673" y="366" on="1"/>
      </contour>
      <contour>
        <pt x="545" y="417" on="1"/>
        <pt x="512" y="481" on="0"/>
        <pt x="365" y="481" on="0"/>
        <pt x="314" y="427" on="1"/>
        <pt x="242" y="349" on="0"/>
        <pt x="242" y="249" on="1"/>
        <pt x="242" y="190" on="0"/>
        <pt x="302" y="115" on="0"/>
        <pt x="357" y="115" on="1"/>
        <pt x="444" y="115" on="0"/>
        <pt x="499" y="179" on="1"/>
        <pt x="515" y="163" on="1"/>
        <pt x="451" y="90" on="0"/>
        <pt x="352" y="90" on="1"/>
        <pt x="284" y="90" on="0"/>
        <pt x="211" y="178" on="0"/>
        <pt x="211" y="245" on="1"/>
        <pt x="211" y="271" on="0"/>
        <pt x="218" y="298" on="1"/>
        <pt x="236" y="384" on="0"/>
        <pt x="355" y="504" on="0"/>
        <pt x="536" y="504" on="0"/>
        <pt x="571" y="432" on="1"/>
      </contour>
    </TTGlyph>
    <TTGlyph name="currency" xMin="57" yMin="-85" xMax="747" yMax="609">
      <contour>
        <pt x="157" y="195" on="1"/>
        <pt x="157" y="242" on="0"/>
        <pt x="164" y="281" on="1"/>
        <pt x="77" y="281" on="1"/>
        <pt x="79" y="299" on="1"/>
        <pt x="168" y="299" on="1"/>
        <pt x="200" y="439" on="0"/>
        <pt x="421" y="609" on="0"/>
        <pt x="581" y="609" on="1"/>
        <pt x="669" y="609" on="0"/>
        <pt x="747" y="546" on="0"/>
        <pt x="747" y="479" on="1"/>
        <pt x="747" y="434" on="0"/>
        <pt x="703" y="368" on="1"/>
        <pt x="663" y="304" on="0"/>
        <pt x="663" y="268" on="1"/>
        <pt x="641" y="268" on="1"/>
        <pt x="641" y="288" on="0"/>
        <pt x="657" y="334" on="0"/>
        <pt x="669" y="354" on="0"/>
        <pt x="685" y="380" on="1"/>
        <pt x="724" y="439" on="0"/>
        <pt x="724" y="477" on="1"/>
        <pt x="724" y="557" on="0"/>
        <pt x="658" y="578" on="1"/>
        <pt x="627" y="588" on="0"/>
        <pt x="559" y="588" on="0"/>
        <pt x="521" y="584" on="1"/>
        <pt x="337" y="528" on="0"/>
        <pt x="290" y="299" on="1"/>
        <pt x="532" y="299" on="1"/>
        <pt x="530" y="281" on="1"/>
        <pt x="287" y="281" on="1"/>
        <pt x="280" y="244" on="0"/>
        <pt x="277" y="195" on="1"/>
        <pt x="512" y="195" on="1"/>
        <pt x="510" y="177" on="1"/>
        <pt x="276" y="177" on="1"/>
        <pt x="275" y="163" on="0"/>
        <pt x="275" y="136" on="1"/>
        <pt x="275" y="-14" on="0"/>
        <pt x="372" y="-62" on="1"/>
        <pt x="396" y="-65" on="0"/>
        <pt x="475" y="-65" on="0"/>
        <pt x="563" y="-35" on="0"/>
        <pt x="587" y="-13" on="1"/>
        <pt x="638" y="34" on="0"/>
        <pt x="650" y="68" on="1"/>
        <pt x="656" y="83" on="1"/>
        <pt x="676" y="75" on="1"/>
        <pt x="669" y="52" on="0"/>
        <pt x="629" y="-8" on="0"/>
        <pt x="578" y="-50" on="0"/>
        <pt x="481" y="-85" on="0"/>
        <pt x="422" y="-85" on="1"/>
        <pt x="300" y="-85" on="0"/>
        <pt x="161" y="51" on="0"/>
        <pt x="157" y="177" on="1"/>
        <pt x="57" y="177" on="1"/>
        <pt x="59" y="195" on="1"/>
      </contour>
    </TTGlyph>
    <TTGlyph name="d" xMin="58" yMin="-9" xMax="513" yMax="648">
      <contour>
        <pt x="406" y="-9" on="1"/>
        <pt x="318" y="-9" on="0"/>
        <pt x="310" y="66" on="1"/>
        <pt x="266" y="-9" on="0"/>
        <pt x="130" y="-9" on="0"/>
        <pt x="58" y="68" on="0"/>
        <pt x="58" y="135" on="1"/>
        <pt x="58" y="253" on="0"/>
        <pt x="170" y="389" on="0"/>
        <pt x="259" y="389" on="1"/>
        <pt x="310" y="389" on="0"/>
        <pt x="338" y="358" on="1"/>
        <pt x="350" y="342" on="0"/>
        <pt x="353" y="334" on="1"/>
        <pt x="407" y="628" on="1"/>
        <pt x="377" y="625" on="0"/>
        <pt x="357" y="600" on="1"/>
        <pt x="342" y="612" on="1"/>
        <pt x="372" y="648" on="0"/>
        <pt x="463" y="648" on="0"/>
        <pt x="513" y="602" on="0"/>
        <pt x="513" y="560" on="1"/>
        <pt x="513" y="552" on="0"/>
        <pt x="511" y="534" on="1"/>
        <pt x="462" y="259" on="0"/>
        <pt x="416" y="11" on="1"/>
        <pt x="446" y="14" on="0"/>
        <pt x="466" y="39" on="1"/>
        <pt x="481" y="27" on="1"/>
        <pt x="451" y="-9" on="0"/>
      </contour>
      <contour>
        <pt x="171" y="48" on="0"/>
        <pt x="190" y="14" on="0"/>
        <pt x="231" y="14" on="0"/>
        <pt x="269" y="42" on="0"/>
        <pt x="282" y="64" on="1"/>
        <pt x="306" y="101" on="0"/>
        <pt x="316" y="127" on="1"/>
        <pt x="345" y="285" on="1"/>
        <pt x="343" y="317" on="0"/>
        <pt x="305" y="370" on="0"/>
        <pt x="259" y="370" on="1"/>
        <pt x="227" y="370" on="0"/>
        <pt x="171" y="182" on="0"/>
        <pt x="171" y="94" on="1"/>
      </contour>
    </TTGlyph>
    <TTGlyph name="dagger" xMin="82" yMin="-123" xMax="469" yMax="616">
      <contour>
        <pt x="465" y="346" on="1"/>
        <pt x="285" y="346" on="1"/>
        <pt x="202" y="-123" on="1"/>
        <pt x="172" y="-123" on="1"/>
        <pt x="255" y="346" on="1"/>
        <pt x="82" y="346" on="1"/>
        <pt x="86" y="371" on="1"/>
        <pt x="259" y="371" on="1"/>
        <pt x="303" y="616" on="1"/>
        <pt x="333" y="616" on="1"/>
        <pt x="289" y="371" on="1"/>
        <pt x="469" y="371" on="1"/>
      </contour>
    </TTGlyph>
    <TTGlyph name="daggerdbl" xMin="62" yMin="-123" xMax="476" yMax="616">
      <contour>
        <pt x="445" y="194" on="1"/>
        <pt x="265" y="194" on="1"/>
        <pt x="209" y="-123" on="1"/>
        <pt x="179" y="-123" on="1"/>
        <pt x="235" y="194" on="1"/>
        <pt x="62" y="194" on="1"/>
        <pt x="66" y="219" on="1"/>
        <pt x="239" y="219" on="1"/>
        <pt x="262" y="345" on="1"/>
        <pt x="89" y="345" on="1"/>
        <pt x="93" y="370" on="1"/>
        <pt x="266" y="370" on="1"/>
        <pt x="310" y="616" on="1"/>
        <pt x="340" y="616" on="1"/>
        <pt x="296" y="370" on="1"/>
        <pt x="476" y="370" on="1"/>
        <pt x="472" y="345" on="1"/>
        <pt x="292" y="345" on="1"/>
        <pt x="269" y="219" on="1"/>
        <pt x="449" y="219" on="1"/>
      </contour>
    </TTGlyph>
    <TTGlyph name="degree" xMin="122" yMin="370" xMax="393" yMax="645">
      <contour>
        <pt x="122" y="476" on="1"/>
        <pt x="122" y="548" on="0"/>
        <pt x="197" y="645" on="0"/>
        <pt x="283" y="645" on="1"/>
        <pt x="337" y="645" on="0"/>
        <pt x="393" y="591" on="0"/>
        <pt x="393" y="544" on="1"/>
        <pt x="393" y="466" on="0"/>
        <pt x="309" y="370" on="0"/>
        <pt x="231" y="370" on="1"/>
        <pt x="122" y="370" on="0"/>
      </contour>
      <contour>
        <pt x="232" y="390" on="1"/>
        <pt x="298" y="390" on="0"/>
        <pt x="371" y="468" on="0"/>
        <pt x="371" y="542" on="1"/>
        <pt x="371" y="582" on="0"/>
        <pt x="324" y="626" on="0"/>
        <pt x="283" y="626" on="1"/>
        <pt x="220" y="626" on="0"/>
        <pt x="146" y="553" on="0"/>
        <pt x="146" y="478" on="1"/>
        <pt x="146" y="390" on="0"/>
      </contour>
    </TTGlyph>
    <TTGlyph name="dieresis" xMin="99" yMin="531" xMax="376" yMax="648">
      <contour>
        <pt x="292" y="531" on="0"/>
        <pt x="259" y="564" on="0"/>
        <pt x="259" y="613" on="0"/>
        <pt x="293" y="648" on="0"/>
        <pt x="341" y="648" on="0"/>
        <pt x="376" y="613" on="0"/>
        <pt x="376" y="565" on="0"/>
        <pt x="341" y="531" on="0"/>
      </contour>
      <contour>
        <pt x="132" y="531" on="0"/>
        <pt x="99" y="564" on="0"/>
        <pt x="99" y="613" on="0"/>
        <pt x="133" y="648" on="0"/>
        <pt x="181" y="648" on="0"/>
        <pt x="216" y="613" on="0"/>
        <pt x="216" y="565" on="0"/>
        <pt x="181" y="531" on="0"/>
      </contour>
    </TTGlyph>
    <TTGlyph name="divide" xMin="62" yMin="-8" xMax="447" yMax="389">
      <contour>
        <pt x="445" y="184" on="1"/>
        <pt x="62" y="184" on="1"/>
        <pt x="64" y="202" on="1"/>
        <pt x="447" y="202" on="1"/>
      </contour>
      <contour>
        <pt x="160" y="34" on="0"/>
        <pt x="160" y="94" on="0"/>
        <pt x="202" y="137" on="0"/>
        <pt x="262" y="137" on="0"/>
        <pt x="305" y="94" on="0"/>
        <pt x="305" y="34" on="0"/>
        <pt x="262" y="-8" on="0"/>
        <pt x="202" y="-8" on="0"/>
      </contour>
      <contour>
        <pt x="200" y="286" on="0"/>
        <pt x="200" y="346" on="0"/>
        <pt x="242" y="389" on="0"/>
        <pt x="302" y="389" on="0"/>
        <pt x="345" y="346" on="0"/>
        <pt x="345" y="286" on="0"/>
        <pt x="302" y="244" on="0"/>
        <pt x="242" y="244" on="0"/>
      </contour>
    </TTGlyph>
    <TTGlyph name="dollar" xMin="84" yMin="-293" xMax="761" yMax="764">
      <contour>
        <pt x="312" y="-194" on="1"/>
        <pt x="417" y="-194" on="0"/>
        <pt x="534" y="-108" on="0"/>
        <pt x="534" y="-37" on="1"/>
        <pt x="534" y="14" on="0"/>
        <pt x="483" y="92" on="0"/>
        <pt x="407" y="143" on="0"/>
        <pt x="328" y="193" on="0"/>
        <pt x="260" y="269" on="0"/>
        <pt x="249" y="317" on="1"/>
        <pt x="158" y="344" on="0"/>
        <pt x="129" y="430" on="1"/>
        <pt x="118" y="463" on="0"/>
        <pt x="118" y="535" on="0"/>
        <pt x="130" y="574" on="1"/>
        <pt x="152" y="651" on="0"/>
        <pt x="204" y="690" on="1"/>
        <pt x="215" y="674" on="1"/>
        <pt x="168" y="640" on="0"/>
        <pt x="148" y="568" on="1"/>
        <pt x="137" y="532" on="0"/>
        <pt x="137" y="466" on="0"/>
        <pt x="147" y="436" on="1"/>
        <pt x="171" y="363" on="0"/>
        <pt x="246" y="338" on="1"/>
        <pt x="244" y="349" on="0"/>
        <pt x="244" y="372" on="1"/>
        <pt x="244" y="483" on="0"/>
        <pt x="383" y="635" on="0"/>
        <pt x="493" y="657" on="1"/>
        <pt x="512" y="764" on="1"/>
        <pt x="542" y="764" on="1"/>
        <pt x="525" y="662" on="1"/>
        <pt x="570" y="665" on="0"/>
        <pt x="571" y="665" on="1"/>
        <pt x="661" y="665" on="0"/>
        <pt x="715" y="616" on="1"/>
        <pt x="761" y="573" on="0"/>
        <pt x="761" y="448" on="0"/>
        <pt x="677" y="357" on="0"/>
        <pt x="606" y="357" on="1"/>
        <pt x="568" y="357" on="0"/>
        <pt x="542" y="372" on="1"/>
        <pt x="490" y="333" on="0"/>
        <pt x="421" y="316" on="1"/>
        <pt x="441" y="297" on="0"/>
        <pt x="588" y="195" on="0"/>
        <pt x="661" y="102" on="0"/>
        <pt x="661" y="40" on="1"/>
        <pt x="661" y="-71" on="0"/>
        <pt x="490" y="-213" on="0"/>
        <pt x="347" y="-216" on="1"/>
        <pt x="333" y="-293" on="1"/>
        <pt x="303" y="-293" on="1"/>
        <pt x="317" y="-215" on="1"/>
        <pt x="206" y="-210" on="0"/>
        <pt x="84" y="-105" on="0"/>
        <pt x="84" y="42" on="0"/>
        <pt x="179" y="147" on="0"/>
        <pt x="321" y="147" on="0"/>
        <pt x="389" y="84" on="0"/>
        <pt x="389" y="-6" on="0"/>
        <pt x="334" y="-76" on="0"/>
        <pt x="246" y="-76" on="0"/>
        <pt x="220" y="-48" on="1"/>
        <pt x="196" y="-24" on="0"/>
        <pt x="193" y="12" on="1"/>
        <pt x="192" y="22" on="0"/>
        <pt x="193" y="24" on="1"/>
        <pt x="212" y="23" on="1"/>
        <pt x="211" y="-12" on="0"/>
        <pt x="254" y="-56" on="0"/>
        <pt x="326" y="-56" on="0"/>
        <pt x="370" y="1" on="0"/>
        <pt x="370" y="76" on="0"/>
        <pt x="344" y="99" on="1"/>
        <pt x="315" y="128" on="0"/>
        <pt x="187" y="128" on="0"/>
        <pt x="103" y="35" on="0"/>
        <pt x="103" y="-96" on="0"/>
        <pt x="157" y="-142" on="1"/>
        <pt x="189" y="-170" on="0"/>
        <pt x="256" y="-194" on="0"/>
      </contour>
      <contour>
        <pt x="482" y="494" on="1"/>
        <pt x="482" y="538" on="0"/>
        <pt x="527" y="596" on="0"/>
        <pt x="566" y="596" on="1"/>
        <pt x="633" y="596" on="0"/>
        <pt x="633" y="449" on="0"/>
        <pt x="560" y="384" on="1"/>
        <pt x="582" y="374" on="0"/>
        <pt x="606" y="374" on="1"/>
        <pt x="668" y="374" on="0"/>
        <pt x="742" y="455" on="0"/>
        <pt x="742" y="564" on="0"/>
        <pt x="702" y="602" on="1"/>
        <pt x="653" y="646" on="0"/>
        <pt x="493" y="646" on="0"/>
        <pt x="438" y="607" on="1"/>
        <pt x="350" y="545" on="0"/>
        <pt x="350" y="447" on="1"/>
        <pt x="350" y="366" on="0"/>
        <pt x="404" y="329" on="1"/>
        <pt x="471" y="344" on="0"/>
        <pt x="528" y="383" on="1"/>
        <pt x="482" y="424" on="0"/>
      </contour>
      <contour>
        <pt x="565" y="578" on="1"/>
        <pt x="535" y="578" on="0"/>
        <pt x="502" y="532" on="0"/>
        <pt x="502" y="494" on="1"/>
        <pt x="502" y="429" on="0"/>
        <pt x="543" y="395" on="1"/>
        <pt x="573" y="416" on="0"/>
        <pt x="613" y="488" on="0"/>
        <pt x="613" y="523" on="1"/>
        <pt x="613" y="578" on="0"/>
      </contour>
    </TTGlyph>
    <TTGlyph name="dotlessi" xMin="73" yMin="-9" xMax="248" yMax="389">
      <contour>
        <pt x="244" y="27" on="1"/>
        <pt x="214" y="-9" on="0"/>
        <pt x="123" y="-9" on="0"/>
        <pt x="73" y="37" on="0"/>
        <pt x="73" y="79" on="1"/>
        <pt x="73" y="87" on="0"/>
        <pt x="80" y="131" on="0"/>
        <pt x="122" y="362" on="1"/>
        <pt x="80" y="362" on="1"/>
        <pt x="82" y="380" on="1"/>
        <pt x="125" y="380" on="1"/>
        <pt x="199" y="380" on="0"/>
        <pt x="234" y="386" on="1"/>
        <pt x="248" y="389" on="1"/>
        <pt x="179" y="11" on="1"/>
        <pt x="209" y="14" on="0"/>
        <pt x="229" y="39" on="1"/>
      </contour>
    </TTGlyph>
    <TTGlyph name="e" xMin="58" yMin="-9" xMax="404" yMax="389">
      <contour>
        <pt x="275" y="389" on="1"/>
        <pt x="402" y="389" on="0"/>
        <pt x="402" y="288" on="1"/>
        <pt x="402" y="225" on="0"/>
        <pt x="283" y="160" on="0"/>
        <pt x="173" y="159" on="1"/>
        <pt x="171" y="123" on="0"/>
        <pt x="171" y="102" on="1"/>
        <pt x="171" y="57" on="0"/>
        <pt x="212" y="14" on="0"/>
        <pt x="274" y="14" on="0"/>
        <pt x="325" y="38" on="0"/>
        <pt x="355" y="71" on="0"/>
        <pt x="366" y="89" on="1"/>
        <pt x="386" y="122" on="0"/>
        <pt x="386" y="131" on="1"/>
        <pt x="404" y="123" on="1"/>
        <pt x="401" y="107" on="0"/>
        <pt x="371" y="54" on="0"/>
        <pt x="335" y="20" on="0"/>
        <pt x="265" y="-9" on="0"/>
        <pt x="222" y="-9" on="1"/>
        <pt x="141" y="-9" on="0"/>
        <pt x="58" y="68" on="0"/>
        <pt x="58" y="135" on="1"/>
        <pt x="58" y="254" on="0"/>
        <pt x="176" y="389" on="0"/>
      </contour>
      <contour>
        <pt x="377" y="321" on="0"/>
        <pt x="338" y="364" on="0"/>
        <pt x="261" y="364" on="0"/>
        <pt x="188" y="272" on="0"/>
        <pt x="176" y="182" on="1"/>
        <pt x="377" y="183" on="0"/>
        <pt x="377" y="288" on="1"/>
      </contour>
    </TTGlyph>
    <TTGlyph name="eacute" xMin="58" yMin="-9" xMax="404" yMax="574">
      <contour>
        <pt x="275" y="389" on="1"/>
        <pt x="402" y="389" on="0"/>
        <pt x="402" y="288" on="1"/>
        <pt x="402" y="225" on="0"/>
        <pt x="283" y="160" on="0"/>
        <pt x="173" y="159" on="1"/>
        <pt x="171" y="123" on="0"/>
        <pt x="171" y="102" on="1"/>
        <pt x="171" y="57" on="0"/>
        <pt x="212" y="14" on="0"/>
        <pt x="274" y="14" on="0"/>
        <pt x="325" y="38" on="0"/>
        <pt x="355" y="71" on="0"/>
        <pt x="366" y="89" on="1"/>
        <pt x="386" y="122" on="0"/>
        <pt x="386" y="131" on="1"/>
        <pt x="404" y="123" on="1"/>
        <pt x="401" y="107" on="0"/>
        <pt x="371" y="54" on="0"/>
        <pt x="335" y="20" on="0"/>
        <pt x="265" y="-9" on="0"/>
        <pt x="222" y="-9" on="1"/>
        <pt x="141" y="-9" on="0"/>
        <pt x="58" y="68" on="0"/>
        <pt x="58" y="135" on="1"/>
        <pt x="58" y="254" on="0"/>
        <pt x="176" y="389" on="0"/>
      </contour>
      <contour>
        <pt x="377" y="321" on="0"/>
        <pt x="338" y="364" on="0"/>
        <pt x="261" y="364" on="0"/>
        <pt x="188" y="272" on="0"/>
        <pt x="176" y="182" on="1"/>
        <pt x="377" y="183" on="0"/>
        <pt x="377" y="288" on="1"/>
      </contour>
      <contour>
        <pt x="261" y="468" on="1"/>
        <pt x="314" y="574" on="1"/>
        <pt x="340" y="564" on="1"/>
        <pt x="287" y="458" on="1"/>
      </contour>
    </TTGlyph>
    <TTGlyph name="ecircumflex" xMin="58" yMin="-9" xMax="427" yMax="633">
      <contour>
        <pt x="275" y="389" on="1"/>
        <pt x="402" y="389" on="0"/>
        <pt x="402" y="288" on="1"/>
        <pt x="402" y="225" on="0"/>
        <pt x="283" y="160" on="0"/>
        <pt x="173" y="159" on="1"/>
        <pt x="171" y="123" on="0"/>
        <pt x="171" y="102" on="1"/>
        <pt x="171" y="57" on="0"/>
        <pt x="212" y="14" on="0"/>
        <pt x="274" y="14" on="0"/>
        <pt x="325" y="38" on="0"/>
        <pt x="355" y="71" on="0"/>
        <pt x="366" y="89" on="1"/>
        <pt x="386" y="122" on="0"/>
        <pt x="386" y="131" on="1"/>
        <pt x="404" y="123" on="1"/>
        <pt x="401" y="107" on="0"/>
        <pt x="371" y="54" on="0"/>
        <pt x="335" y="20" on="0"/>
        <pt x="265" y="-9" on="0"/>
        <pt x="222" y="-9" on="1"/>
        <pt x="141" y="-9" on="0"/>
        <pt x="58" y="68" on="0"/>
        <pt x="58" y="135" on="1"/>
        <pt x="58" y="254" on="0"/>
        <pt x="176" y="389" on="0"/>
      </contour>
      <contour>
        <pt x="377" y="321" on="0"/>
        <pt x="338" y="364" on="0"/>
        <pt x="261" y="364" on="0"/>
        <pt x="188" y="272" on="0"/>
        <pt x="176" y="182" on="1"/>
        <pt x="377" y="183" on="0"/>
        <pt x="377" y="288" on="1"/>
      </contour>
      <contour>
        <pt x="314" y="605" on="1"/>
        <pt x="163" y="436" on="1"/>
        <pt x="141" y="453" on="1"/>
        <pt x="304" y="633" on="1"/>
        <pt x="331" y="633" on="1"/>
        <pt x="427" y="447" on="1"/>
        <pt x="402" y="435" on="1"/>
      </contour>
    </TTGlyph>
    <TTGlyph name="edieresis" xMin="58" yMin="-9" xMax="406" yMax="552">
      <component glyphName="e" x="0" y="0" flags="0x1004"/>
      <component glyphName="dieresis" x="30" y="-96" flags="0x1004"/>
    </TTGlyph>
    <TTGlyph name="egrave" xMin="58" yMin="-9" xMax="404" yMax="574">
      <component glyphName="e" x="0" y="0" flags="0x1004"/>
      <component glyphName="grave" x="188" y="0" flags="0x1004"/>
    </TTGlyph>
    <TTGlyph name="eight" xMin="56" yMin="-4" xMax="480" yMax="551">
      <contour>
        <pt x="371" y="81" on="0"/>
        <pt x="272" y="-4" on="0"/>
        <pt x="124" y="-4" on="0"/>
        <pt x="56" y="62" on="0"/>
        <pt x="56" y="136" on="0"/>
        <pt x="90" y="199" on="0"/>
        <pt x="136" y="238" on="0"/>
        <pt x="160" y="252" on="1"/>
        <pt x="206" y="278" on="0"/>
        <pt x="218" y="278" on="1"/>
        <pt x="223" y="260" on="1"/>
        <pt x="181" y="250" on="0"/>
        <pt x="135" y="177" on="0"/>
        <pt x="135" y="78" on="0"/>
        <pt x="193" y="28" on="0"/>
        <pt x="226" y="28" on="1"/>
        <pt x="230" y="28" on="0"/>
        <pt x="234" y="28" on="1"/>
        <pt x="291" y="28" on="0"/>
        <pt x="351" y="101" on="0"/>
        <pt x="351" y="149" on="1"/>
        <pt x="351" y="171" on="0"/>
        <pt x="323" y="215" on="0"/>
        <pt x="297" y="239" on="0"/>
        <pt x="237" y="284" on="0"/>
        <pt x="202" y="316" on="0"/>
        <pt x="170" y="371" on="0"/>
        <pt x="170" y="401" on="1"/>
        <pt x="170" y="459" on="0"/>
        <pt x="271" y="551" on="0"/>
        <pt x="350" y="551" on="1"/>
        <pt x="480" y="551" on="0"/>
        <pt x="480" y="452" on="1"/>
        <pt x="480" y="386" on="0"/>
        <pt x="372" y="302" on="0"/>
        <pt x="303" y="286" on="1"/>
        <pt x="299" y="303" on="1"/>
        <pt x="367" y="321" on="0"/>
        <pt x="459" y="398" on="0"/>
        <pt x="459" y="489" on="0"/>
        <pt x="406" y="531" on="0"/>
        <pt x="282" y="531" on="0"/>
        <pt x="191" y="451" on="0"/>
        <pt x="191" y="401" on="1"/>
        <pt x="191" y="374" on="0"/>
        <pt x="220" y="326" on="0"/>
        <pt x="251" y="298" on="0"/>
        <pt x="310" y="254" on="0"/>
        <pt x="341" y="226" on="0"/>
        <pt x="371" y="176" on="0"/>
        <pt x="371" y="149" on="1"/>
      </contour>
    </TTGlyph>
    <TTGlyph name="ellipsis" xMin="61" yMin="-8" xMax="672" yMax="137">
      <contour>
        <pt x="61" y="34" on="0"/>
        <pt x="61" y="94" on="0"/>
        <pt x="103" y="137" on="0"/>
        <pt x="163" y="137" on="0"/>
        <pt x="206" y="94" on="0"/>
        <pt x="206" y="34" on="0"/>
        <pt x="163" y="-8" on="0"/>
        <pt x="103" y="-8" on="0"/>
      </contour>
      <contour>
        <pt x="294" y="34" on="0"/>
        <pt x="294" y="94" on="0"/>
        <pt x="336" y="137" on="0"/>
        <pt x="396" y="137" on="0"/>
        <pt x="439" y="94" on="0"/>
        <pt x="439" y="34" on="0"/>
        <pt x="396" y="-8" on="0"/>
        <pt x="336" y="-8" on="0"/>
      </contour>
      <contour>
        <pt x="527" y="34" on="0"/>
        <pt x="527" y="94" on="0"/>
        <pt x="569" y="137" on="0"/>
        <pt x="629" y="137" on="0"/>
        <pt x="672" y="94" on="0"/>
        <pt x="672" y="34" on="0"/>
        <pt x="629" y="-8" on="0"/>
        <pt x="569" y="-8" on="0"/>
      </contour>
    </TTGlyph>
    <TTGlyph name="emdash" xMin="90" yMin="184" xMax="625" yMax="202">
      <contour>
        <pt x="623" y="184" on="1"/>
        <pt x="90" y="184" on="1"/>
        <pt x="92" y="202" on="1"/>
        <pt x="625" y="202" on="1"/>
      </contour>
    </TTGlyph>
    <TTGlyph name="endash" xMin="90" yMin="184" xMax="525" yMax="202">
      <contour>
        <pt x="523" y="184" on="1"/>
        <pt x="90" y="184" on="1"/>
        <pt x="92" y="202" on="1"/>
        <pt x="525" y="202" on="1"/>
      </contour>
    </TTGlyph>
    <TTGlyph name="equal" xMin="82" yMin="137" xMax="487" yMax="264">
      <contour>
        <pt x="485" y="246" on="1"/>
        <pt x="102" y="246" on="1"/>
        <pt x="104" y="264" on="1"/>
        <pt x="487" y="264" on="1"/>
      </contour>
      <contour>
        <pt x="465" y="137" on="1"/>
        <pt x="82" y="137" on="1"/>
        <pt x="84" y="155" on="1"/>
        <pt x="467" y="155" on="1"/>
      </contour>
    </TTGlyph>
    <TTGlyph name="eth" xMin="54" yMin="-8" xMax="494" yMax="533">
      <contour>
        <pt x="263" y="514" on="1"/>
        <pt x="263" y="533" on="1"/>
        <pt x="356" y="533" on="0"/>
        <pt x="406" y="463" on="1"/>
        <pt x="494" y="463" on="1"/>
        <pt x="491" y="445" on="1"/>
        <pt x="417" y="445" on="1"/>
        <pt x="448" y="388" on="0"/>
        <pt x="448" y="306" on="1"/>
        <pt x="448" y="172" on="0"/>
        <pt x="303" y="-8" on="0"/>
        <pt x="193" y="-8" on="1"/>
        <pt x="128" y="-8" on="0"/>
        <pt x="54" y="72" on="0"/>
        <pt x="54" y="196" on="0"/>
        <pt x="106" y="298" on="0"/>
        <pt x="182" y="361" on="0"/>
        <pt x="262" y="397" on="0"/>
        <pt x="293" y="397" on="1"/>
        <pt x="293" y="376" on="1"/>
        <pt x="243" y="376" on="0"/>
        <pt x="167" y="226" on="0"/>
        <pt x="167" y="133" on="1"/>
        <pt x="167" y="28" on="0"/>
        <pt x="247" y="28" on="1"/>
        <pt x="304" y="28" on="0"/>
        <pt x="363" y="98" on="1"/>
        <pt x="391" y="132" on="0"/>
        <pt x="428" y="242" on="0"/>
        <pt x="428" y="390" on="0"/>
        <pt x="395" y="445" on="1"/>
        <pt x="288" y="445" on="1"/>
        <pt x="291" y="463" on="1"/>
        <pt x="382" y="463" on="1"/>
        <pt x="339" y="514" on="0"/>
      </contour>
    </TTGlyph>
    <TTGlyph name="exclam" xMin="55" yMin="-8" xMax="227" yMax="614">
      <contour>
        <pt x="55" y="21" on="0"/>
        <pt x="55" y="63" on="0"/>
        <pt x="84" y="93" on="0"/>
        <pt x="126" y="93" on="0"/>
        <pt x="156" y="63" on="0"/>
        <pt x="156" y="21" on="0"/>
        <pt x="126" y="-8" on="0"/>
        <pt x="84" y="-8" on="0"/>
      </contour>
      <contour>
        <pt x="111" y="125" on="1"/>
        <pt x="198" y="614" on="1"/>
        <pt x="227" y="610" on="1"/>
        <pt x="138" y="122" on="1"/>
      </contour>
    </TTGlyph>
    <TTGlyph name="exclamdown" xMin="55" yMin="-166" xMax="227" yMax="456">
      <contour>
        <pt x="227" y="427" on="0"/>
        <pt x="227" y="385" on="0"/>
        <pt x="198" y="355" on="0"/>
        <pt x="156" y="355" on="0"/>
        <pt x="126" y="385" on="0"/>
        <pt x="126" y="427" on="0"/>
        <pt x="156" y="456" on="0"/>
        <pt x="198" y="456" on="0"/>
      </contour>
      <contour>
        <pt x="171" y="323" on="1"/>
        <pt x="84" y="-166" on="1"/>
        <pt x="55" y="-162" on="1"/>
        <pt x="144" y="326" on="1"/>
      </contour>
    </TTGlyph>
    <TTGlyph name="f" xMin="51" yMin="-70" xMax="377" yMax="648">
      <contour>
        <pt x="294" y="648" on="1"/>
        <pt x="330" y="648" on="0"/>
        <pt x="377" y="594" on="0"/>
        <pt x="377" y="486" on="0"/>
        <pt x="334" y="380" on="1"/>
        <pt x="372" y="380" on="1"/>
        <pt x="370" y="362" on="1"/>
        <pt x="326" y="362" on="1"/>
        <pt x="292" y="277" on="0"/>
        <pt x="292" y="233" on="1"/>
        <pt x="274" y="233" on="1"/>
        <pt x="274" y="285" on="0"/>
        <pt x="307" y="362" on="1"/>
        <pt x="249" y="362" on="1"/>
        <pt x="219" y="205" on="0"/>
        <pt x="172" y="-70" on="1"/>
        <pt x="51" y="-70" on="1"/>
        <pt x="128" y="362" on="1"/>
        <pt x="67" y="362" on="1"/>
        <pt x="69" y="380" on="1"/>
        <pt x="131" y="380" on="1"/>
        <pt x="147" y="466" on="1"/>
        <pt x="163" y="565" on="0"/>
        <pt x="230" y="648" on="0"/>
      </contour>
      <contour>
        <pt x="358" y="542" on="1"/>
        <pt x="358" y="578" on="0"/>
        <pt x="325" y="630" on="0"/>
        <pt x="301" y="630" on="1"/>
        <pt x="291" y="591" on="0"/>
        <pt x="252" y="380" on="1"/>
        <pt x="314" y="380" on="1"/>
        <pt x="358" y="480" on="0"/>
      </contour>
    </TTGlyph>
    <TTGlyph name="five" xMin="-4" yMin="-166" xMax="415" yMax="389">
      <contour>
        <pt x="121" y="199" on="1"/>
        <pt x="217" y="199" on="0"/>
        <pt x="311" y="121" on="0"/>
        <pt x="311" y="-5" on="0"/>
        <pt x="255" y="-93" on="0"/>
        <pt x="208" y="-118" on="1"/>
        <pt x="115" y="-166" on="0"/>
        <pt x="-4" y="-166" on="1"/>
        <pt x="-4" y="-147" on="1"/>
        <pt x="108" y="-147" on="0"/>
        <pt x="223" y="-59" on="0"/>
        <pt x="223" y="45" on="1"/>
        <pt x="223" y="183" on="0"/>
        <pt x="102" y="183" on="1"/>
        <pt x="69" y="183" on="1"/>
        <pt x="157" y="389" on="1"/>
        <pt x="415" y="389" on="1"/>
        <pt x="381" y="295" on="1"/>
        <pt x="139" y="295" on="1"/>
        <pt x="98" y="199" on="1"/>
      </contour>
    </TTGlyph>
    <TTGlyph name="florin" xMin="11" yMin="-83" xMax="434" yMax="648">
      <contour>
        <pt x="331" y="233" on="1"/>
        <pt x="331" y="285" on="0"/>
        <pt x="364" y="362" on="1"/>
        <pt x="305" y="362" on="1"/>
        <pt x="295" y="307" on="0"/>
        <pt x="265" y="131" on="1"/>
        <pt x="246" y="24" on="0"/>
        <pt x="147" y="-83" on="0"/>
        <pt x="57" y="-83" on="1"/>
        <pt x="31" y="-83" on="0"/>
        <pt x="11" y="-74" on="1"/>
        <pt x="18" y="-55" on="1"/>
        <pt x="35" y="-64" on="0"/>
        <pt x="86" y="-64" on="0"/>
        <pt x="114" y="-27" on="0"/>
        <pt x="124" y="26" on="1"/>
        <pt x="185" y="362" on="1"/>
        <pt x="124" y="362" on="1"/>
        <pt x="126" y="380" on="1"/>
        <pt x="188" y="380" on="1"/>
        <pt x="204" y="466" on="1"/>
        <pt x="220" y="565" on="0"/>
        <pt x="287" y="648" on="0"/>
        <pt x="351" y="648" on="1"/>
        <pt x="387" y="648" on="0"/>
        <pt x="434" y="594" on="0"/>
        <pt x="434" y="486" on="0"/>
        <pt x="391" y="380" on="1"/>
        <pt x="409" y="380" on="1"/>
        <pt x="407" y="362" on="1"/>
        <pt x="383" y="362" on="1"/>
        <pt x="349" y="277" on="0"/>
        <pt x="349" y="233" on="1"/>
      </contour>
      <contour>
        <pt x="415" y="542" on="1"/>
        <pt x="415" y="578" on="0"/>
        <pt x="382" y="630" on="0"/>
        <pt x="358" y="630" on="1"/>
        <pt x="341" y="564" on="0"/>
        <pt x="309" y="380" on="1"/>
        <pt x="371" y="380" on="1"/>
        <pt x="415" y="480" on="0"/>
      </contour>
    </TTGlyph>
    <TTGlyph name="four" xMin="6" yMin="-159" xMax="457" yMax="419">
      <contour>
        <pt x="6" y="24" on="1"/>
        <pt x="6" y="44" on="1"/>
        <pt x="457" y="419" on="1"/>
        <pt x="350" y="118" on="1"/>
        <pt x="431" y="118" on="1"/>
        <pt x="397" y="24" on="1"/>
        <pt x="317" y="24" on="1"/>
        <pt x="252" y="-159" on="1"/>
        <pt x="230" y="-157" on="1"/>
        <pt x="293" y="24" on="1"/>
      </contour>
      <contour>
        <pt x="412" y="355" on="1"/>
        <pt x="128" y="118" on="1"/>
        <pt x="327" y="118" on="1"/>
      </contour>
    </TTGlyph>
    <TTGlyph name="g" xMin="37" yMin="-184" xMax="485" yMax="389">
      <contour>
        <pt x="388" y="-109" on="1"/>
        <pt x="424" y="-109" on="0"/>
        <pt x="450" y="-81" on="1"/>
        <pt x="464" y="-93" on="1"/>
        <pt x="440" y="-127" on="0"/>
        <pt x="388" y="-127" on="1"/>
        <pt x="366" y="-127" on="0"/>
        <pt x="343" y="-122" on="1"/>
        <pt x="275" y="-184" on="0"/>
        <pt x="169" y="-184" on="1"/>
        <pt x="106" y="-184" on="0"/>
        <pt x="37" y="-141" on="0"/>
        <pt x="37" y="-72" on="0"/>
        <pt x="80" y="-31" on="0"/>
        <pt x="190" y="-31" on="0"/>
        <pt x="280" y="-76" on="1"/>
        <pt x="311" y="90" on="1"/>
        <pt x="266" y="7" on="0"/>
        <pt x="195" y="7" on="1"/>
        <pt x="59" y="7" on="0"/>
        <pt x="59" y="141" on="1"/>
        <pt x="59" y="253" on="0"/>
        <pt x="172" y="389" on="0"/>
        <pt x="260" y="389" on="1"/>
        <pt x="311" y="389" on="0"/>
        <pt x="339" y="358" on="1"/>
        <pt x="347" y="349" on="0"/>
        <pt x="355" y="331" on="1"/>
        <pt x="364" y="380" on="1"/>
        <pt x="438" y="380" on="0"/>
        <pt x="472" y="386" on="1"/>
        <pt x="485" y="389" on="1"/>
        <pt x="419" y="20" on="1"/>
        <pt x="404" y="-58" on="0"/>
        <pt x="359" y="-106" on="1"/>
        <pt x="372" y="-109" on="0"/>
      </contour>
      <contour>
        <pt x="172" y="64" on="0"/>
        <pt x="190" y="33" on="0"/>
        <pt x="240" y="33" on="0"/>
        <pt x="292" y="87" on="0"/>
        <pt x="315" y="134" on="0"/>
        <pt x="323" y="156" on="1"/>
        <pt x="344" y="271" on="1"/>
        <pt x="344" y="278" on="1"/>
        <pt x="344" y="370" on="0"/>
        <pt x="260" y="370" on="1"/>
        <pt x="228" y="370" on="0"/>
        <pt x="172" y="196" on="0"/>
        <pt x="172" y="110" on="1"/>
      </contour>
      <contour>
        <pt x="165" y="-164" on="1"/>
        <pt x="245" y="-164" on="0"/>
        <pt x="273" y="-95" on="1"/>
        <pt x="259" y="-88" on="1"/>
        <pt x="247" y="-82" on="0"/>
        <pt x="242" y="-79" on="0"/>
        <pt x="220" y="-69" on="0"/>
        <pt x="210" y="-66" on="0"/>
        <pt x="189" y="-58" on="0"/>
        <pt x="175" y="-55" on="0"/>
        <pt x="166" y="-53" on="1"/>
        <pt x="151" y="-50" on="0"/>
        <pt x="93" y="-50" on="0"/>
        <pt x="58" y="-78" on="0"/>
        <pt x="58" y="-132" on="0"/>
        <pt x="116" y="-164" on="0"/>
      </contour>
    </TTGlyph>
    <TTGlyph name="germandbls" xMin="44" yMin="-27" xMax="488" yMax="538">
      <contour>
        <pt x="128" y="449" on="0"/>
        <pt x="216" y="538" on="0"/>
        <pt x="397" y="538" on="0"/>
        <pt x="488" y="464" on="0"/>
        <pt x="488" y="333" on="0"/>
        <pt x="410" y="262" on="0"/>
        <pt x="354" y="250" on="1"/>
        <pt x="470" y="230" on="0"/>
        <pt x="470" y="140" on="1"/>
        <pt x="470" y="75" on="0"/>
        <pt x="375" y="-9" on="0"/>
        <pt x="194" y="-9" on="0"/>
        <pt x="151" y="36" on="1"/>
        <pt x="63" y="-27" on="1"/>
        <pt x="44" y="-27" on="1"/>
        <pt x="96" y="271" on="0"/>
      </contour>
      <contour>
        <pt x="172" y="57" on="1"/>
        <pt x="198" y="24" on="0"/>
        <pt x="292" y="24" on="0"/>
        <pt x="349" y="103" on="0"/>
        <pt x="349" y="158" on="1"/>
        <pt x="349" y="225" on="0"/>
        <pt x="284" y="242" on="1"/>
        <pt x="264" y="243" on="1"/>
        <pt x="268" y="265" on="1"/>
        <pt x="324" y="265" on="0"/>
        <pt x="382" y="334" on="0"/>
        <pt x="382" y="431" on="1"/>
        <pt x="382" y="514" on="0"/>
        <pt x="323" y="514" on="1"/>
        <pt x="254" y="514" on="0"/>
        <pt x="232" y="386" on="1"/>
      </contour>
    </TTGlyph>
    <TTGlyph name="grave" xMin="33" yMin="458" xMax="112" yMax="574">
      <contour>
        <pt x="59" y="574" on="1"/>
        <pt x="112" y="468" on="1"/>
        <pt x="86" y="458" on="1"/>
        <pt x="33" y="564" on="1"/>
      </contour>
    </TTGlyph>
    <TTGlyph name="greater" xMin="59" yMin="62" xMax="288" yMax="350">
      <contour>
        <pt x="140" y="340" on="1"/>
        <pt x="140" y="278" on="0"/>
        <pt x="288" y="219" on="1"/>
        <pt x="283" y="193" on="1"/>
        <pt x="257" y="185" on="0"/>
        <pt x="200" y="160" on="1"/>
        <pt x="90" y="112" on="0"/>
        <pt x="80" y="62" on="1"/>
        <pt x="59" y="62" on="1"/>
        <pt x="65" y="95" on="0"/>
        <pt x="104" y="126" on="1"/>
        <pt x="166" y="176" on="0"/>
        <pt x="265" y="207" on="1"/>
        <pt x="155" y="250" on="0"/>
        <pt x="126" y="303" on="1"/>
        <pt x="118" y="319" on="0"/>
        <pt x="118" y="342" on="0"/>
        <pt x="120" y="350" on="1"/>
        <pt x="141" y="350" on="1"/>
        <pt x="140" y="345" on="0"/>
      </contour>
    </TTGlyph>
    <TTGlyph name="guillemotleft" xMin="67" yMin="62" xMax="444" yMax="350">
      <contour>
        <pt x="215" y="72" on="1"/>
        <pt x="215" y="134" on="0"/>
        <pt x="67" y="193" on="1"/>
        <pt x="72" y="219" on="1"/>
        <pt x="98" y="227" on="0"/>
        <pt x="155" y="252" on="1"/>
        <pt x="265" y="300" on="0"/>
        <pt x="275" y="350" on="1"/>
        <pt x="296" y="350" on="1"/>
        <pt x="290" y="317" on="0"/>
        <pt x="251" y="286" on="1"/>
        <pt x="189" y="236" on="0"/>
        <pt x="90" y="205" on="1"/>
        <pt x="200" y="162" on="0"/>
        <pt x="228" y="109" on="1"/>
        <pt x="237" y="93" on="0"/>
        <pt x="237" y="70" on="0"/>
        <pt x="235" y="62" on="1"/>
        <pt x="214" y="62" on="1"/>
        <pt x="215" y="67" on="0"/>
      </contour>
      <contour>
        <pt x="363" y="72" on="1"/>
        <pt x="363" y="134" on="0"/>
        <pt x="215" y="193" on="1"/>
        <pt x="220" y="219" on="1"/>
        <pt x="246" y="227" on="0"/>
        <pt x="303" y="252" on="1"/>
        <pt x="413" y="300" on="0"/>
        <pt x="423" y="350" on="1"/>
        <pt x="444" y="350" on="1"/>
        <pt x="438" y="317" on="0"/>
        <pt x="399" y="286" on="1"/>
        <pt x="337" y="236" on="0"/>
        <pt x="238" y="205" on="1"/>
        <pt x="348" y="162" on="0"/>
        <pt x="376" y="109" on="1"/>
        <pt x="385" y="93" on="0"/>
        <pt x="385" y="70" on="0"/>
        <pt x="383" y="62" on="1"/>
        <pt x="362" y="62" on="1"/>
        <pt x="363" y="67" on="0"/>
      </contour>
    </TTGlyph>
    <TTGlyph name="guillemotright" xMin="59" yMin="62" xMax="436" yMax="350">
      <contour>
        <pt x="288" y="340" on="1"/>
        <pt x="288" y="278" on="0"/>
        <pt x="436" y="219" on="1"/>
        <pt x="431" y="193" on="1"/>
        <pt x="405" y="185" on="0"/>
        <pt x="348" y="160" on="1"/>
        <pt x="238" y="112" on="0"/>
        <pt x="228" y="62" on="1"/>
        <pt x="207" y="62" on="1"/>
        <pt x="213" y="95" on="0"/>
        <pt x="252" y="126" on="1"/>
        <pt x="314" y="176" on="0"/>
        <pt x="413" y="207" on="1"/>
        <pt x="303" y="250" on="0"/>
        <pt x="274" y="303" on="1"/>
        <pt x="266" y="319" on="0"/>
        <pt x="266" y="342" on="0"/>
        <pt x="268" y="350" on="1"/>
        <pt x="289" y="350" on="1"/>
        <pt x="288" y="345" on="0"/>
      </contour>
      <contour>
        <pt x="140" y="340" on="1"/>
        <pt x="140" y="278" on="0"/>
        <pt x="288" y="219" on="1"/>
        <pt x="283" y="193" on="1"/>
        <pt x="257" y="185" on="0"/>
        <pt x="200" y="160" on="1"/>
        <pt x="90" y="112" on="0"/>
        <pt x="80" y="62" on="1"/>
        <pt x="59" y="62" on="1"/>
        <pt x="65" y="95" on="0"/>
        <pt x="104" y="126" on="1"/>
        <pt x="166" y="176" on="0"/>
        <pt x="265" y="207" on="1"/>
        <pt x="155" y="250" on="0"/>
        <pt x="126" y="303" on="1"/>
        <pt x="118" y="319" on="0"/>
        <pt x="118" y="342" on="0"/>
        <pt x="120" y="350" on="1"/>
        <pt x="141" y="350" on="1"/>
        <pt x="140" y="345" on="0"/>
      </contour>
    </TTGlyph>
    <TTGlyph name="guilsinglleft" xMin="67" yMin="62" xMax="296" yMax="350">
      <contour>
        <pt x="215" y="72" on="1"/>
        <pt x="215" y="134" on="0"/>
        <pt x="67" y="193" on="1"/>
        <pt x="72" y="219" on="1"/>
        <pt x="98" y="227" on="0"/>
        <pt x="155" y="252" on="1"/>
        <pt x="265" y="300" on="0"/>
        <pt x="275" y="350" on="1"/>
        <pt x="296" y="350" on="1"/>
        <pt x="290" y="317" on="0"/>
        <pt x="251" y="286" on="1"/>
        <pt x="189" y="236" on="0"/>
        <pt x="90" y="205" on="1"/>
        <pt x="200" y="162" on="0"/>
        <pt x="228" y="109" on="1"/>
        <pt x="237" y="93" on="0"/>
        <pt x="237" y="70" on="0"/>
        <pt x="235" y="62" on="1"/>
        <pt x="214" y="62" on="1"/>
        <pt x="215" y="67" on="0"/>
      </contour>
    </TTGlyph>
    <TTGlyph name="guilsinglright" xMin="59" yMin="62" xMax="288" yMax="350">
      <contour>
        <pt x="140" y="340" on="1"/>
        <pt x="140" y="278" on="0"/>
        <pt x="288" y="219" on="1"/>
        <pt x="283" y="193" on="1"/>
        <pt x="257" y="185" on="0"/>
        <pt x="200" y="160" on="1"/>
        <pt x="90" y="112" on="0"/>
        <pt x="80" y="62" on="1"/>
        <pt x="59" y="62" on="1"/>
        <pt x="65" y="95" on="0"/>
        <pt x="104" y="126" on="1"/>
        <pt x="166" y="176" on="0"/>
        <pt x="265" y="207" on="1"/>
        <pt x="155" y="250" on="0"/>
        <pt x="126" y="303" on="1"/>
        <pt x="118" y="319" on="0"/>
        <pt x="118" y="342" on="0"/>
        <pt x="120" y="350" on="1"/>
        <pt x="141" y="350" on="1"/>
        <pt x="140" y="345" on="0"/>
      </contour>
    </TTGlyph>
</ttFont>
